<svg width="169" height="32" viewBox="0 0 169 32" fill="none" xmlns="http://www.w3.org/2000/svg">
<path fill-rule="evenodd" clip-rule="evenodd" d="M5.63542 26.4865C6.13635 25.9229 6.32419 25.1089 6.32419 24.1071C6.32419 23.0426 6.07373 22.2286 5.63542 21.6651C5.19711 21.1015 4.50834 20.7884 3.69433 20.7884C2.88033 20.7884 2.19155 20.9763 1.69063 21.6024C1.1897 22.2286 1.00185 22.98 1.00185 24.0445C1.00185 25.1089 1.25232 25.9229 1.69063 26.4865C2.12894 27.05 2.81771 27.3631 3.63172 27.3631C4.50834 27.3005 5.13449 27.05 5.63542 26.4865ZM5.63542 20.3501C6.19896 20.7258 6.57466 21.1641 6.88774 21.8529C7.20082 22.4791 7.32605 23.2304 7.32605 24.0445C7.32605 24.8585 7.20082 25.6098 6.88774 26.236C6.57466 26.8622 6.19896 27.3631 5.63542 27.6762C5.07188 27.9892 4.44572 28.1771 3.75695 28.1771C3.13079 28.1771 2.56725 28.0519 2.06632 27.7388C1.56539 27.4257 1.25231 27.05 1.00185 26.4865V30.6191C1.00185 30.7443 0.939238 30.8696 0.876622 30.9948C0.814006 31.12 0.688773 31.12 0.500926 31.12C0.313078 31.12 0.250464 31.0574 0.125232 30.9948C0.0626163 30.9322 0 30.807 0 30.6191V20.4127C0 20.2875 0.0626163 20.1623 0.125232 20.037C0.250464 19.9118 0.313078 19.9118 0.500926 19.9118C0.688773 19.9118 0.75139 19.9744 0.876622 20.037C0.939238 20.1623 1.00185 20.2249 1.00185 20.4127V21.5398C1.25231 20.9763 1.62801 20.6006 2.06632 20.2875C2.50463 19.9744 3.13079 19.8492 3.75695 19.8492C4.50834 19.8492 5.13449 20.037 5.63542 20.3501Z" fill="white"/>
<path fill-rule="evenodd" clip-rule="evenodd" d="M15.0277 26.4864C15.466 25.9228 15.7165 25.1088 15.7165 24.0444C15.7165 22.9799 15.466 22.1659 15.0277 21.6023C14.5268 21.0388 13.9006 20.7257 13.0866 20.7257C12.2726 20.7257 11.5839 21.0388 11.1455 21.6023C10.7072 22.1659 10.4568 22.9799 10.4568 24.0444C10.4568 25.1088 10.7072 25.9228 11.1455 26.4864C11.5839 27.0499 12.2726 27.363 13.0866 27.363C13.9006 27.363 14.5268 27.0499 15.0277 26.4864ZM11.0829 27.6761C10.5194 27.363 10.0811 26.8621 9.768 26.2359C9.45492 25.6098 9.32969 24.8584 9.32969 24.0444C9.32969 23.2304 9.45492 22.479 9.768 21.8528C10.0811 21.2267 10.5194 20.7257 11.0829 20.4126C11.6465 20.0996 12.2726 19.9117 13.024 19.9117C13.7754 19.9117 14.4016 20.0996 14.9651 20.4126C15.5287 20.7257 15.967 21.2267 16.28 21.8528C16.5931 22.479 16.7184 23.2304 16.7184 24.0444C16.7184 24.8584 16.5931 25.6098 16.28 26.2359C15.967 26.8621 15.5287 27.363 14.9651 27.6761C14.4016 27.9892 13.7754 28.177 13.024 28.177C12.3352 28.2396 11.6465 28.0518 11.0829 27.6761Z" fill="white"/>
<path fill-rule="evenodd" clip-rule="evenodd" d="M30.6818 19.9118C30.807 19.9118 30.9322 19.9744 31.0575 20.037C31.1827 20.0997 31.1827 20.2249 31.1827 20.3501C31.1827 20.3501 31.1827 20.4127 31.1201 20.538L28.365 27.8014C28.3024 27.9266 28.2398 27.9892 28.1145 28.1145C27.9893 28.1771 27.9267 28.2397 27.8014 28.2397C27.6762 28.2397 27.551 28.1771 27.4884 28.1145C27.3631 28.0519 27.3005 27.9266 27.2379 27.8014L24.7959 21.4772L22.3539 27.8014C22.2912 27.9266 22.2286 27.9892 22.1034 28.1145C21.9782 28.1771 21.9156 28.2397 21.7903 28.2397C21.6651 28.2397 21.5399 28.1771 21.4772 28.1145C21.352 28.0519 21.2894 27.9266 21.2268 27.8014L18.4091 20.6006C18.4091 20.538 18.3465 20.4754 18.3465 20.4127C18.3465 20.2875 18.4091 20.1623 18.5343 20.037C18.6595 19.9118 18.7848 19.9118 18.91 19.9118C19.0978 19.9118 19.2857 20.037 19.3483 20.2249L21.7903 26.7995L24.295 20.2875C24.3576 20.1623 24.4202 20.0997 24.4828 19.9744C24.5454 19.8492 24.6706 19.8492 24.7959 19.8492C24.9211 19.8492 24.9837 19.9118 25.109 19.9744C25.2342 20.037 25.2968 20.1623 25.2968 20.2875L27.8014 26.7995L30.2435 20.2875C30.3061 19.9744 30.4313 19.9118 30.6818 19.9118Z" fill="white"/>
<path fill-rule="evenodd" clip-rule="evenodd" d="M34.6891 21.4145C34.2508 21.9155 33.9377 22.6042 33.8751 23.4809H39.0096C39.0096 22.6042 38.7591 21.9155 38.3208 21.4145C37.8825 20.9136 37.3189 20.6631 36.5676 20.6631C35.7536 20.6631 35.1274 20.9136 34.6891 21.4145ZM39.6983 26.4864C39.761 26.549 39.8236 26.6743 39.8236 26.7995C39.8236 27.05 39.6357 27.3004 39.26 27.4883C38.446 27.9892 37.632 28.177 36.7554 28.177C35.5031 28.177 34.5638 27.8013 33.8751 27.05C33.1863 26.2986 32.8106 25.2967 32.8106 23.9818C32.8106 23.1678 32.9985 22.4164 33.3115 21.7902C33.6246 21.1641 34.0629 20.6631 34.6265 20.2874C35.19 19.9118 35.8788 19.7865 36.5676 19.7865C37.632 19.7865 38.446 20.0996 39.0096 20.7884C39.6357 21.4771 39.8862 22.3538 39.8862 23.5435C39.8862 23.7313 39.8236 23.9192 39.761 23.9818C39.6983 24.107 39.5105 24.107 39.3227 24.107H33.8125C33.8751 25.1089 34.1255 25.9229 34.6265 26.4238C35.1274 26.9247 35.8162 27.2378 36.7554 27.2378C37.2563 27.2378 37.632 27.1752 37.9451 27.05C38.2582 26.9247 38.6339 26.7369 38.947 26.549C39.1974 26.3612 39.3853 26.2986 39.4479 26.2986C39.5731 26.3612 39.6357 26.4238 39.6983 26.4864Z" fill="white"/>
<path fill-rule="evenodd" clip-rule="evenodd" d="M46.5235 19.9744C46.5861 20.0371 46.6487 20.1623 46.6487 20.2875C46.6487 20.538 46.4609 20.7258 46.1478 20.7258L45.7095 20.7884C44.8955 20.8511 44.3319 21.1641 43.9563 21.6651C43.5806 22.166 43.3927 22.7295 43.3927 23.3557V27.6762C43.3927 27.864 43.3301 27.9893 43.2675 28.0519C43.2049 28.1145 43.0796 28.1771 42.8918 28.1771C42.7039 28.1771 42.6413 28.1145 42.5161 28.0519C42.3909 27.9893 42.3909 27.864 42.3909 27.6762V20.4127C42.3909 20.2249 42.4535 20.0997 42.5161 20.0371C42.6413 19.9744 42.7039 19.9118 42.8918 19.9118C43.017 19.9118 43.1422 19.9744 43.2675 20.0371C43.3301 20.0997 43.3927 20.2249 43.3927 20.4127V21.4772C43.831 20.538 44.7076 19.9744 45.8973 19.9118H46.1478C46.3357 19.8492 46.4609 19.9118 46.5235 19.9744Z" fill="white"/>
<path fill-rule="evenodd" clip-rule="evenodd" d="M49.5291 21.4145C49.0907 21.9155 48.7777 22.6042 48.7151 23.4809H53.8495C53.8495 22.6042 53.5991 21.9155 53.1608 21.4145C52.7225 20.9136 52.1589 20.6631 51.4075 20.6631C50.5935 20.6631 50.03 20.9136 49.5291 21.4145ZM54.6009 26.4864C54.6635 26.549 54.7262 26.6743 54.7262 26.7995C54.7262 27.05 54.5383 27.3004 54.1626 27.4883C53.3486 27.9892 52.5346 28.177 51.658 28.177C50.4057 28.177 49.4664 27.8013 48.7777 27.05C48.0889 26.2986 47.7132 25.2967 47.7132 23.9818C47.7132 23.1678 47.901 22.4164 48.2141 21.7902C48.5272 21.1641 48.9655 20.6631 49.5291 20.2874C50.0926 19.9118 50.7814 19.7865 51.4701 19.7865C52.5346 19.7865 53.3486 20.0996 53.9122 20.7884C54.5383 21.4771 54.7888 22.3538 54.7888 23.5435C54.7888 23.7313 54.7262 23.9192 54.6636 23.9818C54.6009 24.107 54.4131 24.107 54.2252 24.107H48.7151C48.7777 25.1089 49.0281 25.9229 49.5291 26.4238C50.03 26.9247 50.7188 27.2378 51.658 27.2378C52.1589 27.2378 52.5346 27.1752 52.8477 27.05C53.1608 26.9247 53.5365 26.7369 53.8495 26.549C54.1 26.3612 54.2879 26.2986 54.3505 26.2986C54.4131 26.3612 54.4757 26.4238 54.6009 26.4864Z" fill="white"/>
<path fill-rule="evenodd" clip-rule="evenodd" d="M62.3654 26.4864C62.8037 25.9228 63.0542 25.1088 63.0542 24.0444C63.0542 22.9799 62.8037 22.1659 62.3654 21.6023C61.9271 21.0388 61.2383 20.7257 60.4243 20.7257C59.5477 20.7257 58.9215 21.0388 58.4206 21.6023C57.9823 22.1659 57.7318 22.9799 57.7318 24.0444C57.7318 25.1088 57.9823 25.9228 58.4206 26.4864C58.8589 27.0499 59.5477 27.363 60.3617 27.363C61.2383 27.3004 61.9271 27.0499 62.3654 26.4864ZM63.9308 16.4679C64.056 16.5931 64.056 16.6557 64.056 16.8435V27.6761C64.056 27.8013 63.9934 27.9265 63.9308 28.0518C63.8056 28.177 63.7429 28.177 63.5551 28.177C63.3672 28.177 63.3046 28.1144 63.1794 28.0518C63.1168 27.9265 63.0542 27.8639 63.0542 27.6761V26.549C62.8037 27.1125 62.428 27.4882 61.9897 27.8013C61.4888 28.1144 60.9252 28.2396 60.2991 28.2396C59.6103 28.2396 58.9841 28.0518 58.4206 27.7387C57.857 27.4256 57.4814 26.9247 57.1683 26.2359C56.8552 25.6098 56.73 24.8584 56.73 24.0444C56.73 23.2304 56.8552 22.479 57.1683 21.8528C57.4814 21.2267 57.857 20.7257 58.4206 20.4126C58.9841 20.0996 59.6103 19.9117 60.2991 19.9117C60.9252 19.9117 61.4888 20.037 61.9897 20.35C62.4906 20.6631 62.8037 21.0388 63.0542 21.6023V16.9062C63.0542 16.7809 63.1168 16.6557 63.1794 16.5305C63.242 16.4052 63.3672 16.4052 63.5551 16.4052C63.7429 16.4052 63.8056 16.3426 63.9308 16.4679Z" fill="white"/>
<path fill-rule="evenodd" clip-rule="evenodd" d="M77.2053 26.4238C77.7062 25.8603 77.8941 25.0462 77.8941 23.9818C77.8941 22.9173 77.6436 22.1659 77.2053 21.5398C76.7044 20.9762 76.0782 20.6631 75.2016 20.6631C74.3876 20.6631 73.6988 20.9762 73.2605 21.5398C72.8222 22.1033 72.5717 22.9173 72.5717 23.9818C72.5717 25.0462 72.8222 25.8603 73.2605 26.4238C73.6988 26.9873 74.3876 27.3004 75.2016 27.3004C76.0782 27.3004 76.7044 26.9873 77.2053 26.4238ZM77.2053 20.3501C77.7688 20.6631 78.1445 21.1641 78.4576 21.7902C78.7707 22.4164 78.8959 23.1678 78.8959 23.9818C78.8959 24.7958 78.7707 25.5472 78.4576 26.1733C78.1445 26.7995 77.7688 27.3004 77.2053 27.6761C76.6417 28.0518 76.0156 28.177 75.3268 28.177C74.7007 28.177 74.1371 28.0518 73.6362 27.7387C73.1353 27.4256 72.8222 27.05 72.5717 26.4864V27.6135C72.5717 27.7387 72.5091 27.864 72.4465 27.9892C72.3839 28.1144 72.2586 28.1144 72.0708 28.1144C71.883 28.1144 71.8203 28.0518 71.6951 27.9892C71.5699 27.864 71.5699 27.8013 71.5699 27.6135V16.8436C71.5699 16.7183 71.6325 16.5931 71.6951 16.4679C71.8203 16.3427 71.883 16.3427 72.0708 16.3427C72.2586 16.3427 72.3213 16.4053 72.4465 16.4679C72.5091 16.5931 72.5717 16.6557 72.5717 16.8436V21.5398C72.8222 20.9762 73.1979 20.6005 73.6362 20.2874C74.1371 19.9744 74.7007 19.8491 75.3268 19.8491C76.0782 19.8491 76.7044 20.037 77.2053 20.3501Z" fill="white"/>
<path fill-rule="evenodd" clip-rule="evenodd" d="M87.6621 19.8492C87.7873 19.8492 87.9125 19.9118 87.9752 19.9744C88.0378 20.037 88.1004 20.1623 88.1004 20.2875C88.1004 20.3501 88.1004 20.4127 88.0378 20.4754L83.3416 30.807C83.279 30.9948 83.0911 31.12 82.9033 31.12C82.778 31.12 82.6528 31.0574 82.5902 30.9948C82.465 30.9322 82.465 30.807 82.465 30.6817C82.465 30.6191 82.465 30.5565 82.5276 30.4939L83.7173 27.9266L80.336 20.538C80.2734 20.4754 80.2734 20.4127 80.2734 20.3501C80.2734 20.2249 80.336 20.0997 80.4613 20.037C80.5865 19.9118 80.7117 19.9118 80.837 19.9118C81.0248 19.9118 81.2126 20.037 81.2753 20.2249L84.2808 26.9248L87.2864 20.2249C87.349 19.9744 87.4742 19.8492 87.6621 19.8492Z" fill="white"/>
<path d="M102.502 17.4072C102.189 17.4072 101.938 17.3446 101.625 17.2193L95.2386 14.0259C94.6124 13.7129 94.1741 13.0241 94.1741 12.3353V5.07188C94.1741 4.38311 94.6124 3.69433 95.2386 3.38125L101.625 0.187847C102.189 -0.0626158 102.815 -0.0626158 103.316 0.187847L109.703 3.38125C110.329 3.69433 110.767 4.38311 110.767 5.07188V12.3353C110.767 13.0241 110.329 13.7129 109.703 14.0259L103.316 17.2193C103.128 17.3446 102.815 17.4072 102.502 17.4072ZM98.3693 11.3335L102.252 13.2745C102.439 13.3372 102.627 13.3372 102.815 13.2745L106.697 11.3335C106.885 11.2082 107.073 11.0204 107.073 10.7699V6.63727C107.073 6.38681 106.948 6.19896 106.76 6.07373L102.878 4.13264C102.69 4.07003 102.502 4.07003 102.314 4.13264L98.432 6.07373C98.2441 6.19896 98.0563 6.38681 98.0563 6.63727V10.7699C98.0563 11.0204 98.1815 11.2082 98.3693 11.3335Z" fill="white"/>
<path d="M102.502 31.1201C102.189 31.1201 101.938 31.0575 101.625 30.9323L95.2386 27.7388C94.6124 27.4258 94.1741 26.737 94.1741 26.0482V18.7848C94.1741 18.096 94.6124 17.4072 95.2386 17.0942L101.625 13.9008C102.189 13.6503 102.815 13.6503 103.316 13.9008L109.703 17.0942C110.329 17.4072 110.767 18.096 110.767 18.7848V26.0482C110.767 26.737 110.329 27.4258 109.703 27.7388L103.316 30.9323C103.066 31.0575 102.752 31.1201 102.502 31.1201ZM102.189 17.9082L98.4946 19.7866C98.2441 19.9119 98.0563 20.1623 98.0563 20.4754V24.4202C98.0563 24.7333 98.2441 24.9838 98.4946 25.109L102.189 26.9875C102.439 27.1127 102.69 27.1127 102.878 26.9875L106.572 25.109C106.822 24.9838 107.01 24.7333 107.01 24.4202V20.4754C107.01 20.1623 106.822 19.9119 106.572 19.7866L102.878 17.9082C102.627 17.7829 102.377 17.7829 102.189 17.9082Z" fill="white"/>
<path d="M120.348 14.9028H121.537L123.29 19.4111L125.106 14.9028H126.296L124.104 20.2877L126.547 25.9858L131.117 14.7775H132.495L127.11 27.4259H125.983L123.353 21.1644L120.661 27.4259H119.596L114.274 14.7775H115.589L120.16 25.9858L122.539 20.2877L120.348 14.9028Z" fill="white"/>
<path d="M138.068 14.7775H139.132L144.392 27.4259H143.077L141.449 23.4811H135.751L134.123 27.4259H132.808L138.068 14.7775ZM141.136 22.4792L138.569 16.2176L136.001 22.4792H141.136Z" fill="white"/>
<path d="M148.274 27.4259V14.7775H149.526V26.2988H156.852V27.4259H148.274Z" fill="white"/>
<path d="M160.422 27.4259V14.7775H161.674V26.2988H169V27.4259H160.422Z" fill="white"/>
<path d="M119.408 5.07203H117.279V10.5196H116.027V5.07203H113.898V3.94495H119.346L119.408 5.07203ZM126.108 4.00756V10.5822H124.856V7.76451H121.85V10.5822H120.598V4.00756H121.85V6.63743H124.856V4.00756H126.108Z" fill="white"/>
</svg>
