<svg width="24" height="20" viewBox="0 0 24 20" fill="none" xmlns="http://www.w3.org/2000/svg">
<path fill-rule="evenodd" clip-rule="evenodd" d="M23 1.00008C23.5523 1.00008 24 1.44779 24 2.00008V8.00008C24 8.55236 23.5523 9.00008 23 9.00008H17C16.4477 9.00008 16 8.55236 16 8.00008C16 7.44779 16.4477 7.00008 17 7.00008H22V2.00008C22 1.44779 22.4477 1.00008 23 1.00008Z" fill="white"/>
<path fill-rule="evenodd" clip-rule="evenodd" d="M3.01877e-06 12.0001C3.01877e-06 11.4478 0.447718 11.0001 1 11.0001H7C7.55229 11.0001 8 11.4478 8 12.0001C8 12.5524 7.55229 13.0001 7 13.0001H2V18.0001C2 18.5524 1.55229 19.0001 1 19.0001C0.447718 19.0001 3.01877e-06 18.5524 3.01877e-06 18.0001V12.0001Z" fill="white"/>
<path fill-rule="evenodd" clip-rule="evenodd" d="M14.2173 2.31747C12.9192 1.94198 11.547 1.90145 10.229 2.19968C8.91091 2.49791 7.68987 3.12517 6.6798 4.02293C5.66973 4.9207 4.90353 6.0597 4.45272 7.33367C4.26848 7.85432 3.69705 8.12703 3.17641 7.94279C2.65576 7.75855 2.38305 7.18713 2.56729 6.66648C3.13081 5.07402 4.08855 3.65026 5.35114 2.52806C6.61373 1.40585 8.14003 0.621774 9.78761 0.248988C11.4352 -0.123797 13.1503 -0.0731415 14.7731 0.396228C16.3906 0.864106 17.8637 1.73284 19.0559 2.92177L23.6848 7.27132C24.0873 7.64951 24.1069 8.28237 23.7288 8.68485C23.3506 9.08733 22.7177 9.10702 22.3152 8.72883L17.6752 4.36883C17.6676 4.36167 17.6601 4.3544 17.6527 4.34701C16.6974 3.3912 15.5155 2.69297 14.2173 2.31747ZM0.27125 11.3153C0.649442 10.9128 1.2823 10.8931 1.68478 11.2713L6.32478 15.6313C6.3324 15.6385 6.3399 15.6458 6.34729 15.6531C7.30262 16.609 8.48451 17.3072 9.78267 17.6827C11.0808 18.0582 12.453 18.0987 13.771 17.8005C15.0891 17.5022 16.3101 16.875 17.3202 15.9772C18.3303 15.0795 19.0965 13.9404 19.5473 12.6665C19.7315 12.1458 20.303 11.8731 20.8236 12.0574C21.3442 12.2416 21.617 12.813 21.4327 13.3337C20.8692 14.9261 19.9115 16.3499 18.6489 17.4721C17.3863 18.5943 15.86 19.3784 14.2124 19.7512C12.5648 20.1239 10.8497 20.0733 9.22695 19.6039C7.6094 19.136 6.13627 18.2673 4.94411 17.0784L0.315226 12.7288C-0.0872528 12.3506 -0.106942 11.7178 0.27125 11.3153Z" fill="white"/>
</svg>
