<svg width="26" height="22" viewBox="0 0 26 22" fill="none" xmlns="http://www.w3.org/2000/svg">
<path fill-rule="evenodd" clip-rule="evenodd" d="M0 2C0 0.89543 0.89543 0 2 0H24C25.1046 0 26 0.89543 26 2V20C26 21.1046 25.1046 22 24 22H2C0.89543 22 0 21.1046 0 20V2ZM24 2H2V20H24V2Z" fill="white"/>
<path fill-rule="evenodd" clip-rule="evenodd" d="M5.5 7C5.5 6.44772 5.94772 6 6.5 6H19.5C20.0523 6 20.5 6.44772 20.5 7C20.5 7.55228 20.0523 8 19.5 8H6.5C5.94772 8 5.5 7.55228 5.5 7Z" fill="white"/>
<path fill-rule="evenodd" clip-rule="evenodd" d="M5.5 11C5.5 10.4477 5.94772 10 6.5 10H19.5C20.0523 10 20.5 10.4477 20.5 11C20.5 11.5523 20.0523 12 19.5 12H6.5C5.94772 12 5.5 11.5523 5.5 11Z" fill="white"/>
<path fill-rule="evenodd" clip-rule="evenodd" d="M5.5 15C5.5 14.4477 5.94772 14 6.5 14H19.5C20.0523 14 20.5 14.4477 20.5 15C20.5 15.5523 20.0523 16 19.5 16H6.5C5.94772 16 5.5 15.5523 5.5 15Z" fill="white"/>
</svg>
