<svg width="26" height="25" viewBox="0 0 26 25" fill="none" xmlns="http://www.w3.org/2000/svg">
<path fill-rule="evenodd" clip-rule="evenodd" d="M0 8.9999C0 7.89533 0.895429 6.9999 2 6.9999H24C25.1046 6.9999 26 7.89533 26 8.9999V12.9999C26 14.1045 25.1046 14.9999 24 14.9999H2C0.895429 14.9999 0 14.1045 0 12.9999V8.9999ZM24 8.9999H2V12.9999H24L24 8.9999Z" fill="white"/>
<path fill-rule="evenodd" clip-rule="evenodd" d="M3 12.9999C3.55228 12.9999 4 13.4476 4 13.9999V22.9999H22V13.9999C22 13.4476 22.4477 12.9999 23 12.9999C23.5523 12.9999 24 13.4476 24 13.9999V22.9999C24 23.5303 23.7893 24.039 23.4142 24.4141C23.0391 24.7892 22.5304 24.9999 22 24.9999H4C3.46957 24.9999 2.96086 24.7892 2.58579 24.4141C2.21071 24.039 2 23.5303 2 22.9999V13.9999C2 13.4476 2.44772 12.9999 3 12.9999Z" fill="white"/>
<path fill-rule="evenodd" clip-rule="evenodd" d="M13 6.9999C13.5523 6.9999 14 7.44762 14 7.9999V23.9999C14 24.5522 13.5523 24.9999 13 24.9999C12.4477 24.9999 12 24.5522 12 23.9999V7.9999C12 7.44762 12.4477 6.9999 13 6.9999Z" fill="white"/>
<path fill-rule="evenodd" clip-rule="evenodd" d="M15.1213 3.05016C15.4964 2.67569 16.0049 2.46543 16.5349 2.46558ZM14.0473 6.95263C14.0721 6.62352 14.1097 6.24226 14.1667 5.84323C14.2503 5.25804 14.3722 4.65915 14.5453 4.13978C14.7241 3.60336 14.928 3.24354 15.1213 3.05016M13 7.9999C12 7.9999 12 7.9999 12 7.9999L12 7.99418L12.0001 7.98234L12.0004 7.94092C12.0008 7.90565 12.0016 7.85529 12.003 7.79159C12.006 7.66428 12.0119 7.48318 12.0235 7.26233C12.0466 6.82217 12.0931 6.21663 12.1868 5.56038C12.28 4.90814 12.4233 4.1812 12.6479 3.50733C12.8668 2.85067 13.1933 2.14971 13.7071 1.63594C14.4574 0.886502 15.475 0.465275 16.5355 0.465576C17.5959 0.465878 18.6129 0.887282 19.3628 1.63715C20.1126 2.38702 20.534 3.40397 20.5343 4.46444C20.5346 5.52491 20.1138 6.5421 19.3644 7.29239C18.8506 7.80616 18.1492 8.13308 17.4926 8.35196C16.8187 8.57659 16.0918 8.7199 15.4395 8.81308C14.7833 8.90682 14.1777 8.95326 13.7376 8.97642C13.5167 8.98805 13.3356 8.99391 13.2083 8.99687C13.1446 8.99835 13.0943 8.99911 13.059 8.9995L13.0176 8.99985L13.0057 8.99989L13.0021 8.9999L13.0008 8.9999C13.0008 8.9999 13 8.9999 13 7.9999ZM13 7.9999H12C12 8.55219 12.4486 8.9999 13.0008 8.9999L13 7.9999ZM17.9497 5.87864C17.7563 6.07196 17.3967 6.27575 16.8601 6.4546C16.3408 6.62772 15.7419 6.74958 15.1567 6.83318C14.7576 6.89018 14.3764 6.92782 14.0473 6.95263M17.9497 5.87864C18.3242 5.50353 18.5345 4.99505 18.5343 4.46501C18.5342 3.93477 18.3235 3.4263 17.9485 3.05136C17.5736 2.67643 17.0651 2.46573 16.5349 2.46558" fill="white"/>
<path fill-rule="evenodd" clip-rule="evenodd" d="M9.46453 0.465576C10.525 0.465275 11.5422 0.8861 12.2925 1.63554C12.8063 2.14931 13.1332 2.85067 13.3521 3.50733C13.5767 4.1812 13.72 4.90814 13.8132 5.56038C13.9069 6.21663 13.9533 6.82217 13.9765 7.26233C13.9881 7.48318 13.994 7.66428 13.997 7.79159C13.9984 7.85529 13.9992 7.90565 13.9996 7.94092L13.9999 7.98234L14 7.99418L14 7.99782L14 7.9999C14 7.9999 14 7.9999 13 7.9999C13 8.9999 12.9996 8.9999 12.9996 8.9999L12.9943 8.99989L12.9824 8.99985L12.941 8.9995C12.9057 8.99911 12.8554 8.99835 12.7917 8.99687C12.6644 8.99391 12.4833 8.98805 12.2624 8.97642C11.8223 8.95326 11.2167 8.90682 10.5605 8.81308C9.90823 8.7199 9.18129 8.57659 8.50742 8.35196C7.85076 8.13308 7.1498 7.80656 6.63603 7.2928C5.88659 6.5425 5.46537 5.52491 5.46567 4.46444C5.46597 3.40397 5.88738 2.38702 6.63724 1.63715C7.38711 0.887282 8.40406 0.465878 9.46453 0.465576ZM8.05025 5.87858C8.24359 6.07192 8.60329 6.27574 9.13987 6.4546C9.65924 6.62772 10.2581 6.74958 10.8433 6.83318C11.2423 6.89018 11.6236 6.92782 11.9527 6.95263C11.9279 6.62352 11.8903 6.24226 11.8333 5.84323C11.7497 5.25804 11.6278 4.65915 11.4547 4.13978C11.2758 3.60324 11.0721 3.24356 10.8787 3.05021M10.8787 3.05021C10.5036 2.67574 9.99515 2.46543 9.4651 2.46558C8.93486 2.46573 8.42639 2.67643 8.05145 3.05136C7.67652 3.4263 7.46582 3.93477 7.46567 4.46501C7.46552 4.99505 7.67578 5.50347 8.05025 5.87858M13 7.9999L12.9996 8.9999C13.2648 8.9999 13.5196 8.89455 13.7071 8.70701C13.8946 8.51947 14 8.26512 14 7.9999H13Z" fill="white"/>
</svg>
