<svg width="53" height="50" viewBox="0 0 53 50" fill="none" xmlns="http://www.w3.org/2000/svg">
<g clip-path="url(#clip0_801_4980)">
<path d="M35.2287 14.7304C35.2135 14.7601 35.1913 14.7857 35.164 14.8052C35.1368 14.8246 35.1052 14.8373 35.072 14.8421C33.8225 14.9538 32.5638 14.9081 31.3258 14.7061C30.2877 13.6765 29.1663 12.5352 28.3387 11.5347C28.2997 11.4828 28.2787 11.4198 28.2787 11.355C28.2787 11.2903 28.2997 11.2273 28.3387 11.1753C29.5189 9.53861 30.5962 8.26127 31.0565 7.72703C32.2029 7.45226 33.3683 7.26234 34.5431 7.1588C34.5755 7.15861 34.6074 7.16598 34.6363 7.18032C34.6653 7.19467 34.6904 7.21558 34.7096 7.24136C35.5401 8.38737 36.277 9.5973 36.9133 10.8596C36.3942 12.2486 35.7674 13.6522 35.2385 14.745L35.2287 14.7304ZM33.7694 17.3968C33.2647 18.2573 32.7071 19.0861 32.0996 19.8786C31.4931 20.7564 30.7973 21.5701 30.0232 22.3069C29.9545 22.3724 29.8638 22.4105 29.7686 22.4138C28.72 22.4726 27.6681 22.4238 26.6296 22.2681C25.758 21.8979 24.9064 21.4829 24.0783 21.0247C24.0289 20.9979 23.9883 20.9575 23.9614 20.9084C23.9345 20.8593 23.9224 20.8036 23.9265 20.7479C23.9853 19.8591 24.2693 18.5915 24.519 17.2511C25.1409 16.1632 25.7873 14.9295 26.4778 13.9096C26.5121 13.8572 26.5626 13.817 26.6216 13.7952C26.6807 13.7733 26.7453 13.7709 26.8059 13.7882C28.8039 14.3322 30.5374 14.7596 31.2426 14.9004C32.0036 15.7745 32.85 16.5716 33.7694 17.2802C33.7893 17.294 33.8029 17.3148 33.8075 17.3384C33.8121 17.362 33.8072 17.3864 33.7939 17.4065L33.7694 17.3968ZM21.6984 19.3492C21.6499 19.3815 21.5928 19.3988 21.5343 19.3988C21.4759 19.3988 21.4188 19.3815 21.3703 19.3492C20.3982 18.6756 19.4707 17.9407 18.5937 17.1491C18.0875 16.2265 17.6915 15.2486 17.4135 14.2351C17.4066 14.2049 17.4065 14.1735 17.4133 14.1433C17.42 14.113 17.4335 14.0846 17.4527 14.0602C18.2274 13.1362 19.1064 12.3035 20.0726 11.5784C21.1744 12.0641 22.4378 12.4672 23.5396 12.8315C23.5947 12.8488 23.6433 12.8821 23.6791 12.9272C23.7149 12.9722 23.7363 13.0268 23.7404 13.084C23.8709 14.4714 24.0753 15.851 24.3525 17.2171C23.5545 18.0335 22.6639 18.7555 21.6984 19.3686V19.3492ZM16.8504 11.6367C16.7263 10.8645 16.6429 10.0863 16.6006 9.30547C16.5947 8.37281 16.7049 7.443 16.9287 6.53713C16.9614 6.39926 17.0347 6.27417 17.1393 6.17773C17.8239 5.53355 18.5519 4.93641 19.3184 4.39046C20.2588 3.92783 21.243 3.55853 22.2566 3.28797C22.3202 3.26959 22.3881 3.27302 22.4494 3.2977C22.5108 3.32238 22.5619 3.36688 22.5945 3.42398C22.6778 3.56968 22.761 3.71053 22.8541 3.85137C23.2797 4.49052 23.7373 5.10809 24.2252 5.70178C23.9219 7.01141 23.7432 8.34638 23.6914 9.68914C23.6882 9.74511 23.6689 9.79902 23.636 9.84458C23.6031 9.89015 23.5578 9.92551 23.5054 9.94656C21.7865 10.6119 20.4839 11.1364 20.0481 11.3356C19.0173 11.3945 17.9916 11.5211 16.9777 11.7144C16.9524 11.7187 16.9264 11.7129 16.9054 11.6984C16.8843 11.6838 16.8699 11.6617 16.8651 11.6367H16.8504ZM25.5376 2.71002C25.5618 2.67456 25.5929 2.64427 25.629 2.62092C25.6652 2.59756 25.7057 2.58163 25.7482 2.57405C27.0779 2.4018 28.4178 2.31904 29.7588 2.32635C30.8973 3.09856 31.9452 3.99452 32.8831 4.99755C32.9093 5.03268 32.9235 5.07525 32.9235 5.11897C32.9235 5.16269 32.9093 5.20526 32.8831 5.24039C32.3091 6.07802 31.653 6.85727 30.9243 7.56675C29.4552 7.92129 27.849 8.43125 26.566 8.84893C26.5051 8.86957 26.4391 8.86982 26.378 8.84964C26.317 8.82946 26.2643 8.78998 26.2281 8.73724C25.5564 7.75369 24.9432 6.73204 24.3917 5.67751C24.5929 4.6331 24.9704 3.62984 25.5082 2.71002H25.5376ZM37.3295 14.2593C37.3225 14.2624 37.3148 14.2638 37.3072 14.2635C37.2995 14.2631 37.292 14.2609 37.2853 14.2571C37.2786 14.2534 37.273 14.2481 37.2687 14.2417C37.2645 14.2353 37.2618 14.228 37.261 14.2205C37.1875 12.7635 37.0504 11.3696 36.9818 10.8596C36.9687 9.68133 36.8308 8.50765 36.5705 7.35791C36.5697 7.35007 36.5707 7.34217 36.5734 7.33476C36.5761 7.32735 36.5804 7.32062 36.586 7.31505C36.5916 7.30948 36.5984 7.3052 36.6059 7.30254C36.6134 7.29988 36.6214 7.29888 36.6293 7.29963C37.2109 7.36555 37.7588 7.60427 38.2012 7.98445C37.6304 6.71809 36.7663 5.6032 35.6792 4.73044C35.2491 3.76698 34.6336 2.89593 33.8674 2.16607C33.9346 2.59622 33.8959 3.03611 33.7547 3.44825C33.7485 3.46023 33.7382 3.46968 33.7257 3.47499C33.7132 3.48031 33.6992 3.48116 33.6862 3.47739C32.4468 2.88179 31.1274 2.46633 29.7686 2.2438C28.8454 1.82163 27.8847 1.48508 26.899 1.23845C26.8937 1.23618 26.8893 1.23243 26.8861 1.22769C26.883 1.22294 26.8813 1.21741 26.8813 1.21174C26.8813 1.20607 26.883 1.20051 26.8861 1.19576C26.8893 1.19102 26.8937 1.1873 26.899 1.18503C27.5338 0.645403 28.2764 0.24486 29.0781 0.00968338C27.452 -0.0612869 25.8286 0.199911 24.3085 0.777055C23.2199 0.670024 22.1212 0.732296 21.052 0.961613C21.3261 1.2868 21.5812 1.62732 21.8159 1.98151C21.8275 2.00246 21.831 2.02693 21.8255 2.05023C21.8201 2.07353 21.8062 2.09402 21.7865 2.10779C20.869 2.74402 20.0292 3.484 19.2842 4.31277C18.7213 4.38177 18.1623 4.47902 17.6094 4.60416C17.6042 4.6054 17.5987 4.60521 17.5936 4.60359C17.5885 4.60198 17.5839 4.59903 17.5804 4.59503C17.5769 4.59102 17.5745 4.58613 17.5736 4.58089C17.5727 4.57565 17.5732 4.57025 17.5751 4.5653C17.891 3.78171 18.311 3.04347 18.8239 2.37008C16.405 4.24015 14.7773 6.93864 14.2599 9.93683C14.6085 9.14931 15.0757 8.41895 15.6457 7.77075C15.6484 7.76675 15.652 7.76345 15.6563 7.76118C15.6606 7.7589 15.6654 7.75771 15.6702 7.75771C15.6751 7.75771 15.6798 7.7589 15.6841 7.76118C15.6884 7.76345 15.692 7.76675 15.6947 7.77075C15.9348 8.29805 16.2096 8.80909 16.5174 9.3006C15.9807 10.1766 15.5626 11.1188 15.2736 12.1029C15.2693 12.1172 15.2618 12.1304 15.2516 12.1413C15.2414 12.1523 15.2288 12.1607 15.2148 12.1661C14.7905 12.2824 14.4051 12.5087 14.0983 12.8217C14.2561 13.3226 14.5087 13.7891 14.8426 14.1962C14.8721 14.2333 14.8861 14.2803 14.8818 14.3273C14.8075 15.5043 15.0069 16.6823 15.4645 17.7707C15.6295 17.0347 15.9087 16.3286 16.2921 15.6775C16.3021 15.6683 16.3152 15.6631 16.3288 15.6631C16.3425 15.6631 16.3556 15.6683 16.3656 15.6775C17.052 16.2211 17.7681 16.727 18.5105 17.1928C18.9251 18.2039 19.4026 19.1885 19.9404 20.1408C19.9456 20.1454 19.9498 20.151 19.9526 20.1573C19.9555 20.1636 19.957 20.1704 19.957 20.1773C19.957 20.1841 19.9555 20.191 19.9526 20.1972C19.9498 20.2035 19.9456 20.2091 19.9404 20.2137C19.1413 20.5419 18.2626 20.6297 17.4135 20.4662C17.4135 20.4662 18.3929 21.661 21.3605 22.1709C22.1193 23.153 23.1716 23.8721 24.3672 24.2253C24.3672 24.2253 24.0244 23.8514 23.9412 22.4478C23.9405 22.441 23.9413 22.4342 23.9434 22.4277C23.9456 22.4212 23.9491 22.4153 23.9537 22.4102C23.9583 22.4052 23.9639 22.4012 23.9702 22.3984C23.9765 22.3957 23.9833 22.3943 23.9902 22.3944C24.7247 22.3944 25.7237 22.4235 26.6394 22.3555C27.1761 22.7942 27.7513 23.1843 28.3583 23.5211C28.3653 23.526 28.3711 23.5326 28.3751 23.5402C28.3791 23.5478 28.3812 23.5562 28.3812 23.5648C28.3812 23.5734 28.3791 23.5818 28.3751 23.5894C28.3711 23.597 28.3653 23.6036 28.3583 23.6085C27.7476 24.0093 27.0584 24.2775 26.3358 24.3953C27.9561 24.4259 29.5665 24.1382 31.0743 23.5489C32.582 22.9596 33.9573 22.0803 35.121 20.9616C34.2073 21.5336 33.1944 21.9322 32.1338 22.1369C32.1259 22.1377 32.1179 22.1367 32.1105 22.1341C32.103 22.1314 32.0962 22.1271 32.0906 22.1215C32.085 22.116 32.0807 22.1092 32.078 22.1018C32.0753 22.0944 32.0743 22.0865 32.0751 22.0787C32.2085 21.3729 32.2512 20.6533 32.2024 19.9368C33.3779 19.6431 34.4897 19.1395 35.4834 18.4507C35.4906 18.4439 35.5003 18.44 35.5103 18.44C35.5203 18.44 35.5299 18.4439 35.5372 18.4507C35.9193 18.7045 36.243 19.0355 36.4872 19.422C36.4872 19.422 37.0553 18.6255 37.2512 16.7703C38.0917 15.6886 38.6487 14.417 38.8721 13.0694C38.501 13.6182 37.9745 14.0457 37.3589 14.2982L37.3295 14.2593ZM26.4925 32.3458C25.3958 32.3375 24.3103 32.5645 23.3103 33.0113C22.3104 33.4581 21.4197 34.1142 20.6994 34.9344L21.1107 35.4201C21.7736 34.6445 22.5989 34.0213 23.5291 33.5939C24.4593 33.1665 25.4722 32.9451 26.4974 32.9451C27.5226 32.9451 28.5355 33.1665 29.4657 33.5939C30.396 34.0213 31.2212 34.6445 31.8841 35.4201L32.3003 34.9344C31.58 34.1142 30.6894 33.4581 29.6894 33.0113C28.6895 32.5645 27.6039 32.3375 26.5072 32.3458H26.4925ZM20.9638 32.6518C20.8284 32.7676 20.6528 32.8269 20.4741 32.8169C20.2734 32.8169 20.1509 32.7149 19.9502 32.4672L18.7945 31.0587L18.1726 31.5444L19.4311 33.0792C19.5407 33.227 19.6799 33.3508 19.84 33.4427C20.0001 33.5347 20.1777 33.5928 20.3615 33.6134H20.4888C20.8699 33.5991 21.2343 33.4544 21.52 33.2039C21.8057 32.9533 21.995 32.6123 22.0559 32.2389C22.0745 32.0568 22.0545 31.8729 21.9972 31.6989C21.9398 31.5249 21.8464 31.3647 21.7229 31.2287L20.4643 29.694L19.8424 30.1797L20.9981 31.5881C21.0786 31.6618 21.1415 31.7523 21.1822 31.8531C21.2229 31.954 21.2403 32.0626 21.2332 32.1709C21.2217 32.2593 21.1924 32.3443 21.147 32.4211C21.1015 32.4979 21.0409 32.5648 20.9687 32.6178L20.9638 32.6518ZM25.2291 28.1787L23.2115 28.5867C23.1694 28.5934 23.129 28.6085 23.0928 28.631C23.0566 28.6535 23.0254 28.6831 23.001 28.7178C22.9778 28.7534 22.962 28.7932 22.9544 28.8348C22.9469 28.8765 22.9477 28.9193 22.9569 28.9607L23.3584 30.9033C23.3784 31.0409 23.427 31.1728 23.5012 31.2908C23.5754 31.4087 23.6735 31.5099 23.7894 31.5881C23.9468 31.6788 24.1265 31.7243 24.3085 31.7193C24.4187 31.7192 24.5287 31.7078 24.6366 31.6853L25.8951 31.4327L25.7433 30.6896L24.519 30.9373C24.2693 30.9859 24.186 30.9373 24.1273 30.6799L24.0881 30.4711L25.5033 30.1845L25.3564 29.4512L23.9363 29.7377L23.8286 29.2083L25.3809 28.8975L25.2291 28.1787ZM29.1467 29.252L30.3562 29.5629L30.5472 28.8295L29.3034 28.5138C29.1707 28.4629 29.0285 28.4413 28.8866 28.4505C28.7446 28.4596 28.6064 28.4993 28.4815 28.5668C28.3566 28.6343 28.248 28.7279 28.1633 28.8412C28.0786 28.9545 28.0198 29.0848 27.991 29.2229L27.5013 31.1656C27.4872 31.2061 27.4821 31.2491 27.4863 31.2917C27.4906 31.3344 27.5042 31.3756 27.526 31.4125C27.5479 31.4494 27.5776 31.4812 27.6131 31.5057C27.6485 31.5301 27.6889 31.5467 27.7314 31.5541L28.1918 31.6756L28.5199 30.4177L29.9155 30.7771L30.1065 30.0534L28.706 29.694L28.7598 29.4852C28.8333 29.2132 28.9165 29.1889 29.1614 29.252H29.1467ZM35.4344 31.0248L35.8604 30.5051C35.6515 30.2914 35.4311 30.0874 35.1993 29.8931C32.7672 27.8453 29.6805 26.721 26.4901 26.721C23.2996 26.721 20.213 27.8453 17.7808 29.8931C17.5556 30.0874 17.3303 30.2914 17.1197 30.5051L17.5457 31.0248C17.7612 30.8111 17.9865 30.6022 18.2215 30.3982C20.5319 28.4568 23.4619 27.3913 26.4901 27.3913C29.5182 27.3913 32.4482 28.4568 34.7586 30.3982C34.9937 30.6022 35.2189 30.8111 35.4344 31.0248ZM32.1583 33.6231L32.2954 33.1374L31.7029 32.6955L32.1926 32.3555L32.4668 32.5595L32.7851 31.5056L30.9537 32.6809L30.2044 32.2584L33.0741 30.4177C33.1377 30.3643 33.2184 30.3349 33.3017 30.3349C33.3851 30.3349 33.4658 30.3643 33.5295 30.4177L33.6519 30.5148C33.7192 30.5608 33.7685 30.6284 33.7917 30.7062C33.8149 30.7839 33.8105 30.8672 33.7792 30.9422L32.8243 34.1962L32.1583 33.6231ZM18.6476 49.0286H16.5321V47.4162H17.7906L18.3097 47.8533V46.2069L17.7906 46.644H16.5321V45.2792H18.5741L19.1666 45.9106L19.0981 44.5167H14.7447L15.1462 45.0024V49.3346L14.7447 49.8203H19.2989L19.4115 48.2176L18.6476 49.0286ZM19.4458 38.3099L20.9491 42.1078H21.7865L23.1724 38.2661L23.4123 41.6124L22.8884 42.0981H25.1752L24.7345 41.6124L24.4113 37.2754L24.759 36.7897H22.8639L21.576 40.3448L20.1852 36.7897H18.2656L18.6525 37.2754L18.4272 41.6124L17.9375 42.0981H19.813L19.3233 41.6124L19.4458 38.3099ZM13.1434 49.0189H11.307V44.9879L11.7967 44.5022H9.52939L9.92605 44.9879V49.32L9.52939 49.8057V49.83H13.7849L13.9905 48.1593L13.1434 49.0189ZM9.0446 42.0884H11.2042L10.8026 41.6027V37.2656L11.2042 36.78H9.0446L9.43145 37.2656V38.8781H7.51184V37.2656L7.89869 36.78H5.73914L6.1407 37.2656V41.6027L5.73914 42.0884H7.89869L7.51184 41.6027V39.728H9.43145V41.6027L9.0446 42.0884ZM42.7701 49.0286H40.6546V47.4162H41.9131L42.4322 47.8533V46.2069L41.9131 46.644H40.6546V45.2792H42.6917L43.2842 45.9106L43.2157 44.5167H38.8868L39.2883 45.0024V49.3346L38.8868 49.8203H43.4263L43.5389 48.2176L42.7701 49.0286ZM23.334 47.7076L22.7267 45.5755L21.9579 47.7076H23.334ZM25.234 49.3395L25.6747 49.8251H23.378L23.8188 49.3395L23.5739 48.509H21.6788L21.3899 49.3395L21.8061 49.8251H20.0089L20.4301 49.3395L22.0852 45.0073L21.7718 44.5216H23.5886L25.234 49.3395ZM3.23679 41.3939C2.13498 41.3939 1.42981 40.2865 1.42981 39.3298C1.42981 38.1544 2.07622 37.3871 2.99685 37.3871C3.23131 37.3837 3.46517 37.4115 3.69221 37.4696L4.5198 38.4847L4.46104 36.8043C4.01338 36.6534 3.54303 36.5795 3.07028 36.5857C1.11149 36.5857 -0.019705 37.9116 -0.019705 39.4415C-0.0289244 39.8233 0.0413445 40.2029 0.186707 40.5566C0.332069 40.9103 0.549398 41.2304 0.825131 41.4971C1.10086 41.7637 1.42907 41.9711 1.78925 42.1062C2.14943 42.2414 2.53384 42.3015 2.91848 42.2827C3.54154 42.2748 4.14825 42.0838 4.6618 41.7338L4.74017 40.8548C4.30321 41.183 3.77479 41.3696 3.22699 41.389L3.23679 41.3939ZM34.0779 42.0787L33.6911 41.593V37.2559L34.0779 36.7703H31.9184L32.3199 37.2559V41.593L31.9184 42.0787H34.0779ZM29.3426 47.2948L29.8763 47.7805V48.781C29.7655 48.8961 29.6315 48.9867 29.483 49.0469C29.3345 49.1072 29.1748 49.1357 29.0145 49.1306C28.0645 49.1306 27.5454 47.9796 27.5454 47.018C27.5454 45.9641 28.0791 45.0753 29.181 45.0753C29.4809 45.0656 29.7803 45.105 30.0673 45.1918L30.9145 46.1L30.8606 44.643C30.3357 44.3926 29.7583 44.2694 29.1761 44.2836C27.374 44.2836 26.0959 45.3812 26.0959 47.1977C26.0959 48.7178 27.0753 49.9757 28.608 49.9757C29.2693 49.9959 29.9187 49.7977 30.4542 49.4123L31.1251 49.9757V47.7756L31.5511 47.2899H29.2887L29.3426 47.2948ZM27.942 39.524C28.1268 39.576 28.318 39.6021 28.5101 39.6017C28.6499 39.6221 28.7926 39.6108 28.9274 39.5686C29.0622 39.5264 29.1857 39.4545 29.2884 39.3582C29.3911 39.2619 29.4705 39.1437 29.5206 39.0126C29.5707 38.8815 29.5902 38.7409 29.5776 38.6012C29.5776 37.897 29.1614 37.557 28.3925 37.557H27.942V39.524ZM26.5709 41.6173V37.2802L26.1693 36.7946H28.7108C30.2534 36.7946 30.9586 37.4939 30.9586 38.5527C30.9586 39.6115 30.1163 40.3302 28.9998 40.3302C28.653 40.3376 28.3064 40.3066 27.9665 40.238V41.627L28.5248 42.1127H26.1546L26.5709 41.6173ZM39.3765 39.8446C39.3765 38.9218 39.0337 37.4502 37.8437 37.4502C36.8986 37.4502 36.6244 38.3924 36.6244 39.0286C36.6244 39.9611 37.0161 41.457 38.1571 41.457C38.9798 41.457 39.3765 40.6848 39.3765 39.8348V39.8446ZM37.9563 42.2972C37.58 42.2924 37.2084 42.2125 36.8639 42.0621C36.5194 41.9118 36.209 41.6941 35.9512 41.4221C35.6934 41.1501 35.4935 40.8294 35.3635 40.479C35.2335 40.1287 35.176 39.756 35.1945 39.3832C35.1878 39.0163 35.2558 38.652 35.3946 38.3119C35.5334 37.9718 35.74 37.663 36.002 37.404C36.264 37.145 36.5761 36.9412 36.9195 36.8048C37.2629 36.6683 37.6306 36.6021 38.0004 36.61C38.7417 36.6455 39.4405 36.964 39.9504 37.4988C40.4604 38.0337 40.7419 38.7434 40.7362 39.4795C40.7305 40.2155 40.438 40.9209 39.9199 41.4479C39.4017 41.9749 38.6981 42.2827 37.9563 42.3069V42.2972ZM36.164 44.507L36.6048 44.9927V48.0233C36.6048 48.8975 36.1738 49.1161 35.4687 49.1161C34.7635 49.1161 34.3277 48.9121 34.3277 48.0233V44.9879L34.7684 44.5022H32.5207L32.9222 44.9879V48.0184C32.9222 49.4755 33.6666 50 35.2581 50C36.7272 50 37.4421 49.5143 37.4421 48.0573V44.9879L37.8339 44.5022H36.1298L36.164 44.507ZM46.3938 45.1627C46.39 45.0349 46.3482 44.911 46.2738 44.8066C46.1994 44.7021 46.0957 44.6218 45.9755 44.5755C45.8553 44.5292 45.724 44.519 45.598 44.5463C45.472 44.5735 45.357 44.637 45.2671 44.7287C45.1773 44.8205 45.1167 44.9364 45.093 45.0621C45.0692 45.1878 45.0833 45.3176 45.1335 45.4354C45.1837 45.5532 45.2677 45.6537 45.3752 45.7244C45.4826 45.7951 45.6087 45.8329 45.7376 45.8329C45.8257 45.8336 45.913 45.8167 45.9942 45.783C46.0754 45.7493 46.1489 45.6996 46.2103 45.637C46.2716 45.5743 46.3195 45.5 46.351 45.4185C46.3826 45.337 46.3971 45.2499 46.3938 45.1627ZM46.5554 45.1627C46.5583 45.3249 46.5125 45.4842 46.4236 45.6204C46.3348 45.7566 46.2071 45.8634 46.0567 45.9273C45.9064 45.9911 45.7403 46.0091 45.5796 45.9789C45.4189 45.9487 45.271 45.8717 45.1546 45.7577C45.0383 45.6437 44.9589 45.4979 44.9265 45.3389C44.8941 45.1799 44.9102 45.0149 44.9728 44.8651C45.0353 44.7152 45.1415 44.5873 45.2778 44.4975C45.414 44.4078 45.5741 44.3604 45.7376 44.3613C45.8445 44.36 45.9507 44.3798 46.0498 44.4195C46.149 44.4592 46.2392 44.518 46.3153 44.5926C46.3914 44.6671 46.4518 44.7559 46.493 44.8537C46.5342 44.9516 46.5554 45.0566 46.5554 45.1627ZM45.7376 45.1044C45.8551 45.1044 45.9629 45.1044 45.9629 44.9587C45.9629 44.813 45.8601 44.8227 45.7572 44.8227H45.5662V45.1044H45.7376ZM45.8698 45.221L46.1294 45.6241H45.9727L45.7278 45.2258H45.5662V45.6241H45.4242V44.7013H45.7425C45.9629 44.7013 46.0706 44.7838 46.0706 44.9635C46.0719 44.9961 46.0667 45.0286 46.0554 45.0591C46.044 45.0897 46.0268 45.1177 46.0045 45.1416C45.9822 45.1655 45.9553 45.1848 45.9255 45.1984C45.8957 45.2121 45.8635 45.2197 45.8307 45.221H45.8698ZM45.4781 36.814L45.9678 37.2996V40.1214L43.7935 36.8043H41.8347L42.2363 37.2899V41.627L41.8347 42.1127H43.6221L43.0981 41.627V38.0962L45.816 42.1224H46.8345V37.2656L47.2312 36.78H45.4536L45.4781 36.814ZM50.9382 38.8441C49.9588 38.577 49.6699 38.4604 49.6699 38.0136C49.6699 37.5668 50.3359 37.4016 50.7619 37.4016C51.0932 37.3958 51.4234 37.44 51.7413 37.5328L52.5542 38.407L52.4857 36.9063C51.9592 36.7057 51.3993 36.6052 50.8354 36.61C49.5573 36.61 48.3281 37.0471 48.3281 38.3099C48.3281 39.1209 48.8962 39.6115 50.1204 39.9466C51.0704 40.204 51.5356 40.374 51.5356 40.8548C51.5356 41.3356 50.8256 41.525 50.3506 41.525C49.9924 41.5269 49.636 41.4762 49.2928 41.3745L48.4701 40.3642L48.5289 41.9621C49.1215 42.2048 49.7586 42.3223 50.3995 42.3069C51.7707 42.3069 52.9215 41.7338 52.9215 40.5828C52.9215 39.4318 52.1673 39.1889 50.9333 38.8441H50.9382ZM13.7555 39.9951H15.1364L14.4998 37.8776L13.7555 39.9951ZM13.6037 42.1224H11.8065L12.2325 41.6367L13.8828 37.2996L13.5694 36.814H15.3911L17.0316 41.6707L17.4723 42.1564H15.1805L15.6212 41.6707L15.3715 40.8353H13.4764L13.1874 41.6707L13.6037 42.1564V42.1224Z" fill="white"/>
</g>
<defs>
<clipPath id="clip0_801_4980">
<rect width="52.9412" height="50" fill="white"/>
</clipPath>
</defs>
</svg>
