<svg width="76" height="40" viewBox="0 0 76 40" fill="none" xmlns="http://www.w3.org/2000/svg">
<g clip-path="url(#clip0_801_4957)">
<path d="M51.4912 20.8628V20.8033H51.097C51.0869 20.8796 51.0939 20.9572 51.1175 21.0306C51.141 21.1039 51.1805 21.171 51.2332 21.2272C51.2858 21.2834 51.3503 21.3273 51.4219 21.3556C51.4935 21.3838 51.5705 21.3959 51.6474 21.3908C51.7311 21.3976 51.8153 21.386 51.8942 21.357C51.9731 21.328 52.0447 21.2822 52.1041 21.2228C52.1635 21.1634 52.2093 21.0918 52.2383 21.0129C52.2674 20.934 52.2789 20.8498 52.2722 20.7661C52.2854 20.6577 52.2598 20.5482 52.1999 20.4569C52.14 20.3657 52.0496 20.2986 51.9449 20.2677C52.0342 20.2235 52.1074 20.1523 52.1541 20.0642C52.2008 19.9761 52.2187 19.8756 52.2052 19.7769C52.2131 19.7039 52.2048 19.6302 52.1809 19.5608C52.157 19.4915 52.1181 19.4282 52.0669 19.3757C52.0158 19.3231 51.9537 19.2825 51.885 19.2567C51.8163 19.2309 51.7428 19.2206 51.6697 19.2265C51.2904 19.2265 51.1714 19.5091 51.1788 19.8438H51.5432V19.8066C51.5432 19.7099 51.5432 19.5835 51.6846 19.5835C51.8259 19.5835 51.8259 19.7099 51.8259 19.7992C51.8259 20.0297 51.7366 20.0744 51.5061 20.0744V20.4388C51.7441 20.4388 51.8259 20.4983 51.8259 20.7363C51.8259 20.8553 51.8259 21.0338 51.6399 21.0338C51.6188 21.0339 51.5979 21.0296 51.5784 21.0213C51.559 21.013 51.5414 21.0008 51.5268 20.9855C51.5122 20.9702 51.5008 20.9521 51.4934 20.9323C51.486 20.9124 51.4828 20.8913 51.4838 20.8702" fill="white"/>
<path d="M50.8293 19.2191H49.6913V19.5835H50.2566L49.6021 21.3239H50.0334L50.8293 19.2191Z" fill="white"/>
<path d="M48.8212 20.1934C48.9104 20.1598 48.9862 20.0981 49.0372 20.0176C49.0882 19.937 49.1116 19.8421 49.1039 19.7471C49.109 19.676 49.0993 19.6047 49.0754 19.5375C49.0515 19.4704 49.0138 19.409 48.9648 19.3572C48.9158 19.3054 48.8567 19.2644 48.7909 19.2368C48.7252 19.2092 48.6545 19.1955 48.5832 19.1967C48.5116 19.1956 48.4406 19.2092 48.3745 19.2368C48.3085 19.2643 48.2488 19.3052 48.1992 19.3569C48.1497 19.4085 48.1113 19.4698 48.0865 19.537C48.0617 19.6041 48.051 19.6757 48.0551 19.7471C48.0486 19.8419 48.0725 19.9363 48.1233 20.0166C48.1742 20.0968 48.2493 20.1588 48.3378 20.1934C48.2222 20.2303 48.1229 20.306 48.0565 20.4076C47.9901 20.5092 47.9607 20.6305 47.9733 20.7512C47.9713 20.8319 47.9856 20.9121 48.0156 20.987C48.0455 21.0619 48.0904 21.13 48.1474 21.187C48.2045 21.2441 48.2725 21.2889 48.3474 21.3188C48.4223 21.3488 48.5026 21.3631 48.5832 21.3611C48.6632 21.3621 48.7427 21.347 48.8167 21.3166C48.8908 21.2862 48.9579 21.2412 49.0142 21.1843C49.0704 21.1273 49.1146 21.0597 49.144 20.9852C49.1735 20.9108 49.1877 20.8312 49.1857 20.7512C49.1997 20.6303 49.1709 20.5083 49.1044 20.4064C49.0378 20.3045 48.9376 20.2291 48.8212 20.1934ZM48.5758 19.5166C48.6873 19.5166 48.7022 19.6579 48.7022 19.7397C48.7022 19.8215 48.7022 19.9777 48.5758 19.9777C48.4493 19.9777 48.4568 19.8141 48.4568 19.7397C48.4568 19.6653 48.4568 19.5166 48.5758 19.5166ZM48.5758 21.0041C48.4344 21.0041 48.4047 20.8107 48.4047 20.7066C48.4047 20.6025 48.4047 20.4016 48.5758 20.4016C48.7468 20.4016 48.7617 20.6025 48.7617 20.7066C48.7617 20.8107 48.7171 21.0041 48.5758 21.0041Z" fill="white"/>
<path d="M47.4006 19.2191H46.7981V19.5835H46.9989V21.3239H47.4006V19.2191Z" fill="white"/>
<path d="M23.8824 19.2191H22.9675V21.3239H23.8898V20.9297H23.4138V20.4537H23.8229V20.067H23.4138V19.6058H23.8824V19.2191Z" fill="white"/>
<path d="M27.9509 20.8628C27.8798 20.8628 27.8117 20.891 27.7615 20.9412C27.7113 20.9914 27.6831 21.0595 27.6831 21.1306C27.6831 21.2016 27.7113 21.2697 27.7615 21.3199C27.8117 21.3701 27.8798 21.3983 27.9509 21.3983C28.0206 21.3964 28.0868 21.3673 28.1354 21.3173C28.184 21.2673 28.2112 21.2003 28.2112 21.1306C28.2121 21.0957 28.2062 21.0611 28.1935 21.0286C28.1809 20.9962 28.1619 20.9666 28.1376 20.9416C28.1133 20.9167 28.0843 20.8968 28.0522 20.8833C28.0201 20.8698 27.9857 20.8628 27.9509 20.8628Z" fill="white"/>
<path d="M27.3783 19.2191H26.2031V19.6058H26.5601V21.3239H27.0213V19.6058H27.3783V19.2191Z" fill="white"/>
<path d="M25.5633 19.6951V19.286C25.4359 19.2235 25.2961 19.1904 25.1542 19.1893C25.0729 19.186 24.9919 19.1998 24.9163 19.2299C24.8407 19.26 24.7723 19.3056 24.7155 19.3638C24.6587 19.422 24.6147 19.4915 24.5865 19.5678C24.5583 19.6441 24.5465 19.7255 24.5518 19.8067C24.5552 19.9404 24.597 20.0704 24.6722 20.1812C24.7473 20.2919 24.8527 20.3788 24.9757 20.4314C25.1022 20.5207 25.2509 20.5727 25.2509 20.7364C25.2491 20.7693 25.2406 20.8015 25.226 20.8311C25.2114 20.8607 25.191 20.887 25.166 20.9085C25.141 20.9301 25.112 20.9463 25.0805 20.9564C25.0491 20.9664 25.016 20.97 24.9832 20.9669C24.8604 20.9655 24.741 20.9265 24.641 20.8554V21.2496C24.7603 21.3208 24.8963 21.3593 25.0352 21.3611C25.1236 21.3666 25.212 21.3532 25.2948 21.3218C25.3776 21.2905 25.4528 21.2419 25.5153 21.1793C25.5779 21.1167 25.6265 21.0416 25.6579 20.9588C25.6892 20.876 25.7026 20.7875 25.6972 20.6992C25.6972 20.1339 24.998 20.1116 24.998 19.7695C24.9978 19.7401 25.0039 19.7111 25.0157 19.6843C25.0275 19.6574 25.0449 19.6334 25.0667 19.6137C25.0885 19.5941 25.1141 19.5792 25.142 19.5702C25.1699 19.5611 25.1995 19.5581 25.2286 19.5612C25.3519 19.5676 25.4696 19.6146 25.5633 19.6951Z" fill="white"/>
<path d="M34.0945 8.11454C32.0343 8.11454 28.308 8.25587 26.6568 8.31537C26.1288 8.31537 25.8164 8.35255 25.8164 8.35255C25.7311 8.35879 25.6489 8.38756 25.5784 8.4359C25.5078 8.48425 25.4514 8.55045 25.4148 8.62775C25.4148 8.717 25.3478 8.80625 25.3478 8.80625C25.3478 8.80625 25.3478 8.8955 25.2957 8.99219C25.2801 9.07553 25.2871 9.16154 25.3158 9.2413C25.3446 9.32106 25.3942 9.39169 25.4594 9.44589C25.4594 9.44589 25.6973 9.65415 26.1139 9.97397C27.4303 11.0004 30.3682 13.2838 32.0268 14.511C31.4095 16.482 30.3757 20.0595 29.9146 21.6586C29.7658 22.1644 29.6914 22.4693 29.6914 22.4693C29.6718 22.5524 29.6737 22.639 29.6972 22.7211C29.7206 22.8031 29.7647 22.8778 29.8253 22.9379C29.8744 22.9813 29.9266 23.0211 29.9815 23.0569L30.1377 23.161C30.2107 23.205 30.2942 23.2282 30.3794 23.2282C30.4646 23.2282 30.5482 23.205 30.6212 23.161C30.6212 23.161 30.8889 22.9974 31.3649 22.6999C32.7409 21.7702 35.8275 19.6802 37.5084 18.4827C39.1894 19.6802 42.2686 21.7702 43.652 22.6999C44.0834 22.9974 44.3511 23.161 44.3511 23.161C44.4241 23.205 44.5077 23.2282 44.5929 23.2282C44.678 23.2282 44.7616 23.205 44.8346 23.161L44.9982 23.0569L45.147 22.9379C45.2088 22.8786 45.2537 22.804 45.2773 22.7217C45.3008 22.6394 45.302 22.5523 45.2808 22.4693C45.2808 22.4693 45.2065 22.1644 45.0577 21.6586C44.604 20.0595 43.5702 16.4522 42.9454 14.511C44.604 13.2838 47.5419 11.0004 48.8956 9.97397C49.3121 9.65415 49.5501 9.44589 49.5501 9.44589C49.6153 9.39169 49.6649 9.32106 49.6936 9.2413C49.7224 9.16154 49.7293 9.07553 49.7137 8.99219C49.7137 8.8955 49.6617 8.80625 49.6617 8.80625C49.6617 8.80625 49.6616 8.717 49.5947 8.62775C49.5581 8.55045 49.5016 8.48425 49.4311 8.4359C49.3605 8.38756 49.2784 8.35879 49.1931 8.35255C49.1931 8.35255 48.8807 8.35256 48.3526 8.31537C46.694 8.25587 42.9677 8.13686 40.9149 8.11454C40.253 6.15843 38.9886 2.65526 38.4233 1.09335C38.2448 0.595019 38.1258 0.30495 38.1258 0.30495C38.0922 0.226361 38.039 0.157716 37.9713 0.105616C37.9036 0.0535153 37.8236 0.0197153 37.739 0.00744629H37.3597C37.2751 0.0197153 37.1952 0.0535153 37.1274 0.105616C37.0597 0.157716 37.0065 0.226361 36.9729 0.30495C36.9729 0.30495 36.8539 0.595019 36.6754 1.09335C36.1101 2.65526 34.8458 6.15843 34.1838 8.11454" fill="white"/>
<path d="M33.0383 14.1688L30.3831 22.3503L30.4277 22.3875H30.4723L37.4191 17.3373L44.3585 22.3875H44.3957H44.4403L44.4849 22.3503L41.8297 14.1688L48.7765 9.12608V9.08889V9.03683V8.98476H40.1934L37.5456 0.803284H37.4414L34.7936 8.98476H26.1436V9.03683V9.08889C26.1436 9.08889 26.1436 9.08889 26.1436 9.12608L33.0383 14.1688Z" fill="#E30613"/>
<path d="M73.7077 26.4634C73.3606 26.4634 73.0212 26.5663 72.7325 26.7592C72.4439 26.9521 72.2189 27.2262 72.086 27.547C71.9532 27.8677 71.9184 28.2206 71.9861 28.5611C72.0538 28.9016 72.221 29.2144 72.4665 29.4599C72.712 29.7053 73.0248 29.8725 73.3652 29.9402C73.7057 30.008 74.0587 29.9732 74.3794 29.8404C74.7002 29.7075 74.9743 29.4825 75.1672 29.1939C75.36 28.9052 75.463 28.5658 75.463 28.2187C75.463 27.7531 75.2781 27.3067 74.9489 26.9775C74.6197 26.6483 74.1733 26.4634 73.7077 26.4634ZM73.7077 29.6244C73.4294 29.6259 73.1569 29.5447 72.9247 29.3911C72.6926 29.2376 72.5112 29.0185 72.4037 28.7618C72.2961 28.5051 72.2672 28.2222 72.3206 27.949C72.374 27.6759 72.5073 27.4247 72.7036 27.2273C72.8999 27.03 73.1504 26.8954 73.4233 26.8405C73.6962 26.7857 73.9792 26.8131 74.2365 26.9193C74.4938 27.0254 74.7137 27.2056 74.8685 27.4369C75.0233 27.6683 75.106 27.9403 75.106 28.2187C75.106 28.5902 74.9589 28.9467 74.6969 29.2101C74.4349 29.4735 74.0792 29.6224 73.7077 29.6244Z" fill="white"/>
<path d="M74.1763 28.2187C74.2658 28.1749 74.3403 28.1056 74.3906 28.0196C74.4409 27.9336 74.4646 27.8347 74.4589 27.7352C74.457 27.6626 74.4406 27.5911 74.4106 27.5249C74.3805 27.4588 74.3376 27.3993 74.2842 27.3501C74.2308 27.3008 74.168 27.2628 74.0997 27.2383C74.0313 27.2137 73.9587 27.2031 73.8862 27.2071H72.9788V29.1037H73.4102V28.36H73.5738C73.7969 28.36 73.9234 28.4195 73.9829 28.6203C74.0243 28.7847 74.0765 28.9462 74.139 29.1037H74.6076C74.5263 28.9602 74.4685 28.8045 74.4366 28.6426C74.4307 28.5562 74.404 28.4724 74.3586 28.3986C74.3133 28.3247 74.2507 28.263 74.1763 28.2187ZM73.7672 27.9881H73.4176V27.5567H73.7225C73.8564 27.5567 74.0126 27.6088 74.0126 27.7575C74.0127 27.7891 74.0063 27.8203 73.9938 27.8493C73.9813 27.8783 73.9629 27.9044 73.9399 27.926C73.9169 27.9477 73.8897 27.9643 73.86 27.975C73.8303 27.9857 73.7987 27.9901 73.7672 27.9881Z" fill="white"/>
<path d="M19.3454 36.8836C18.8503 37.4111 18.2427 37.8204 17.5678 38.0811C16.9654 38.2745 15.2547 38.4232 14.7489 37.0101C14.6448 36.7051 14.7489 36.6084 15.0093 36.5266C15.4183 36.4076 16.4968 36.0878 17.605 35.6713C18.3782 35.3941 19.125 35.0481 19.8364 34.6374C20.0591 34.511 20.2225 34.3014 20.2908 34.0545C20.3591 33.8077 20.3268 33.5439 20.2008 33.3209C19.8335 32.3349 19.1252 31.5131 18.2043 31.0042C17.2833 30.4953 16.2106 30.333 15.1803 30.5467C14.1385 30.7589 13.2029 31.3269 12.5339 32.1533C11.8649 32.9797 11.5042 34.0131 11.5136 35.0762C11.4536 36.191 11.7961 37.2901 12.4787 38.1734C13.1613 39.0567 14.1386 39.6654 15.2324 39.8884C16.2005 40.0958 17.2083 40.0115 18.1284 39.6461C19.0485 39.2807 19.8395 38.6506 20.4016 37.8356C20.7884 37.2332 19.7025 36.5117 19.3529 36.8836H19.3454ZM14.5109 34.7416C14.3027 34.1614 14.4738 32.3912 15.4481 32.0565C16.4224 31.7218 17.0993 32.235 17.4042 33.2689C17.4689 33.4166 17.5024 33.5762 17.5024 33.7375C17.5024 33.8988 17.4689 34.0583 17.4042 34.206C17.1847 34.4262 16.9097 34.583 16.6084 34.6597L15.8646 34.9126C15.1208 35.1655 14.749 35.2176 14.5705 34.7416" fill="white"/>
<path d="M44.3585 36.8836C43.8634 37.4111 43.2558 37.8204 42.5809 38.0811C41.9784 38.2745 40.2678 38.4232 39.7695 37.0101C39.6579 36.7051 39.7694 36.6084 40.0223 36.5266C40.4314 36.4076 41.5098 36.0878 42.6181 35.6713C43.3902 35.3916 44.1368 35.0457 44.8494 34.6374C45.0708 34.5097 45.2327 34.2996 45.2996 34.0529C45.3665 33.8062 45.333 33.543 45.2064 33.3209C44.8391 32.3349 44.1308 31.5131 43.2099 31.0042C42.2889 30.4953 41.2162 30.333 40.186 30.5467C39.1441 30.7589 38.2085 31.3269 37.5395 32.1533C36.8706 32.9797 36.5099 34.0131 36.5192 35.0762C36.4592 36.191 36.8017 37.2901 37.4843 38.1734C38.167 39.0567 39.1442 39.6654 40.238 39.8884C41.2061 40.0958 42.2139 40.0115 43.134 39.6461C44.0541 39.2807 44.8452 38.6506 45.4072 37.8356C45.794 37.2332 44.7081 36.5117 44.3585 36.8836ZM39.524 34.7416C39.3858 34.1578 39.4273 33.546 39.643 32.9863C39.7037 32.7823 39.8076 32.5938 39.9474 32.4334C40.0873 32.273 40.2599 32.1445 40.4537 32.0565C40.6408 31.9717 40.845 31.9316 41.0503 31.9394C41.2555 31.9471 41.4562 32.0025 41.6363 32.1012C42.0204 32.3848 42.2854 32.8009 42.3801 33.2689C42.4431 33.4171 42.4756 33.5764 42.4756 33.7375C42.4756 33.8985 42.4431 34.0579 42.3801 34.206C42.1576 34.4262 41.8802 34.5828 41.5768 34.6597C41.2495 34.7787 40.952 34.868 40.833 34.9126C40.0893 35.1506 39.7248 35.2176 39.5463 34.7416" fill="white"/>
<path d="M63.4435 36.8836C62.9484 37.4111 62.3409 37.8204 61.666 38.0811C61.0635 38.2744 59.3528 38.4232 58.847 37.01C58.7429 36.7051 58.8471 36.6084 59.1074 36.5266C59.5165 36.4076 60.5949 36.0878 61.7031 35.6712C62.4763 35.394 63.2231 35.048 63.9345 34.6374C64.1572 34.511 64.3206 34.3013 64.3889 34.0545C64.4572 33.8077 64.4249 33.5439 64.2989 33.3209C63.9334 32.3231 63.2193 31.491 62.2883 30.9784C61.3574 30.4658 60.2725 30.3072 59.2338 30.5318C58.192 30.7441 57.2564 31.312 56.5874 32.1384C55.9185 32.9648 55.5577 33.9982 55.567 35.0614C55.5071 36.1761 55.8496 37.2752 56.5322 38.1585C57.2148 39.0418 58.1921 39.6505 59.2859 39.8736C60.2595 40.0888 61.2752 40.0085 62.2028 39.6427C63.1304 39.277 63.9276 38.6426 64.4923 37.8207C64.879 37.2183 63.7931 36.4968 63.4435 36.8687V36.8836ZM58.6016 34.7267C58.4726 34.1417 58.5165 33.5318 58.7281 32.9714C58.7888 32.7674 58.8926 32.5789 59.0325 32.4185C59.1723 32.2581 59.345 32.1296 59.5387 32.0416C59.7258 31.9568 59.9301 31.9167 60.1353 31.9245C60.3406 31.9322 60.5412 31.9876 60.7214 32.0863C61.1059 32.3694 61.3711 32.7858 61.4651 33.254C61.5298 33.4017 61.5633 33.5613 61.5633 33.7226C61.5633 33.8839 61.5298 34.0434 61.4651 34.1911C61.2467 34.4128 60.9713 34.5698 60.6693 34.6448C60.342 34.7638 60.0445 34.8531 59.9255 34.8977C59.1817 35.1357 58.8099 35.2027 58.6314 34.7267" fill="white"/>
<path d="M7.16993 37.3968C7.19005 37.5672 7.16409 37.7399 7.09476 37.8969C7.02542 38.0539 6.91523 38.1894 6.77571 38.2893L6.16586 38.5645C6.11924 38.5871 6.08064 38.6235 6.05537 38.6687C6.03009 38.7139 6.01935 38.7658 6.02454 38.8174C6.02156 38.8471 6.02156 38.877 6.02454 38.9066L6.09146 39.5983C6.09146 39.7843 6.25508 39.8215 6.50052 39.8215H10.9185C11.164 39.8215 11.2904 39.7843 11.3276 39.5983L11.3945 38.9066C11.3979 38.877 11.3979 38.847 11.3945 38.8174C11.4015 38.7665 11.3923 38.7148 11.3683 38.6694C11.3442 38.6241 11.3066 38.5874 11.2607 38.5645L10.6508 38.2893C10.5099 38.1903 10.3983 38.0552 10.3276 37.8981C10.2569 37.7411 10.2298 37.5679 10.2492 37.3968V29.788C10.2296 29.6179 10.2566 29.4457 10.3274 29.2898C10.3981 29.1339 10.5099 29.0002 10.6508 28.9029L11.2607 28.6277C11.3066 28.6049 11.3442 28.5682 11.3683 28.5228C11.3923 28.4774 11.4015 28.4257 11.3945 28.3748C11.3979 28.3452 11.3979 28.3152 11.3945 28.2856L11.3276 27.7649C11.2904 27.579 11.164 27.5418 10.9185 27.5418H6.72369C6.47081 27.5418 6.34433 27.5418 6.31458 27.7649L6.24022 28.2856C6.23684 28.3152 6.23684 28.3452 6.24022 28.3748C6.23267 28.4267 6.24241 28.4795 6.26796 28.5252C6.29351 28.571 6.33344 28.607 6.38154 28.6277L6.87985 28.9029C7.16248 29.0591 7.17738 29.4236 7.17738 29.788V31.9226C7.17738 31.9936 7.14915 32.0617 7.09893 32.112C7.04872 32.1622 6.98064 32.1904 6.90963 32.1904H4.52211C4.4511 32.1904 4.38298 32.1622 4.33276 32.112C4.28255 32.0617 4.25436 31.9936 4.25436 31.9226V29.788C4.25436 29.4236 4.25434 29.0442 4.55184 28.9029L5.0502 28.6277C5.0983 28.607 5.13819 28.571 5.16374 28.5252C5.18929 28.4795 5.19907 28.4267 5.19152 28.3748C5.1949 28.3452 5.1949 28.3152 5.19152 28.2856L5.11712 27.7649C5.11712 27.579 4.96093 27.5418 4.70805 27.5418H0.475994C0.223112 27.5418 0.0966796 27.5418 0.0669287 27.7649L-0.00747561 28.2856C-0.0108545 28.3152 -0.0108545 28.3452 -0.00747561 28.3748C-0.0150261 28.4267 -0.00524234 28.4795 0.0203069 28.5252C0.0458561 28.571 0.0857457 28.607 0.133843 28.6277L0.736295 28.9029C0.877164 29.0002 0.988955 29.1339 1.0597 29.2898C1.13044 29.4457 1.1575 29.6179 1.13796 29.788V37.434C1.15727 37.6051 1.13018 37.7782 1.05952 37.9353C0.988848 38.0923 0.877177 38.2275 0.736295 38.3265L0.133843 38.6017C0.0857457 38.6224 0.0458561 38.6584 0.0203069 38.7042C-0.00524234 38.7499 -0.0150261 38.8027 -0.00747561 38.8546C-0.0108545 38.8842 -0.0108545 38.9142 -0.00747561 38.9438L0.0669287 39.6355C0.0669287 39.8215 0.223112 39.8587 0.475994 39.8587H4.93862C5.18406 39.8587 5.31793 39.8215 5.34768 39.6355L5.42209 38.9438C5.42209 38.9438 5.42209 38.8843 5.42209 38.8546C5.42964 38.8027 5.41986 38.7499 5.39431 38.7042C5.36876 38.6584 5.32887 38.6224 5.28077 38.6017L4.67087 38.3265C4.53135 38.2266 4.42116 38.0911 4.35183 37.9341C4.2825 37.7771 4.25654 37.6044 4.27665 37.434V34.325C4.27665 34.2898 4.28358 34.255 4.29704 34.2225C4.31049 34.1901 4.33023 34.1605 4.3551 34.1357C4.37996 34.1108 4.40945 34.0911 4.44194 34.0776C4.47443 34.0642 4.50924 34.0573 4.5444 34.0573H6.93192C6.96708 34.0573 7.00189 34.0642 7.03438 34.0776C7.06687 34.0911 7.0964 34.1108 7.12127 34.1357C7.14613 34.1605 7.16583 34.1901 7.17928 34.2225C7.19274 34.255 7.19967 34.2898 7.19967 34.325L7.16993 37.3968Z" fill="white"/>
<path d="M24.5668 28.7988C24.5771 29.1156 24.4926 29.4283 24.3242 29.6968C24.1557 29.9653 23.9109 30.1774 23.6211 30.3059C23.3313 30.4344 23.0098 30.4734 22.6977 30.418C22.3856 30.3626 22.0972 30.2153 21.8693 29.9949C21.6415 29.7745 21.4847 29.4911 21.4189 29.181C21.3531 28.8709 21.3815 28.5483 21.5003 28.2544C21.619 27.9605 21.8229 27.7088 22.0856 27.5315C22.3484 27.3542 22.6581 27.2594 22.9751 27.2592C23.1808 27.2553 23.3853 27.292 23.5768 27.3673C23.7683 27.4427 23.943 27.5551 24.0909 27.6982C24.2388 27.8412 24.357 28.0121 24.4387 28.201C24.5203 28.3899 24.5639 28.593 24.5668 28.7988Z" fill="white"/>
<path d="M21.2348 39.8215C20.9967 39.8215 20.8703 39.8215 20.8406 39.6058L20.7736 38.9215C20.7705 38.8919 20.7705 38.862 20.7736 38.8323C20.7664 38.7834 20.7757 38.7335 20.7999 38.6904C20.8241 38.6473 20.862 38.6135 20.9075 38.5943L21.3761 38.3265C21.5106 38.2311 21.6174 38.1016 21.6854 37.9513C21.7533 37.8009 21.7801 37.6353 21.7628 37.4712V33.1053C21.7628 32.7408 21.6959 32.2722 21.3761 32.116L21.0711 31.9375C21.0228 31.9193 20.9823 31.8849 20.9566 31.8401C20.9308 31.7953 20.9213 31.743 20.9298 31.6921C20.9298 31.6549 20.9298 31.64 20.9298 31.5954L21.0042 31.0822C21.0042 30.8888 21.1678 30.8591 21.4133 30.8591H24.3884C24.4594 30.8591 24.5275 30.8873 24.5777 30.9375C24.6279 30.9877 24.6561 31.0558 24.6561 31.1268V37.4712C24.6396 37.6344 24.6659 37.7991 24.7324 37.9491C24.7989 38.0991 24.9034 38.2292 25.0355 38.3265L25.5114 38.5943C25.5562 38.6145 25.5933 38.6485 25.6174 38.6913C25.6415 38.7342 25.6513 38.7835 25.6453 38.8323C25.6485 38.862 25.6485 38.8919 25.6453 38.9215L25.5784 39.6058C25.5784 39.7918 25.4222 39.8215 25.1842 39.8215H21.2348Z" fill="white"/>
<path d="M30.2267 31.3277L30.6953 31.0971C31.5219 30.6251 32.4874 30.4567 33.425 30.6211C34.2654 30.8888 34.9869 31.4987 34.9869 33.0904V37.9249C34.9869 38.1257 34.9869 38.215 35.091 38.267C35.1951 38.3191 35.4406 38.1257 35.6563 38.0142C35.872 37.9026 35.991 38.0142 36.1248 38.1778C36.2026 38.2435 36.2579 38.3319 36.2832 38.4305C36.3086 38.5291 36.3026 38.6331 36.2662 38.7282C36.0658 39.1027 35.7626 39.4122 35.3924 39.6203C35.0222 39.8285 34.6003 39.9267 34.1762 39.9033C33.922 39.9249 33.6662 39.8937 33.4246 39.8117C33.1831 39.7297 32.9611 39.5987 32.7726 39.4269C32.5841 39.2552 32.433 39.0463 32.329 38.8134C32.225 38.5806 32.1701 38.3287 32.168 38.0737V33.4251C32.1827 33.3011 32.1689 33.1753 32.1275 33.0575C32.0862 32.9396 32.0184 32.8328 31.9294 32.7452C31.8403 32.6576 31.7324 32.5916 31.6139 32.5521C31.4954 32.5127 31.3695 32.5009 31.2457 32.5177C30.6433 32.5921 30.2044 33.0978 30.2044 34.0052V37.4786C30.1879 37.6419 30.2143 37.8066 30.2808 37.9566C30.3473 38.1066 30.4517 38.2366 30.5837 38.334L31.0598 38.6017C31.1031 38.6231 31.1387 38.6576 31.1614 38.7003C31.1841 38.7431 31.1927 38.7918 31.1862 38.8397C31.19 38.8694 31.19 38.8994 31.1862 38.929L31.1193 39.6133C31.1193 39.7992 30.9631 39.829 30.7251 39.829H26.8054C26.56 39.829 26.441 39.829 26.4112 39.6133L26.3368 38.929V38.8397C26.3303 38.7918 26.339 38.7431 26.3617 38.7003C26.3844 38.6576 26.4199 38.6231 26.4633 38.6017L26.9393 38.334C27.0725 38.2377 27.1778 38.1078 27.2444 37.9575C27.311 37.8073 27.3366 37.642 27.3186 37.4786V33.1127C27.3186 32.7483 27.2591 32.2797 26.9393 32.1235L26.6343 31.945C26.586 31.9267 26.5455 31.8923 26.5197 31.8476C26.494 31.8028 26.4845 31.7505 26.493 31.6995C26.493 31.6995 26.493 31.6475 26.493 31.6029L26.5674 31.0897C26.5674 30.8963 26.731 30.8665 26.9765 30.8665H29.7879C29.8699 30.8636 29.9506 30.8884 30.0167 30.937C30.0828 30.9856 30.1307 31.0551 30.1524 31.1343L30.2267 31.3277Z" fill="white"/>
<path d="M68.7988 31.3277L69.2674 31.0971C70.0939 30.6251 71.0594 30.4567 71.997 30.6211C72.8374 30.8888 73.5589 31.4987 73.5589 33.0904V37.9249C73.5589 38.1257 73.5589 38.215 73.6631 38.267C73.7672 38.3191 74.0126 38.1257 74.2283 38.0142C74.444 37.9026 74.563 38.0142 74.6969 38.1778C74.7765 38.2421 74.8332 38.3304 74.8587 38.4296C74.8841 38.5287 74.8769 38.6334 74.8382 38.7282C74.6378 39.1027 74.3347 39.4122 73.9644 39.6203C73.5942 39.8285 73.1723 39.9267 72.7482 39.9033C72.4941 39.9249 72.2382 39.8937 71.9967 39.8117C71.7552 39.7297 71.5332 39.5987 71.3446 39.4269C71.1561 39.2552 71.0051 39.0463 70.9011 38.8134C70.797 38.5806 70.7422 38.3287 70.74 38.0737V33.4251C70.7545 33.3018 70.7408 33.1768 70.6999 33.0596C70.6589 32.9423 70.5918 32.836 70.5036 32.7485C70.4155 32.6611 70.3086 32.5949 70.191 32.5549C70.0735 32.5149 69.9484 32.5022 69.8252 32.5177C69.2153 32.5921 68.7765 33.0978 68.7765 34.0052V37.4786C68.76 37.6419 68.7863 37.8066 68.8528 37.9566C68.9193 38.1066 69.0238 38.2366 69.1558 38.334L69.6318 38.6017C69.6766 38.622 69.7137 38.656 69.7378 38.6988C69.7619 38.7416 69.7716 38.791 69.7657 38.8397C69.7688 38.8694 69.7688 38.8993 69.7657 38.929L69.6988 39.6133C69.6988 39.7992 69.5425 39.829 69.3045 39.829H65.3551C65.1171 39.829 64.9907 39.829 64.9609 39.6133L64.894 38.929C64.8908 38.8993 64.8908 38.8694 64.894 38.8397C64.8868 38.7908 64.896 38.7409 64.9203 38.6979C64.9445 38.6548 64.9823 38.621 65.0279 38.6017L65.4964 38.334C65.631 38.2385 65.7377 38.109 65.8057 37.9587C65.8737 37.8084 65.9004 37.6427 65.8832 37.4786V33.1127C65.8832 32.7483 65.8163 32.2797 65.4964 32.1235L65.1915 31.945C65.1432 31.9267 65.1027 31.8923 65.0769 31.8476C65.0512 31.8028 65.0417 31.7505 65.0502 31.6995C65.0477 31.6674 65.0477 31.635 65.0502 31.6029L65.1171 31.0897C65.1171 30.8963 65.2808 30.8665 65.5262 30.8665H68.3376C68.4203 30.8645 68.5014 30.8896 68.5686 30.9379C68.6357 30.9862 68.6852 31.0552 68.7095 31.1343L68.7988 31.3277Z" fill="white"/>
<path d="M54.4962 37.5902C54.67 37.9025 54.9276 38.1601 55.2399 38.334L55.716 38.6017C55.7593 38.6231 55.7949 38.6576 55.8176 38.7003C55.8402 38.743 55.8489 38.7918 55.8424 38.8397V38.929L55.768 39.6132C55.768 39.7992 55.6193 39.8289 55.3813 39.8289H52.9937C52.5847 39.8289 52.5549 39.7099 52.369 39.3752L50.3534 35.7382L49.6096 36.482V37.5084C49.6025 37.6767 49.6393 37.844 49.7162 37.9939C49.7931 38.1438 49.9076 38.2712 50.0484 38.3637L50.5244 38.6315C50.5692 38.6517 50.6063 38.6857 50.6304 38.7285C50.6545 38.7713 50.6642 38.8207 50.6583 38.8695C50.6614 38.8991 50.6614 38.9291 50.6583 38.9587L50.5914 39.643C50.5914 39.8289 50.4352 39.8587 50.1971 39.8587H46.2477C46.0097 39.8587 45.8833 39.8587 45.8536 39.643L45.7866 38.9587C45.7835 38.9291 45.7835 38.8991 45.7866 38.8695C45.7794 38.8206 45.7886 38.7707 45.8129 38.7276C45.8371 38.6845 45.8749 38.6507 45.9205 38.6315L46.389 38.3637C46.5236 38.2683 46.6304 38.1387 46.6983 37.9884C46.7663 37.8381 46.793 37.6724 46.7758 37.5084V29.6541C46.793 29.4901 46.7663 29.3244 46.6983 29.1741C46.6304 29.0238 46.5236 28.8942 46.389 28.7988L45.9205 28.5385C45.8743 28.5179 45.8363 28.4827 45.8121 28.4384C45.7879 28.394 45.7789 28.343 45.7866 28.293C45.7835 28.2659 45.7835 28.2384 45.7866 28.2112L45.8536 27.7203C45.8536 27.5344 46.0097 27.5046 46.2477 27.5046H49.1113C49.1783 27.5046 49.2447 27.518 49.3065 27.5438C49.3684 27.5697 49.4245 27.6076 49.4715 27.6554C49.5186 27.7032 49.5557 27.7598 49.5807 27.822C49.6056 27.8842 49.618 27.9508 49.617 28.0178V33.968L50.8889 32.8152C51.0748 32.659 51.3723 32.3987 51.4839 32.2871C51.5955 32.1755 51.6252 31.997 51.4839 31.9301L51.0302 31.7218C50.988 31.7031 50.953 31.6713 50.9302 31.6311C50.9074 31.5909 50.8982 31.5445 50.9037 31.4987C50.9037 31.4987 50.9037 31.4541 50.9037 31.4094L50.9707 30.7847C50.9707 30.6136 51.1195 30.5839 51.3426 30.5839H54.7714C55.0019 30.5839 55.1135 30.5839 55.1432 30.7847L55.2102 31.4094C55.2133 31.4391 55.2133 31.469 55.2102 31.4987C55.2102 31.6326 55.0614 31.6995 54.9573 31.7441C54.7967 31.7906 54.6419 31.8555 54.4962 31.9375C54.2286 32.1072 53.9794 32.3041 53.7524 32.5251L52.4285 33.7895L54.4962 37.5902Z" fill="white"/>
</g>
<defs>
<clipPath id="clip0_801_4957">
<rect width="75.463" height="40" fill="white"/>
</clipPath>
</defs>
</svg>
