<svg width="222" height="281" viewBox="0 0 222 281" fill="none" xmlns="http://www.w3.org/2000/svg">
<g filter="url(#filter0_i_1006_5708)">
<mask id="path-1-outside-1_1006_5708" maskUnits="userSpaceOnUse" x="16.6633" y="4.74112" width="188.702" height="272.11" fill="black">
<rect fill="white" x="16.6633" y="4.74112" width="188.702" height="272.11"/>
<path fill-rule="evenodd" clip-rule="evenodd" d="M51.9062 18.8832C52.8286 12.3203 58.8966 7.74772 65.4595 8.67008L191.064 26.3226C197.627 27.245 202.2 33.313 201.277 39.8759L186.647 143.974C182.765 143.429 179.176 146.134 178.63 150.016C178.085 153.898 180.789 157.487 184.671 158.033L170.041 262.132C169.119 268.695 163.051 273.268 156.488 272.345L30.8833 254.693C24.3204 253.77 19.7478 247.702 20.6701 241.139L35.3003 137.04C39.1824 137.586 42.7717 134.881 43.3173 130.999C43.8629 127.117 41.1582 123.527 37.2761 122.982L51.9062 18.8832Z"/>
</mask>
<path fill-rule="evenodd" clip-rule="evenodd" d="M51.9062 18.8832C52.8286 12.3203 58.8966 7.74772 65.4595 8.67008L191.064 26.3226C197.627 27.245 202.2 33.313 201.277 39.8759L186.647 143.974C182.765 143.429 179.176 146.134 178.63 150.016C178.085 153.898 180.789 157.487 184.671 158.033L170.041 262.132C169.119 268.695 163.051 273.268 156.488 272.345L30.8833 254.693C24.3204 253.77 19.7478 247.702 20.6701 241.139L35.3003 137.04C39.1824 137.586 42.7717 134.881 43.3173 130.999C43.8629 127.117 41.1582 123.527 37.2761 122.982L51.9062 18.8832Z" fill="white"/>
<path d="M65.4595 8.67008L65.7379 6.68954L65.4595 8.67008ZM51.9062 18.8832L53.8868 19.1616L51.9062 18.8832ZM191.064 26.3226L190.786 28.3032L191.064 26.3226ZM186.647 143.974L186.369 145.955L188.349 146.233L188.628 144.253L186.647 143.974ZM184.671 158.033L186.652 158.311L186.93 156.331L184.95 156.052L184.671 158.033ZM170.041 262.132L172.022 262.411L170.041 262.132ZM156.488 272.345L156.209 274.326L156.209 274.326L156.488 272.345ZM30.8833 254.693L31.1616 252.712L31.1616 252.712L30.8833 254.693ZM20.6701 241.139L18.6896 240.861L20.6701 241.139ZM35.3003 137.04L35.5787 135.06L33.5981 134.781L33.3198 136.762L35.3003 137.04ZM37.2761 122.982L35.2956 122.703L35.0173 124.684L36.9977 124.962L37.2761 122.982ZM65.7379 6.68954C58.0811 5.61346 51.0018 10.9481 49.9257 18.6049L53.8868 19.1616C54.6554 13.6925 59.7121 9.88198 65.1812 10.6506L65.7379 6.68954ZM191.342 24.3421L65.7379 6.68954L65.1812 10.6506L190.786 28.3032L191.342 24.3421ZM203.258 40.1543C204.334 32.4975 198.999 25.4182 191.342 24.3421L190.786 28.3032C196.255 29.0718 200.065 34.1285 199.297 39.5976L203.258 40.1543ZM188.628 144.253L203.258 40.1543L199.297 39.5976L184.667 143.696L188.628 144.253ZM180.611 150.294C181.003 147.506 183.581 145.563 186.369 145.955L186.925 141.994C181.95 141.295 177.349 144.761 176.65 149.737L180.611 150.294ZM184.95 156.052C182.161 155.66 180.219 153.082 180.611 150.294L176.65 149.737C175.95 154.713 179.417 159.314 184.393 160.013L184.95 156.052ZM172.022 262.411L186.652 158.311L182.691 157.754L168.061 261.854L172.022 262.411ZM156.209 274.326C163.866 275.402 170.946 270.067 172.022 262.411L168.061 261.854C167.292 267.323 162.235 271.133 156.766 270.365L156.209 274.326ZM30.6049 256.673L156.209 274.326L156.766 270.365L31.1616 252.712L30.6049 256.673ZM18.6896 240.861C17.6135 248.518 22.9482 255.597 30.6049 256.673L31.1616 252.712C25.6925 251.944 21.882 246.887 22.6507 241.418L18.6896 240.861ZM33.3198 136.762L18.6896 240.861L22.6507 241.418L37.2809 137.319L33.3198 136.762ZM41.3368 130.72C40.9449 133.509 38.3669 135.451 35.5787 135.06L35.022 139.021C39.9979 139.72 44.5985 136.253 45.2978 131.277L41.3368 130.72ZM36.9977 124.962C39.786 125.354 41.7286 127.932 41.3368 130.72L45.2978 131.277C45.9972 126.301 42.5304 121.701 37.5545 121.001L36.9977 124.962ZM49.9257 18.6049L35.2956 122.703L39.2567 123.26L53.8868 19.1616L49.9257 18.6049Z" fill="#1C6F10" mask="url(#path-1-outside-1_1006_5708)"/>
<mask id="mask0_1006_5708" style="mask-type:alpha" maskUnits="userSpaceOnUse" x="20" y="8" width="182" height="265">
<path fill-rule="evenodd" clip-rule="evenodd" d="M51.9062 18.8832C52.8286 12.3203 58.8966 7.74772 65.4595 8.67008L191.064 26.3226C197.627 27.245 202.2 33.313 201.277 39.8759L186.647 143.975C182.765 143.429 179.175 146.134 178.63 150.016C178.084 153.898 180.789 157.488 184.671 158.033L170.041 262.132C169.119 268.695 163.051 273.268 156.488 272.345L30.8833 254.693C24.3204 253.77 19.7478 247.702 20.6701 241.139L35.3002 137.041C39.1823 137.586 42.7715 134.882 43.3171 130.999C43.8627 127.117 41.158 123.528 37.276 122.982L51.9062 18.8832Z" fill="white"/>
</mask>
<g mask="url(#mask0_1006_5708)">
<g style="mix-blend-mode:multiply">
<path d="M53.8231 5.24299L203.194 26.2357L185.659 151.004L36.288 130.012L53.8231 5.24299Z" fill="url(#paint0_linear_1006_5708)" fill-opacity="0.3"/>
</g>
</g>
<path fill-rule="evenodd" clip-rule="evenodd" d="M72.0014 22.6387C71.8378 22.6157 71.6748 22.5982 71.5125 22.586C71.2371 22.5652 71.0307 22.3252 71.0514 22.0499C71.0721 21.7745 71.3122 21.5681 71.5875 21.5888C71.7712 21.6026 71.9557 21.6224 72.1406 21.6484L72.6448 21.7193C72.9183 21.7577 73.1088 22.0106 73.0704 22.284C73.032 22.5575 72.7791 22.748 72.5057 22.7096L72.0014 22.6387ZM75.1058 22.5701C75.1442 22.2966 75.3971 22.1061 75.6705 22.1445L76.6791 22.2863C76.9525 22.3247 77.1431 22.5775 77.1046 22.851C77.0662 23.1244 76.8134 23.315 76.5399 23.2765L75.5314 23.1348C75.2579 23.0964 75.0674 22.8435 75.1058 22.5701ZM79.14 23.137C79.1785 22.8636 79.4313 22.6731 79.7048 22.7115L80.7133 22.8532C80.9868 22.8917 81.1773 23.1445 81.1389 23.418C81.1004 23.6914 80.8476 23.8819 80.5741 23.8435L79.5656 23.7018C79.2921 23.6633 79.1016 23.4105 79.14 23.137ZM83.1743 23.704C83.2127 23.4306 83.4655 23.24 83.739 23.2785L84.7476 23.4202C85.021 23.4587 85.2115 23.7115 85.1731 23.9849C85.1347 24.2584 84.8818 24.4489 84.6084 24.4105L83.5998 24.2687C83.3264 24.2303 83.1358 23.9775 83.1743 23.704ZM87.2085 24.271C87.2469 23.9975 87.4998 23.807 87.7732 23.8454L88.7818 23.9872C89.0552 24.0256 89.2458 24.2785 89.2073 24.5519C89.1689 24.8254 88.9161 25.0159 88.6426 24.9775L87.6341 24.8357C87.3606 24.7973 87.1701 24.5445 87.2085 24.271ZM91.2427 24.838C91.2812 24.5645 91.534 24.374 91.8075 24.4124L92.816 24.5542C93.0895 24.5926 93.28 24.8454 93.2416 25.1189C93.2031 25.3923 92.9503 25.5829 92.6769 25.5444L91.6683 25.4027C91.3948 25.3643 91.2043 25.1114 91.2427 24.838ZM95.277 25.4049C95.3154 25.1315 95.5683 24.941 95.8417 24.9794L96.8503 25.1211C97.1237 25.1596 97.3142 25.4124 97.2758 25.6859C97.2374 25.9593 96.9845 26.1498 96.7111 26.1114L95.7025 25.9697C95.4291 25.9312 95.2386 25.6784 95.277 25.4049ZM99.3112 25.9719C99.3497 25.6985 99.6025 25.5079 99.8759 25.5464L100.884 25.6881C101.158 25.7266 101.348 25.9794 101.31 26.2528C101.272 26.5263 101.019 26.7168 100.745 26.6784L99.7368 26.5366C99.4633 26.4982 99.2728 26.2454 99.3112 25.9719ZM103.345 26.5389C103.384 26.2654 103.637 26.0749 103.91 26.1133L104.919 26.2551C105.192 26.2935 105.383 26.5464 105.344 26.8198C105.306 27.0933 105.053 27.2838 104.78 27.2454L103.771 27.1036C103.498 27.0652 103.307 26.8124 103.345 26.5389ZM107.38 27.1059C107.418 26.8324 107.671 26.6419 107.944 26.6803L108.953 26.8221C109.226 26.8605 109.417 27.1133 109.379 27.3868C109.34 27.6602 109.087 27.8508 108.814 27.8123L107.805 27.6706C107.532 27.6322 107.341 27.3793 107.38 27.1059ZM111.414 27.6728C111.452 27.3994 111.705 27.2089 111.979 27.2473L112.987 27.389C113.261 27.4275 113.451 27.6803 113.413 27.9538C113.374 28.2272 113.121 28.4177 112.848 28.3793L111.839 28.2376C111.566 28.1991 111.375 27.9463 111.414 27.6728ZM115.448 28.2398C115.487 27.9664 115.739 27.7758 116.013 27.8143L117.021 27.956C117.295 27.9944 117.485 28.2473 117.447 28.5207C117.409 28.7942 117.156 28.9847 116.882 28.9463L115.874 28.8045C115.6 28.7661 115.41 28.5133 115.448 28.2398ZM119.482 28.8068C119.521 28.5333 119.774 28.3428 120.047 28.3812L121.056 28.523C121.329 28.5614 121.52 28.8143 121.481 29.0877C121.443 29.3612 121.19 29.5517 120.917 29.5133L119.908 29.3715C119.634 29.3331 119.444 29.0803 119.482 28.8068ZM123.517 29.3738C123.555 29.1003 123.808 28.9098 124.081 28.9482L125.09 29.09C125.363 29.1284 125.554 29.3812 125.515 29.6547C125.477 29.9281 125.224 30.1187 124.951 30.0802L123.942 29.9385C123.669 29.9001 123.478 29.6472 123.517 29.3738ZM127.551 29.9407C127.589 29.6673 127.842 29.4768 128.116 29.5152L129.124 29.6569C129.398 29.6954 129.588 29.9482 129.55 30.2217C129.511 30.4951 129.258 30.6856 128.985 30.6472L127.976 30.5055C127.703 30.467 127.512 30.2142 127.551 29.9407ZM131.585 30.5077C131.624 30.2343 131.876 30.0437 132.15 30.0822L133.158 30.2239C133.432 30.2623 133.622 30.5152 133.584 30.7886C133.546 31.0621 133.293 31.2526 133.019 31.2142L132.011 31.0724C131.737 31.034 131.547 30.7812 131.585 30.5077ZM135.619 31.0747C135.658 30.8012 135.911 30.6107 136.184 30.6491L137.193 30.7909C137.466 30.8293 137.657 31.0822 137.618 31.3556C137.58 31.6291 137.327 31.8196 137.053 31.7812L136.045 31.6394C135.771 31.601 135.581 31.3482 135.619 31.0747ZM139.654 31.6417C139.692 31.3682 139.945 31.1777 140.218 31.2161L141.227 31.3579C141.5 31.3963 141.691 31.6491 141.652 31.9226C141.614 32.196 141.361 32.3866 141.088 32.3481L140.079 32.2064C139.806 32.168 139.615 31.9151 139.654 31.6417ZM143.688 32.2086C143.726 31.9352 143.979 31.7447 144.253 31.7831L145.261 31.9248C145.535 31.9633 145.725 32.2161 145.687 32.4896C145.648 32.763 145.395 32.9535 145.122 32.9151L144.113 32.7734C143.84 32.7349 143.649 32.4821 143.688 32.2086ZM147.722 32.7756C147.76 32.5022 148.013 32.3116 148.287 32.3501L149.295 32.4918C149.569 32.5303 149.759 32.7831 149.721 33.0565C149.682 33.33 149.43 33.5205 149.156 33.4821L148.148 33.3403C147.874 33.3019 147.684 33.0491 147.722 32.7756ZM151.756 33.3426C151.795 33.0691 152.048 32.8786 152.321 32.917L153.33 33.0588C153.603 33.0972 153.794 33.3501 153.755 33.6235C153.717 33.897 153.464 34.0875 153.19 34.0491L152.182 33.9073C151.908 33.8689 151.718 33.6161 151.756 33.3426ZM155.791 33.9096C155.829 33.6361 156.082 33.4456 156.355 33.484L157.364 33.6258C157.637 33.6642 157.828 33.917 157.789 34.1905C157.751 34.4639 157.498 34.6545 157.225 34.616L156.216 34.4743C155.943 34.4359 155.752 34.183 155.791 33.9096ZM159.825 34.4765C159.863 34.2031 160.116 34.0126 160.389 34.051L161.398 34.1927C161.671 34.2312 161.862 34.484 161.824 34.7575C161.785 35.0309 161.532 35.2214 161.259 35.183L160.25 35.0413C159.977 35.0028 159.786 34.75 159.825 34.4765ZM163.859 35.0435C163.897 34.7701 164.15 34.5795 164.424 34.618L165.432 34.7597C165.706 34.7981 165.896 35.051 165.858 35.3244C165.819 35.5979 165.567 35.7884 165.293 35.75L164.285 35.6082C164.011 35.5698 163.821 35.317 163.859 35.0435ZM167.893 35.6105C167.932 35.337 168.185 35.1465 168.458 35.1849L169.467 35.3267C169.74 35.3651 169.93 35.618 169.892 35.8914C169.854 36.1649 169.601 36.3554 169.327 36.317L168.319 36.1752C168.045 36.1368 167.855 35.884 167.893 35.6105ZM171.927 36.1775C171.966 35.904 172.219 35.7135 172.492 35.7519L173.501 35.8937C173.774 35.9321 173.965 36.1849 173.926 36.4584C173.888 36.7318 173.635 36.9224 173.362 36.8839L172.353 36.7422C172.08 36.7038 171.889 36.4509 171.927 36.1775ZM175.962 36.7444C176 36.471 176.253 36.2805 176.526 36.3189L177.535 36.4606C177.808 36.4991 177.999 36.7519 177.961 37.0254C177.922 37.2988 177.669 37.4893 177.396 37.4509L176.387 37.3092C176.114 37.2707 175.923 37.0179 175.962 36.7444ZM179.996 37.3114C180.034 37.038 180.287 36.8474 180.561 36.8859L181.065 36.9567C181.25 36.9827 181.433 37.0145 181.613 37.0519C181.883 37.1078 182.057 37.3724 182.001 37.6428C181.945 37.9133 181.681 38.0871 181.41 38.0311C181.251 37.9981 181.089 37.97 180.926 37.947L180.421 37.8761C180.148 37.8377 179.958 37.5849 179.996 37.3114ZM68.9265 22.3095C69.0132 22.5717 68.8709 22.8545 68.6087 22.9411C68.2969 23.0442 67.9932 23.1674 67.6994 23.3095C67.4508 23.4296 67.1518 23.3255 67.0316 23.0769C66.9114 22.8283 67.0155 22.5293 67.2642 22.4091C67.597 22.2482 67.9412 22.1086 68.2948 21.9917C68.557 21.905 68.8398 22.0473 68.9265 22.3095ZM183.972 38.4781C184.128 38.25 184.439 38.1911 184.667 38.3467C184.975 38.5566 185.267 38.7857 185.543 39.0321C185.749 39.2162 185.766 39.5323 185.582 39.7381C185.398 39.944 185.082 39.9616 184.876 39.7776C184.633 39.5601 184.375 39.3579 184.104 39.1729C183.876 39.0173 183.817 38.7062 183.972 38.4781ZM65.3217 24.3654C65.5276 24.5495 65.5452 24.8656 65.3612 25.0715C65.1437 25.3147 64.9415 25.5726 64.7565 25.844C64.6009 26.0721 64.2898 26.1309 64.0617 25.9754C63.8335 25.8198 63.7747 25.5087 63.9303 25.2806C64.1401 24.9729 64.3693 24.6805 64.6157 24.4049C64.7998 24.199 65.1159 24.1814 65.3217 24.3654ZM186.871 41.4481C187.119 41.3279 187.418 41.432 187.539 41.6806C187.699 42.0134 187.839 42.3577 187.956 42.7112C188.043 42.9734 187.9 43.2562 187.638 43.3429C187.376 43.4296 187.093 43.2873 187.007 43.0251C186.903 42.7133 186.78 42.4096 186.638 42.1158C186.518 41.8672 186.622 41.5682 186.871 41.4481ZM63.2264 27.9464C63.4968 28.0024 63.6707 28.267 63.6147 28.5374C63.5817 28.6968 63.5536 28.8583 63.5306 29.0219L63.4612 29.5159C63.4227 29.7894 63.1699 29.9799 62.8964 29.9415C62.623 29.903 62.4325 29.6502 62.4709 29.3767L62.5403 28.8827C62.5663 28.6978 62.5981 28.5151 62.6354 28.3347C62.6914 28.0642 62.956 27.8904 63.2264 27.9464ZM187.898 45.4678C188.173 45.4886 188.38 45.7286 188.359 46.0039C188.345 46.1877 188.325 46.3721 188.299 46.557L188.23 47.0512C188.191 47.3246 187.939 47.5151 187.665 47.4767C187.392 47.4383 187.201 47.1854 187.24 46.912L187.309 46.4178C187.332 46.2542 187.349 46.0912 187.362 45.9289C187.382 45.6536 187.622 45.4471 187.898 45.4678ZM62.6189 31.9162C62.8924 31.9547 63.0829 32.2075 63.0444 32.481L62.9055 33.4693C62.8671 33.7428 62.6143 33.9333 62.3408 33.8948C62.0674 33.8564 61.8768 33.6036 61.9153 33.3301L62.0542 32.3418C62.0926 32.0683 62.3454 31.8778 62.6189 31.9162ZM187.388 49.4515C187.661 49.4899 187.852 49.7428 187.813 50.0162L187.674 51.0046C187.636 51.278 187.383 51.4685 187.109 51.4301C186.836 51.3917 186.645 51.1388 186.684 50.8654L186.823 49.877C186.861 49.6036 187.114 49.4131 187.388 49.4515ZM62.0633 35.8696C62.3367 35.9081 62.5273 36.1609 62.4888 36.4344L62.3499 37.4227C62.3115 37.6962 62.0587 37.8867 61.7852 37.8482C61.5118 37.8098 61.3212 37.557 61.3597 37.2835L61.4986 36.2952C61.537 36.0217 61.7898 35.8312 62.0633 35.8696ZM186.832 53.4049C187.105 53.4433 187.296 53.6961 187.257 53.9696L187.119 54.9579C187.08 55.2314 186.827 55.4219 186.554 55.3835C186.28 55.3451 186.09 55.0922 186.128 54.8188L186.267 53.8304C186.306 53.557 186.558 53.3664 186.832 53.4049ZM61.5077 39.823C61.7811 39.8615 61.9717 40.1143 61.9332 40.3877L61.7943 41.3761C61.7559 41.6495 61.5031 41.8401 61.2296 41.8016C60.9561 41.7632 60.7656 41.5104 60.8041 41.2369L60.943 40.2486C60.9814 39.9751 61.2342 39.7846 61.5077 39.823ZM186.276 57.3583C186.55 57.3967 186.74 57.6495 186.702 57.923L186.563 58.9113C186.525 59.1848 186.272 59.3753 185.998 59.3369C185.725 59.2984 185.534 59.0456 185.573 58.7722L185.712 57.7838C185.75 57.5104 186.003 57.3198 186.276 57.3583ZM60.9521 43.7764C61.2255 43.8149 61.416 44.0677 61.3776 44.3411L61.2387 45.3295C61.2003 45.6029 60.9474 45.7935 60.674 45.755C60.4005 45.7166 60.21 45.4638 60.2484 45.1903L60.3873 44.202C60.4258 43.9285 60.6786 43.738 60.9521 43.7764ZM185.721 61.3117C185.994 61.3501 186.185 61.6029 186.146 61.8764L186.007 62.8647C185.969 63.1382 185.716 63.3287 185.443 63.2903C185.169 63.2518 184.979 62.999 185.017 62.7255L185.156 61.7372C185.194 61.4637 185.447 61.2732 185.721 61.3117ZM60.3964 47.7298C60.6699 47.7682 60.8604 48.0211 60.822 48.2945L60.6831 49.2829C60.6447 49.5563 60.3918 49.7469 60.1184 49.7084C59.8449 49.67 59.6544 49.4172 59.6928 49.1437L59.8317 48.1554C59.8702 47.8819 60.123 47.6914 60.3964 47.7298ZM185.165 65.265C185.439 65.3035 185.629 65.5563 185.591 65.8298L185.452 66.8181C185.413 67.0916 185.16 67.2821 184.887 67.2437C184.614 67.2052 184.423 66.9524 184.461 66.6789L184.6 65.6906C184.639 65.4171 184.892 65.2266 185.165 65.265ZM59.8408 51.6832C60.1143 51.7216 60.3048 51.9745 60.2664 52.2479L60.1275 53.2363C60.089 53.5097 59.8362 53.7003 59.5628 53.6618C59.2893 53.6234 59.0988 53.3706 59.1372 53.0971L59.2761 52.1088C59.3145 51.8353 59.5674 51.6448 59.8408 51.6832ZM184.609 69.2184C184.883 69.2569 185.073 69.5097 185.035 69.7831L184.896 70.7715C184.858 71.0449 184.605 71.2355 184.331 71.197C184.058 71.1586 183.867 70.9058 183.906 70.6323L184.045 69.644C184.083 69.3705 184.336 69.18 184.609 69.2184ZM59.2852 55.6366C59.5587 55.675 59.7492 55.9279 59.7108 56.2013L59.5719 57.1897C59.5334 57.4631 59.2806 57.6537 59.0071 57.6152C58.7337 57.5768 58.5432 57.324 58.5816 57.0505L58.7205 56.0622C58.7589 55.7887 59.0118 55.5982 59.2852 55.6366ZM184.054 73.1718C184.327 73.2102 184.518 73.4631 184.479 73.7365L184.34 74.7249C184.302 74.9983 184.049 75.1889 183.776 75.1504C183.502 75.112 183.312 74.8592 183.35 74.5857L183.489 73.5974C183.528 73.3239 183.78 73.1334 184.054 73.1718ZM58.7296 59.59C59.0031 59.6284 59.1936 59.8813 59.1552 60.1547L59.0163 61.1431C58.9778 61.4165 58.725 61.6071 58.4515 61.5686C58.1781 61.5302 57.9876 61.2774 58.026 61.0039L58.1649 60.0156C58.2033 59.7421 58.4562 59.5516 58.7296 59.59ZM183.498 77.1252C183.772 77.1636 183.962 77.4165 183.924 77.6899L183.785 78.6783C183.746 78.9517 183.494 79.1423 183.22 79.1038C182.947 79.0654 182.756 78.8126 182.795 78.5391L182.934 77.5508C182.972 77.2773 183.225 77.0868 183.498 77.1252ZM58.174 63.5434C58.4474 63.5818 58.638 63.8347 58.5995 64.1081L58.4606 65.0965C58.4222 65.3699 58.1694 65.5605 57.8959 65.522C57.6225 65.4836 57.4319 65.2308 57.4704 64.9573L57.6093 63.9689C57.6477 63.6955 57.9005 63.505 58.174 63.5434ZM182.943 81.0786C183.216 81.117 183.407 81.3699 183.368 81.6433L183.229 82.6317C183.191 82.9051 182.938 83.0956 182.665 83.0572C182.391 83.0188 182.201 82.7659 182.239 82.4925L182.378 81.5041C182.416 81.2307 182.669 81.0402 182.943 81.0786ZM57.6184 67.4968C57.8918 67.5352 58.0824 67.7881 58.0439 68.0615L57.905 69.0499C57.8666 69.3233 57.6138 69.5139 57.3403 69.4754C57.0668 69.437 56.8763 69.1842 56.9148 68.9107L57.0537 67.9223C57.0921 67.6489 57.3449 67.4584 57.6184 67.4968ZM182.387 85.032C182.66 85.0704 182.851 85.3232 182.813 85.5967L182.674 86.585C182.635 86.8585 182.382 87.049 182.109 87.0106C181.835 86.9722 181.645 86.7193 181.683 86.4459L181.822 85.4575C181.861 85.1841 182.114 84.9935 182.387 85.032ZM57.0628 71.4502C57.3362 71.4886 57.5267 71.7415 57.4883 72.0149L57.3494 73.0033C57.311 73.2767 57.0581 73.4672 56.7847 73.4288C56.5112 73.3904 56.3207 73.1375 56.3591 72.8641L56.498 71.8757C56.5365 71.6023 56.7893 71.4118 57.0628 71.4502ZM181.831 88.9854C182.105 89.0238 182.295 89.2766 182.257 89.5501L182.118 90.5384C182.08 90.8119 181.827 91.0024 181.553 90.964C181.28 90.9255 181.089 90.6727 181.128 90.3993L181.267 89.4109C181.305 89.1375 181.558 88.9469 181.831 88.9854ZM56.5072 75.4036C56.7806 75.442 56.9711 75.6949 56.9327 75.9683L56.7938 76.9567C56.7554 77.2301 56.5025 77.4206 56.2291 77.3822C55.9556 77.3438 55.7651 77.0909 55.8035 76.8175L55.9424 75.8291C55.9809 75.5557 56.2337 75.3652 56.5072 75.4036ZM181.276 92.9387C181.549 92.9772 181.74 93.23 181.701 93.5035L181.562 94.4918C181.524 94.7653 181.271 94.9558 180.998 94.9174C180.724 94.8789 180.534 94.6261 180.572 94.3526L180.711 93.3643C180.75 93.0908 181.002 92.9003 181.276 92.9387ZM55.9515 79.357C56.225 79.3954 56.4155 79.6483 56.3771 79.9217L56.2382 80.9101C56.1998 81.1835 55.9469 81.374 55.6735 81.3356C55.4 81.2972 55.2095 81.0443 55.2479 80.7709L55.3868 79.7825C55.4252 79.5091 55.6781 79.3186 55.9515 79.357ZM180.72 96.8921C180.994 96.9306 181.184 97.1834 181.146 97.4568L181.007 98.4452C180.968 98.7186 180.716 98.9092 180.442 98.8707C180.169 98.8323 179.978 98.5795 180.017 98.306L180.155 97.3177C180.194 97.0442 180.447 96.8537 180.72 96.8921ZM55.3959 83.3104C55.6694 83.3488 55.8599 83.6017 55.8215 83.8751L55.6826 84.8634C55.6441 85.1369 55.3913 85.3274 55.1178 85.289C54.8444 85.2506 54.6539 84.9977 54.6923 84.7243L54.8312 83.7359C54.8696 83.4625 55.1225 83.272 55.3959 83.3104ZM180.165 100.846C180.438 100.884 180.629 101.137 180.59 101.41L180.451 102.399C180.413 102.672 180.16 102.863 179.887 102.824C179.613 102.786 179.423 102.533 179.461 102.259L179.6 101.271C179.638 100.998 179.891 100.807 180.165 100.846ZM54.8403 87.2638C55.1138 87.3022 55.3043 87.555 55.2659 87.8285L55.127 88.8169C55.0885 89.0903 54.8357 89.2808 54.5622 89.2424C54.2888 89.204 54.0983 88.9511 54.1367 88.6777L54.2756 87.6893C54.314 87.4159 54.5669 87.2254 54.8403 87.2638ZM179.609 104.799C179.882 104.837 180.073 105.09 180.035 105.364L179.896 106.352C179.857 106.625 179.604 106.816 179.331 106.778C179.057 106.739 178.867 106.486 178.905 106.213L179.044 105.224C179.083 104.951 179.336 104.76 179.609 104.799ZM54.2847 91.2172C54.5582 91.2556 54.7487 91.5084 54.7102 91.7819L54.5713 92.7702C54.5329 93.0437 54.2801 93.2342 54.0066 93.1958C53.7332 93.1574 53.5426 92.9045 53.5811 92.6311L53.72 91.6427C53.7584 91.3693 54.0112 91.1787 54.2847 91.2172ZM179.053 108.752C179.327 108.791 179.517 109.044 179.479 109.317L179.34 110.305C179.302 110.579 179.049 110.769 178.775 110.731C178.502 110.692 178.311 110.44 178.35 110.166L178.489 109.178C178.527 108.904 178.78 108.714 179.053 108.752ZM53.7291 95.1706C54.0025 95.209 54.1931 95.4618 54.1546 95.7353L54.0157 96.7236C53.9773 96.9971 53.7245 97.1876 53.451 97.1492C53.1776 97.1108 52.987 96.8579 53.0255 96.5845L53.1644 95.5961C53.2028 95.3227 53.4556 95.1321 53.7291 95.1706ZM178.498 112.706C178.771 112.744 178.962 112.997 178.923 113.27L178.784 114.259C178.746 114.532 178.493 114.723 178.22 114.684C177.946 114.646 177.756 114.393 177.794 114.12L177.933 113.131C177.971 112.858 178.224 112.667 178.498 112.706ZM53.1735 99.124C53.4469 99.1624 53.6375 99.4152 53.599 99.6887L53.4601 100.677C53.4217 100.95 53.1688 101.141 52.8954 101.103C52.6219 101.064 52.4314 100.811 52.4698 100.538L52.6088 99.5495C52.6472 99.2761 52.9 99.0855 53.1735 99.124ZM177.942 116.659C178.216 116.697 178.406 116.95 178.368 117.224L178.229 118.212C178.19 118.486 177.938 118.676 177.664 118.638C177.391 118.599 177.2 118.346 177.238 118.073L177.377 117.085C177.416 116.811 177.669 116.621 177.942 116.659ZM177.387 120.612C177.66 120.651 177.85 120.904 177.812 121.177L177.673 122.166C177.635 122.439 177.382 122.629 177.108 122.591C176.835 122.553 176.644 122.3 176.683 122.026L176.822 121.038C176.86 120.765 177.113 120.574 177.387 120.612ZM52.6179 103.077C52.8913 103.116 53.0818 103.369 53.0434 103.642L52.9045 104.63C52.8661 104.904 52.6132 105.094 52.3398 105.056C52.0663 105.018 51.8758 104.765 51.9142 104.491L52.0531 103.503C52.0916 103.229 52.3444 103.039 52.6179 103.077ZM176.831 124.566C177.104 124.604 177.295 124.857 177.256 125.131L177.118 126.119C177.079 126.392 176.826 126.583 176.553 126.544C176.279 126.506 176.089 126.253 176.127 125.98L176.266 124.991C176.305 124.718 176.557 124.527 176.831 124.566ZM52.0622 107.031C52.3357 107.069 52.5262 107.322 52.4878 107.595L52.3489 108.584C52.3105 108.857 52.0576 109.048 51.7842 109.009C51.5107 108.971 51.3202 108.718 51.3586 108.445L51.4975 107.456C51.536 107.183 51.7888 106.992 52.0622 107.031ZM176.275 128.519C176.549 128.558 176.739 128.81 176.701 129.084L176.562 130.072C176.524 130.346 176.271 130.536 175.997 130.498C175.724 130.459 175.533 130.207 175.572 129.933L175.711 128.945C175.749 128.671 176.002 128.481 176.275 128.519ZM51.5066 110.984C51.7801 111.023 51.9706 111.275 51.9322 111.549L51.7933 112.537C51.7548 112.811 51.502 113.001 51.2286 112.963C50.9551 112.924 50.7646 112.671 50.803 112.398L50.9419 111.41C50.9803 111.136 51.2332 110.946 51.5066 110.984ZM175.72 132.473C175.993 132.511 176.184 132.764 176.145 133.037L176.006 134.026C175.968 134.299 175.715 134.49 175.442 134.451C175.168 134.413 174.978 134.16 175.016 133.887L175.155 132.898C175.193 132.625 175.446 132.434 175.72 132.473ZM50.951 114.938C51.2245 114.976 51.415 115.229 51.3766 115.502L51.2377 116.491C51.1992 116.764 50.9464 116.955 50.6729 116.916C50.3995 116.878 50.209 116.625 50.2474 116.351L50.3863 115.363C50.4247 115.09 50.6776 114.899 50.951 114.938ZM175.164 136.426C175.438 136.464 175.628 136.717 175.59 136.991L175.451 137.979C175.412 138.253 175.159 138.443 174.886 138.405C174.613 138.366 174.422 138.113 174.46 137.84L174.599 136.852C174.638 136.578 174.891 136.388 175.164 136.426ZM50.3954 118.891C50.6689 118.929 50.8594 119.182 50.821 119.456L50.682 120.444C50.6436 120.717 50.3908 120.908 50.1173 120.87C49.8439 120.831 49.6533 120.578 49.6918 120.305L49.8307 119.316C49.8691 119.043 50.1219 118.852 50.3954 118.891ZM174.608 140.379C174.882 140.418 175.072 140.671 175.034 140.944L174.895 141.932C174.857 142.206 174.604 142.396 174.33 142.358C174.057 142.32 173.866 142.067 173.905 141.793L174.044 140.805C174.082 140.531 174.335 140.341 174.608 140.379ZM49.8398 122.844C50.1132 122.883 50.3038 123.136 50.2653 123.409L50.1264 124.397C50.088 124.671 49.8352 124.861 49.5617 124.823C49.2883 124.784 49.0977 124.532 49.1362 124.258L49.2751 123.27C49.3135 122.996 49.5663 122.806 49.8398 122.844ZM174.053 144.333C174.326 144.371 174.517 144.624 174.478 144.898L174.339 145.886C174.301 146.159 174.048 146.35 173.775 146.311C173.501 146.273 173.311 146.02 173.349 145.747L173.488 144.758C173.527 144.485 173.779 144.294 174.053 144.333ZM49.2842 126.798C49.5576 126.836 49.7482 127.089 49.7097 127.362L49.5708 128.351C49.5324 128.624 49.2796 128.815 49.0061 128.776C48.7326 128.738 48.5421 128.485 48.5806 128.212L48.7195 127.223C48.7579 126.95 49.0107 126.759 49.2842 126.798ZM173.497 148.286C173.771 148.325 173.961 148.577 173.923 148.851L173.784 149.839C173.745 150.113 173.493 150.303 173.219 150.265C172.946 150.226 172.755 149.974 172.794 149.7L172.932 148.712C172.971 148.438 173.224 148.248 173.497 148.286ZM48.7286 130.751C49.002 130.79 49.1925 131.042 49.1541 131.316L49.0152 132.304C48.9768 132.578 48.7239 132.768 48.4505 132.73C48.177 132.691 47.9865 132.438 48.0249 132.165L48.1638 131.177C48.2023 130.903 48.4551 130.713 48.7286 130.751ZM172.942 152.24C173.215 152.278 173.406 152.531 173.367 152.804L173.228 153.793C173.19 154.066 172.937 154.257 172.664 154.218C172.39 154.18 172.2 153.927 172.238 153.653L172.377 152.665C172.415 152.392 172.668 152.201 172.942 152.24ZM48.173 134.704C48.4464 134.743 48.6369 134.996 48.5985 135.269L48.4596 136.258C48.4212 136.531 48.1683 136.722 47.8949 136.683C47.6214 136.645 47.4309 136.392 47.4693 136.118L47.6082 135.13C47.6467 134.857 47.8995 134.666 48.173 134.704ZM172.386 156.193C172.659 156.231 172.85 156.484 172.812 156.758L172.673 157.746C172.634 158.019 172.381 158.21 172.108 158.172C171.834 158.133 171.644 157.88 171.682 157.607L171.821 156.618C171.86 156.345 172.113 156.155 172.386 156.193ZM47.6173 138.658C47.8908 138.696 48.0813 138.949 48.0429 139.223L47.904 140.211C47.8656 140.484 47.6127 140.675 47.3393 140.636C47.0658 140.598 46.8753 140.345 46.9137 140.072L47.0526 139.083C47.0911 138.81 47.3439 138.619 47.6173 138.658ZM171.83 160.146C172.104 160.185 172.294 160.438 172.256 160.711L172.117 161.699C172.079 161.973 171.826 162.163 171.552 162.125C171.279 162.087 171.088 161.834 171.127 161.56L171.266 160.572C171.304 160.298 171.557 160.108 171.83 160.146ZM47.0617 142.611C47.3352 142.65 47.5257 142.903 47.4873 143.176L47.3484 144.164C47.3099 144.438 47.0571 144.628 46.7837 144.59C46.5102 144.551 46.3197 144.299 46.3581 144.025L46.497 143.037C46.5354 142.763 46.7883 142.573 47.0617 142.611ZM171.275 164.1C171.548 164.138 171.739 164.391 171.7 164.664L171.561 165.653C171.523 165.926 171.27 166.117 170.997 166.078C170.723 166.04 170.533 165.787 170.571 165.514L170.71 164.525C170.748 164.252 171.001 164.061 171.275 164.1ZM46.5061 146.565C46.7796 146.603 46.9701 146.856 46.9317 147.129L46.7928 148.118C46.7543 148.391 46.5015 148.582 46.228 148.543C45.9546 148.505 45.7641 148.252 45.8025 147.979L45.9414 146.99C45.9798 146.717 46.2327 146.526 46.5061 146.565ZM170.719 168.053C170.993 168.092 171.183 168.344 171.145 168.618L171.006 169.606C170.967 169.88 170.715 170.07 170.441 170.032C170.168 169.993 169.977 169.74 170.016 169.467L170.154 168.479C170.193 168.205 170.446 168.015 170.719 168.053ZM45.9505 150.518C46.224 150.556 46.4145 150.809 46.3761 151.083L46.2371 152.071C46.1987 152.345 45.9459 152.535 45.6724 152.497C45.399 152.458 45.2084 152.205 45.2469 151.932L45.3858 150.944C45.4242 150.67 45.677 150.48 45.9505 150.518ZM170.164 172.006C170.437 172.045 170.628 172.298 170.589 172.571L170.45 173.56C170.412 173.833 170.159 174.024 169.885 173.985C169.612 173.947 169.421 173.694 169.46 173.42L169.599 172.432C169.637 172.159 169.89 171.968 170.164 172.006ZM45.3949 154.471C45.6683 154.51 45.8589 154.763 45.8204 155.036L45.6815 156.024C45.6431 156.298 45.3903 156.488 45.1168 156.45C44.8434 156.412 44.6528 156.159 44.6913 155.885L44.8302 154.897C44.8686 154.624 45.1214 154.433 45.3949 154.471ZM169.608 175.96C169.881 175.998 170.072 176.251 170.033 176.525L169.895 177.513C169.856 177.786 169.603 177.977 169.33 177.939C169.056 177.9 168.866 177.647 168.904 177.374L169.043 176.385C169.082 176.112 169.334 175.921 169.608 175.96ZM44.8393 158.425C45.1127 158.463 45.3033 158.716 45.2648 158.99L45.1259 159.978C45.0875 160.251 44.8347 160.442 44.5612 160.403C44.2877 160.365 44.0972 160.112 44.1357 159.839L44.2746 158.85C44.313 158.577 44.5658 158.386 44.8393 158.425ZM44.2837 162.378C44.5571 162.417 44.7476 162.669 44.7092 162.943L44.5703 163.931C44.5319 164.205 44.279 164.395 44.0056 164.357C43.7321 164.318 43.5416 164.066 43.58 163.792L43.7189 162.804C43.7574 162.53 44.0102 162.34 44.2837 162.378ZM169.052 179.913C169.326 179.952 169.516 180.205 169.478 180.478L169.339 181.466C169.301 181.74 169.048 181.93 168.774 181.892C168.501 181.853 168.31 181.601 168.349 181.327L168.488 180.339C168.526 180.065 168.779 179.875 169.052 179.913ZM43.7281 166.332C44.0015 166.37 44.192 166.623 44.1536 166.896L44.0147 167.885C43.9763 168.158 43.7234 168.349 43.45 168.31C43.1765 168.272 42.986 168.019 43.0244 167.745L43.1633 166.757C43.2018 166.484 43.4546 166.293 43.7281 166.332ZM168.497 183.867C168.77 183.905 168.961 184.158 168.922 184.431L168.783 185.42C168.745 185.693 168.492 185.884 168.219 185.845C167.945 185.807 167.755 185.554 167.793 185.281L167.932 184.292C167.97 184.019 168.223 183.828 168.497 183.867ZM43.1724 170.285C43.4459 170.323 43.6364 170.576 43.598 170.85L43.4591 171.838C43.4207 172.112 43.1678 172.302 42.8944 172.264C42.6209 172.225 42.4304 171.972 42.4688 171.699L42.6077 170.711C42.6462 170.437 42.899 170.247 43.1724 170.285ZM167.941 187.82C168.215 187.859 168.405 188.111 168.367 188.385L168.228 189.373C168.189 189.647 167.936 189.837 167.663 189.799C167.39 189.76 167.199 189.507 167.237 189.234L167.376 188.246C167.415 187.972 167.668 187.782 167.941 187.82ZM42.6168 174.238C42.8903 174.277 43.0808 174.53 43.0424 174.803L42.9035 175.791C42.865 176.065 42.6122 176.255 42.3388 176.217C42.0653 176.179 41.8748 175.926 41.9132 175.652L42.0521 174.664C42.0905 174.39 42.3434 174.2 42.6168 174.238ZM167.385 191.773C167.659 191.812 167.849 192.065 167.811 192.338L167.672 193.327C167.634 193.6 167.381 193.791 167.107 193.752C166.834 193.714 166.643 193.461 166.682 193.187L166.821 192.199C166.859 191.926 167.112 191.735 167.385 191.773ZM42.0612 178.192C42.3347 178.23 42.5252 178.483 42.4868 178.756L42.3479 179.745C42.3094 180.018 42.0566 180.209 41.7831 180.17C41.5097 180.132 41.3192 179.879 41.3576 179.606L41.4965 178.617C41.5349 178.344 41.7878 178.153 42.0612 178.192ZM166.83 195.727C167.103 195.765 167.294 196.018 167.255 196.292L167.117 197.28C167.078 197.553 166.825 197.744 166.552 197.705C166.278 197.667 166.088 197.414 166.126 197.141L166.265 196.152C166.304 195.879 166.556 195.688 166.83 195.727ZM41.5056 182.145C41.7791 182.184 41.9696 182.436 41.9312 182.71L41.7922 183.698C41.7538 183.972 41.501 184.162 41.2275 184.124C40.9541 184.085 40.7636 183.832 40.802 183.559L40.9409 182.571C40.9793 182.297 41.2322 182.107 41.5056 182.145ZM166.274 199.68C166.548 199.719 166.738 199.972 166.7 200.245L166.561 201.233C166.522 201.507 166.27 201.697 165.996 201.659C165.723 201.62 165.532 201.368 165.571 201.094L165.71 200.106C165.748 199.832 166.001 199.642 166.274 199.68ZM40.95 186.099C41.2234 186.137 41.414 186.39 41.3755 186.663L41.2366 187.652C41.1982 187.925 40.9454 188.116 40.6719 188.077C40.3985 188.039 40.2079 187.786 40.2464 187.512L40.3853 186.524C40.4237 186.251 40.6765 186.06 40.95 186.099ZM165.719 203.634C165.992 203.672 166.183 203.925 166.144 204.198L166.005 205.187C165.967 205.46 165.714 205.651 165.441 205.612C165.167 205.574 164.977 205.321 165.015 205.048L165.154 204.059C165.192 203.786 165.445 203.595 165.719 203.634ZM40.3944 190.052C40.6678 190.09 40.8584 190.343 40.8199 190.617L40.681 191.605C40.6426 191.878 40.3898 192.069 40.1163 192.031C39.8429 191.992 39.6523 191.739 39.6908 191.466L39.8297 190.477C39.8681 190.204 40.1209 190.013 40.3944 190.052ZM165.163 207.587C165.436 207.625 165.627 207.878 165.589 208.152L165.45 209.14C165.411 209.414 165.158 209.604 164.885 209.566C164.611 209.527 164.421 209.274 164.459 209.001L164.598 208.013C164.637 207.739 164.89 207.549 165.163 207.587ZM39.8388 194.005C40.1122 194.044 40.3027 194.297 40.2643 194.57L40.1254 195.558C40.087 195.832 39.8341 196.022 39.5607 195.984C39.2872 195.945 39.0967 195.693 39.1351 195.419L39.274 194.431C39.3125 194.157 39.5653 193.967 39.8388 194.005ZM164.607 211.54C164.881 211.579 165.071 211.832 165.033 212.105L164.894 213.094C164.856 213.367 164.603 213.557 164.329 213.519C164.056 213.481 163.865 213.228 163.904 212.954L164.043 211.966C164.081 211.693 164.334 211.502 164.607 211.54ZM39.2832 197.959C39.5566 197.997 39.7471 198.25 39.7087 198.523L39.5698 199.512C39.5314 199.785 39.2785 199.976 39.0051 199.937C38.7316 199.899 38.5411 199.646 38.5795 199.373L38.7184 198.384C38.7569 198.111 39.0097 197.92 39.2832 197.959ZM164.052 215.494C164.325 215.532 164.516 215.785 164.477 216.059L164.338 217.047C164.3 217.32 164.047 217.511 163.774 217.472C163.5 217.434 163.31 217.181 163.348 216.908L163.487 215.919C163.526 215.646 163.778 215.455 164.052 215.494ZM38.7275 201.912C39.001 201.95 39.1915 202.203 39.1531 202.477L39.0142 203.465C38.9758 203.739 38.7229 203.929 38.4495 203.891C38.176 203.852 37.9855 203.599 38.0239 203.326L38.1628 202.338C38.2013 202.064 38.4541 201.874 38.7275 201.912ZM163.496 219.447C163.77 219.486 163.96 219.739 163.922 220.012L163.783 221C163.744 221.274 163.492 221.464 163.218 221.426C162.945 221.387 162.754 221.135 162.793 220.861L162.931 219.873C162.97 219.599 163.223 219.409 163.496 219.447ZM38.1719 205.865C38.4454 205.904 38.6359 206.157 38.5975 206.43L38.4586 207.419C38.4201 207.692 38.1673 207.882 37.8939 207.844C37.6204 207.806 37.4299 207.553 37.4683 207.279L37.6072 206.291C37.6456 206.018 37.8985 205.827 38.1719 205.865ZM162.941 223.401C163.214 223.439 163.405 223.692 163.366 223.965L163.227 224.954C163.189 225.227 162.936 225.418 162.662 225.379C162.389 225.341 162.199 225.088 162.237 224.815L162.376 223.826C162.414 223.553 162.667 223.362 162.941 223.401ZM37.6163 209.819C37.8898 209.857 38.0803 210.11 38.0419 210.384L37.903 211.372C37.8645 211.645 37.6117 211.836 37.3382 211.797C37.0648 211.759 36.8743 211.506 36.9127 211.233L37.0516 210.244C37.09 209.971 37.3429 209.78 37.6163 209.819ZM162.385 227.354C162.658 227.392 162.849 227.645 162.81 227.919L162.672 228.907C162.633 229.181 162.38 229.371 162.107 229.333C161.833 229.294 161.643 229.041 161.681 228.768L161.82 227.78C161.859 227.506 162.112 227.316 162.385 227.354ZM37.0607 213.772C37.3342 213.811 37.5247 214.063 37.4863 214.337L37.3474 215.325C37.3089 215.599 37.0561 215.789 36.7826 215.751C36.5092 215.712 36.3187 215.46 36.3571 215.186L36.496 214.198C36.5344 213.924 36.7873 213.734 37.0607 213.772ZM161.829 231.307C162.103 231.346 162.293 231.599 162.255 231.872L162.116 232.861C162.078 233.134 161.825 233.324 161.551 233.286C161.278 233.248 161.087 232.995 161.126 232.721L161.265 231.733C161.303 231.46 161.556 231.269 161.829 231.307ZM36.5051 217.726C36.7786 217.764 36.9691 218.017 36.9306 218.29L36.7917 219.279C36.7533 219.552 36.5005 219.743 36.227 219.704C35.9536 219.666 35.763 219.413 35.8015 219.14L35.9404 218.151C35.9788 217.878 36.2316 217.687 36.5051 217.726ZM161.274 235.261C161.547 235.299 161.738 235.552 161.699 235.826L161.56 236.814C161.522 237.087 161.269 237.278 160.996 237.239C160.722 237.201 160.532 236.948 160.57 236.675L160.709 235.686C160.747 235.413 161 235.222 161.274 235.261ZM35.9495 221.679C36.2229 221.717 36.4135 221.97 36.375 222.244L36.2361 223.232C36.1977 223.506 35.9449 223.696 35.6714 223.658C35.398 223.619 35.2074 223.366 35.2459 223.093L35.3848 222.105C35.4232 221.831 35.676 221.641 35.9495 221.679ZM160.718 239.214C160.992 239.253 161.182 239.506 161.144 239.779L161.005 240.767C160.966 241.041 160.713 241.231 160.44 241.193C160.167 241.154 159.976 240.902 160.014 240.628L160.153 239.64C160.192 239.366 160.445 239.176 160.718 239.214ZM35.3939 225.632C35.6673 225.671 35.8579 225.924 35.8194 226.197L35.6805 227.185C35.6421 227.459 35.3892 227.649 35.1158 227.611C34.8423 227.573 34.6518 227.32 34.6902 227.046L34.8291 226.058C34.8676 225.784 35.1204 225.594 35.3939 225.632ZM160.163 243.168C160.436 243.206 160.626 243.459 160.588 243.732L160.449 244.721C160.411 244.994 160.158 245.185 159.884 245.146C159.611 245.108 159.42 244.855 159.459 244.582L159.598 243.593C159.636 243.32 159.889 243.129 160.163 243.168ZM34.8383 229.586C35.1117 229.624 35.3022 229.877 35.2638 230.15L35.1249 231.139C35.0865 231.412 34.8336 231.603 34.5602 231.564C34.2867 231.526 34.0962 231.273 34.1346 231L34.2735 230.011C34.312 229.738 34.5648 229.547 34.8383 229.586ZM159.607 247.121C159.88 247.159 160.071 247.412 160.032 247.686L159.894 248.674C159.855 248.948 159.602 249.138 159.329 249.1C159.055 249.061 158.865 248.808 158.903 248.535L159.042 247.547C159.081 247.273 159.333 247.083 159.607 247.121ZM34.2826 233.539C34.5561 233.578 34.7466 233.83 34.7082 234.104L34.6387 234.598C34.6158 234.762 34.5982 234.925 34.586 235.087C34.5653 235.362 34.3253 235.569 34.0499 235.548C33.7745 235.527 33.5681 235.287 33.5888 235.012C33.6027 234.828 33.6225 234.644 33.6485 234.459L33.7179 233.965C33.7564 233.691 34.0092 233.501 34.2826 233.539ZM159.051 251.074C159.325 251.113 159.515 251.366 159.477 251.639L159.407 252.133C159.381 252.318 159.35 252.501 159.312 252.681C159.256 252.952 158.992 253.125 158.721 253.069C158.451 253.013 158.277 252.749 158.333 252.478C158.366 252.319 158.394 252.158 158.417 251.994L158.487 251.5C158.525 251.226 158.778 251.036 159.051 251.074ZM34.3095 237.673C34.5717 237.586 34.8545 237.729 34.9412 237.991C35.0443 238.303 35.1675 238.606 35.3095 238.9C35.4297 239.149 35.3256 239.448 35.077 239.568C34.8284 239.688 34.5294 239.584 34.4092 239.335C34.2483 239.002 34.1086 238.658 33.9917 238.305C33.905 238.042 34.0473 237.76 34.3095 237.673ZM157.886 255.041C158.114 255.196 158.173 255.507 158.017 255.735C157.808 256.043 157.578 256.335 157.332 256.611C157.148 256.817 156.832 256.834 156.626 256.65C156.42 256.466 156.402 256.15 156.587 255.944C156.804 255.701 157.006 255.443 157.191 255.172C157.347 254.944 157.658 254.885 157.886 255.041ZM36.3655 241.278C36.5496 241.072 36.8657 241.054 37.0715 241.238C37.3147 241.456 37.5727 241.658 37.844 241.843C38.0722 241.999 38.131 242.31 37.9754 242.538C37.8198 242.766 37.5087 242.825 37.2806 242.669C36.9729 242.459 36.6806 242.23 36.4049 241.984C36.1991 241.8 36.1814 241.484 36.3655 241.278ZM154.916 257.939C155.036 258.188 154.932 258.487 154.684 258.607C154.351 258.768 154.006 258.907 153.653 259.024C153.391 259.111 153.108 258.969 153.021 258.706C152.935 258.444 153.077 258.161 153.339 258.075C153.651 257.972 153.955 257.848 154.248 257.706C154.497 257.586 154.796 257.69 154.916 257.939ZM39.9465 243.373C40.0025 243.103 40.267 242.929 40.5375 242.985C40.6968 243.018 40.8584 243.046 41.0219 243.069L41.5262 243.14C41.7997 243.178 41.9902 243.431 41.9518 243.704C41.9133 243.978 41.6605 244.168 41.3871 244.13L40.8828 244.059C40.6979 244.033 40.5151 244.001 40.3347 243.964C40.0643 243.908 39.8905 243.643 39.9465 243.373ZM150.896 258.966C150.876 259.241 150.636 259.448 150.36 259.427C150.176 259.413 149.992 259.393 149.807 259.367L149.303 259.297C149.029 259.258 148.839 259.005 148.877 258.732C148.916 258.458 149.169 258.268 149.442 258.306L149.946 258.377C150.11 258.4 150.273 258.418 150.435 258.43C150.711 258.451 150.917 258.691 150.896 258.966ZM43.9872 243.991C44.0256 243.717 44.2784 243.527 44.5519 243.565L45.5605 243.707C45.8339 243.745 46.0244 243.998 45.986 244.271C45.9476 244.545 45.6947 244.735 45.4213 244.697L44.4127 244.555C44.1393 244.517 43.9488 244.264 43.9872 243.991ZM48.0214 244.557C48.0598 244.284 48.3127 244.094 48.5861 244.132L49.5947 244.274C49.8682 244.312 50.0587 244.565 50.0202 244.838C49.9818 245.112 49.729 245.302 49.4555 245.264L48.447 245.122C48.1735 245.084 47.983 244.831 48.0214 244.557ZM52.0557 245.124C52.0941 244.851 52.3469 244.66 52.6204 244.699L53.6289 244.841C53.9024 244.879 54.0929 245.132 54.0545 245.405C54.016 245.679 53.7632 245.869 53.4898 245.831L52.4812 245.689C52.2077 245.651 52.0172 245.398 52.0557 245.124ZM56.0899 245.691C56.1283 245.418 56.3812 245.227 56.6546 245.266L57.6632 245.408C57.9366 245.446 58.1271 245.699 58.0887 245.972C58.0503 246.246 57.7974 246.436 57.524 246.398L56.5154 246.256C56.242 246.218 56.0515 245.965 56.0899 245.691ZM60.1241 246.258C60.1626 245.985 60.4154 245.794 60.6888 245.833L61.6974 245.975C61.9709 246.013 62.1614 246.266 62.123 246.539C62.0845 246.813 61.8317 247.003 61.5582 246.965L60.5497 246.823C60.2762 246.785 60.0857 246.532 60.1241 246.258ZM64.1584 246.825C64.1968 246.552 64.4496 246.361 64.7231 246.4L65.7316 246.542C66.0051 246.58 66.1956 246.833 66.1572 247.106C66.1188 247.38 65.8659 247.57 65.5925 247.532L64.5839 247.39C64.3105 247.352 64.1199 247.099 64.1584 246.825ZM68.1926 247.392C68.231 247.119 68.4839 246.928 68.7573 246.967L69.7659 247.109C70.0393 247.147 70.2299 247.4 70.1914 247.673C70.153 247.947 69.9002 248.137 69.6267 248.099L68.6181 247.957C68.3447 247.919 68.1542 247.666 68.1926 247.392ZM72.2268 247.959C72.2653 247.686 72.5181 247.495 72.7916 247.534L73.8001 247.676C74.0736 247.714 74.2641 247.967 74.2257 248.24C74.1872 248.514 73.9344 248.704 73.6609 248.666L72.6524 248.524C72.3789 248.486 72.1884 248.233 72.2268 247.959ZM76.2611 248.526C76.2995 248.253 76.5523 248.062 76.8258 248.101L77.8343 248.243C78.1078 248.281 78.2983 248.534 78.2599 248.807C78.2215 249.081 77.9686 249.271 77.6952 249.233L76.6866 249.091C76.4132 249.053 76.2226 248.8 76.2611 248.526ZM80.2953 249.093C80.3337 248.82 80.5866 248.629 80.86 248.668L81.8686 248.809C82.142 248.848 82.3326 249.101 82.2941 249.374C82.2557 249.648 82.0029 249.838 81.7294 249.8L80.7209 249.658C80.4474 249.62 80.2569 249.367 80.2953 249.093ZM84.3295 249.66C84.368 249.387 84.6208 249.196 84.8943 249.235L85.9028 249.376C86.1763 249.415 86.3668 249.668 86.3284 249.941C86.2899 250.215 86.0371 250.405 85.7636 250.367L84.7551 250.225C84.4816 250.187 84.2911 249.934 84.3295 249.66ZM88.3638 250.227C88.4022 249.954 88.655 249.763 88.9285 249.802L89.9371 249.943C90.2105 249.982 90.401 250.235 90.3626 250.508C90.3242 250.782 90.0713 250.972 89.7979 250.934L88.7893 250.792C88.5159 250.754 88.3253 250.501 88.3638 250.227ZM92.398 250.794C92.4364 250.521 92.6893 250.33 92.9627 250.369L93.9713 250.51C94.2447 250.549 94.4353 250.802 94.3968 251.075C94.3584 251.349 94.1056 251.539 93.8321 251.501L92.8236 251.359C92.5501 251.32 92.3596 251.068 92.398 250.794ZM96.4322 251.361C96.4707 251.088 96.7235 250.897 96.997 250.936L98.0055 251.077C98.279 251.116 98.4695 251.369 98.4311 251.642C98.3926 251.916 98.1398 252.106 97.8664 252.068L96.8578 251.926C96.5843 251.887 96.3938 251.635 96.4322 251.361ZM100.466 251.928C100.505 251.655 100.758 251.464 101.031 251.503L102.04 251.644C102.313 251.683 102.504 251.936 102.465 252.209C102.427 252.483 102.174 252.673 101.901 252.635L100.892 252.493C100.619 252.454 100.428 252.202 100.466 251.928ZM104.501 252.495C104.539 252.222 104.792 252.031 105.065 252.07L106.074 252.211C106.347 252.25 106.538 252.503 106.5 252.776C106.461 253.05 106.208 253.24 105.935 253.202L104.926 253.06C104.653 253.021 104.462 252.769 104.501 252.495ZM108.535 253.062C108.573 252.789 108.826 252.598 109.1 252.637L110.108 252.778C110.382 252.817 110.572 253.07 110.534 253.343C110.495 253.616 110.243 253.807 109.969 253.769L108.961 253.627C108.687 253.588 108.497 253.336 108.535 253.062ZM112.569 253.629C112.608 253.356 112.86 253.165 113.134 253.204L114.142 253.345C114.416 253.384 114.606 253.637 114.568 253.91C114.53 254.183 114.277 254.374 114.003 254.336L112.995 254.194C112.721 254.155 112.531 253.903 112.569 253.629ZM116.603 254.196C116.642 253.923 116.895 253.732 117.168 253.771L118.177 253.912C118.45 253.951 118.641 254.204 118.602 254.477C118.564 254.75 118.311 254.941 118.038 254.903L117.029 254.761C116.756 254.722 116.565 254.47 116.603 254.196ZM120.638 254.763C120.676 254.49 120.929 254.299 121.202 254.337L122.211 254.479C122.484 254.518 122.675 254.771 122.636 255.044C122.598 255.317 122.345 255.508 122.072 255.469L121.063 255.328C120.79 255.289 120.599 255.036 120.638 254.763ZM124.672 255.33C124.71 255.057 124.963 254.866 125.237 254.904L126.245 255.046C126.519 255.085 126.709 255.337 126.671 255.611C126.632 255.884 126.379 256.075 126.106 256.036L125.097 255.895C124.824 255.856 124.633 255.603 124.672 255.33ZM128.706 255.897C128.745 255.624 128.997 255.433 129.271 255.471L130.279 255.613C130.553 255.652 130.743 255.904 130.705 256.178C130.667 256.451 130.414 256.642 130.14 256.603L129.132 256.462C128.858 256.423 128.668 256.17 128.706 255.897ZM132.74 256.464C132.779 256.191 133.032 256 133.305 256.038L134.314 256.18C134.587 256.219 134.778 256.471 134.739 256.745C134.701 257.018 134.448 257.209 134.174 257.17L133.166 257.029C132.892 256.99 132.702 256.737 132.74 256.464ZM136.775 257.031C136.813 256.757 137.066 256.567 137.339 256.605L138.348 256.747C138.621 256.786 138.812 257.038 138.773 257.312C138.735 257.585 138.482 257.776 138.209 257.737L137.2 257.596C136.927 257.557 136.736 257.304 136.775 257.031ZM140.809 257.598C140.847 257.324 141.1 257.134 141.374 257.172L142.382 257.314C142.656 257.353 142.846 257.605 142.808 257.879C142.769 258.152 142.516 258.343 142.243 258.304L141.234 258.163C140.961 258.124 140.77 257.871 140.809 257.598ZM144.843 258.165C144.882 257.891 145.134 257.701 145.408 257.739L146.416 257.881C146.69 257.92 146.88 258.172 146.842 258.446C146.803 258.719 146.551 258.91 146.277 258.871L145.269 258.73C144.995 258.691 144.805 258.438 144.843 258.165Z" fill="#1C6F10"/>
<path d="M133.233 117.974C133.194 118.029 133.142 118.074 133.082 118.105C133.022 118.136 132.955 118.152 132.888 118.153C130.355 118.024 127.848 117.579 125.427 116.827C123.637 114.48 121.713 111.886 120.337 109.656C120.273 109.541 120.249 109.409 120.267 109.28C120.285 109.151 120.345 109.031 120.437 108.938C123.259 106.003 125.774 103.756 126.845 102.819C129.218 102.593 131.604 102.542 133.985 102.665C134.049 102.674 134.111 102.698 134.165 102.735C134.219 102.771 134.263 102.82 134.295 102.877C135.636 105.398 136.771 108.021 137.691 110.72C136.262 113.347 134.613 115.973 133.248 118.006L133.233 117.974ZM129.563 122.886C128.312 124.462 126.963 125.96 125.524 127.371C124.064 128.953 122.443 130.382 120.686 131.635C120.531 131.746 120.338 131.797 120.147 131.776C118.031 131.599 115.939 131.205 113.904 130.602C112.263 129.618 110.675 128.55 109.145 127.402C109.054 127.335 108.984 127.243 108.944 127.137C108.904 127.032 108.895 126.917 108.919 126.807C109.286 125.049 110.21 122.599 111.086 119.993C112.637 117.996 114.277 115.715 115.945 113.873C116.029 113.778 116.141 113.712 116.265 113.685C116.39 113.658 116.52 113.671 116.636 113.723C120.483 115.371 123.833 116.712 125.205 117.192C126.483 119.151 127.954 120.98 129.596 122.654C129.632 122.687 129.653 122.732 129.656 122.78C129.658 122.829 129.642 122.876 129.61 122.912L129.563 122.886ZM104.851 123.388C104.745 123.439 104.626 123.457 104.509 123.441C104.392 123.424 104.283 123.374 104.195 123.296C102.438 121.677 100.787 119.949 99.2536 118.122C98.4992 116.138 97.9808 114.074 97.7088 111.973C97.7033 111.911 97.7119 111.848 97.734 111.789C97.756 111.731 97.7909 111.678 97.8362 111.635C99.6462 110.008 101.64 108.593 103.777 107.417C105.846 108.697 108.262 109.857 110.366 110.894C110.471 110.944 110.559 111.025 110.618 111.125C110.677 111.225 110.705 111.34 110.697 111.455C110.569 114.261 110.591 117.073 110.763 119.878C108.936 121.283 106.951 122.474 104.846 123.427L104.851 123.388ZM97.3104 106.627C97.2786 105.051 97.3301 103.474 97.4645 101.903C97.7144 100.039 98.1959 98.2142 98.898 96.4687C99.0021 96.2027 99.184 95.9736 99.4204 95.8105C100.972 94.7171 102.597 93.7298 104.284 92.8555C106.296 92.1965 108.37 91.7361 110.475 91.4812C110.607 91.4624 110.743 91.4883 110.858 91.5548C110.974 91.6214 111.064 91.7246 111.113 91.8478C111.239 92.1621 111.366 92.4667 111.513 92.774C112.186 94.1697 112.928 95.5313 113.739 96.8538C112.764 99.383 112.032 101.998 111.551 104.664C111.529 104.775 111.476 104.877 111.397 104.959C111.318 105.04 111.218 105.098 111.107 105.125C107.479 105.97 104.725 106.651 103.796 106.926C101.716 106.753 99.6274 106.717 97.5435 106.818C97.4917 106.82 97.4413 106.801 97.4032 106.766C97.3651 106.731 97.3424 106.683 97.3399 106.631L97.3104 106.627ZM117.205 91.2505C117.264 91.1865 117.334 91.1347 117.413 91.0983C117.492 91.0618 117.578 91.0414 117.665 91.0383C120.375 91.0685 123.081 91.2802 125.763 91.6721C127.825 93.534 129.672 95.6175 131.268 97.8837C131.31 97.9612 131.327 98.0502 131.315 98.1375C131.302 98.2248 131.262 98.3058 131.2 98.3685C129.816 99.8792 128.284 101.25 126.626 102.462C123.585 102.756 120.227 103.322 117.542 103.795C117.414 103.819 117.282 103.801 117.165 103.744C117.048 103.686 116.954 103.593 116.896 103.477C115.828 101.325 114.887 99.1126 114.079 96.8522C114.775 94.8238 115.812 92.9272 117.146 91.2422L117.205 91.2505ZM137.57 117.624C137.555 117.629 137.54 117.629 137.524 117.626C137.509 117.623 137.495 117.617 137.482 117.608C137.47 117.598 137.46 117.586 137.453 117.572C137.447 117.558 137.443 117.543 137.444 117.528C137.706 114.598 137.822 111.777 137.828 110.74C138.132 108.384 138.186 106.002 137.987 103.633C137.988 103.617 137.992 103.602 137.999 103.588C138.007 103.574 138.017 103.562 138.03 103.552C138.043 103.542 138.058 103.536 138.073 103.533C138.089 103.529 138.105 103.53 138.121 103.533C139.267 103.829 140.297 104.459 141.076 105.343C140.288 102.654 138.871 100.185 136.94 98.1371C136.349 96.0927 135.362 94.1807 134.033 92.508C134.046 93.3857 133.846 94.253 133.447 95.036C133.431 95.0582 133.408 95.0741 133.382 95.0812C133.355 95.0883 133.327 95.0861 133.302 95.0749C130.988 93.5372 128.463 92.3366 125.806 91.5101C124.076 90.4075 122.247 89.4654 120.343 88.6957C120.333 88.6897 120.326 88.681 120.321 88.6706C120.316 88.6602 120.314 88.6487 120.316 88.6374C120.317 88.6261 120.322 88.6155 120.33 88.6069C120.337 88.5983 120.347 88.5921 120.358 88.5891C121.781 87.6904 123.379 87.0997 125.05 86.8557C121.815 86.2566 118.492 86.3213 115.287 87.0458C113.138 86.5259 110.921 86.3411 108.716 86.4981C109.174 87.2244 109.589 87.9759 109.959 88.7491C109.977 88.7941 109.977 88.8439 109.959 88.8889C109.942 88.9339 109.909 88.9709 109.865 88.9929C107.85 90.0049 105.961 91.2459 104.237 92.6908C103.091 92.6702 101.945 92.7071 100.803 92.8013C100.792 92.8023 100.781 92.8004 100.772 92.7957C100.762 92.7911 100.753 92.7839 100.747 92.7749C100.742 92.7659 100.738 92.7555 100.738 92.7448C100.737 92.7341 100.74 92.7234 100.745 92.7141C101.598 91.2387 102.645 89.883 103.861 88.683C98.494 91.7358 94.4787 96.665 92.6016 102.505C93.5204 101.031 94.6607 99.7041 95.9835 98.5705C95.99 98.5632 95.9983 98.5577 96.0075 98.5543C96.0167 98.551 96.0266 98.55 96.0363 98.5513C96.046 98.5527 96.0551 98.5564 96.0631 98.5622C96.071 98.5679 96.0774 98.5755 96.0816 98.5843C96.4143 99.7045 96.8211 100.802 97.2993 101.87C95.9792 103.468 94.8777 105.231 94.0231 107.114C94.0106 107.142 93.9918 107.166 93.9684 107.185C93.9449 107.204 93.9173 107.217 93.8877 107.224C93.0057 107.337 92.1708 107.68 91.4687 108.219C91.644 109.263 92.0189 110.265 92.5731 111.172C92.6218 111.254 92.6367 111.352 92.6147 111.445C92.1359 113.773 92.2045 116.181 92.8152 118.483C93.3519 117.06 94.1089 115.729 95.0592 114.537C95.0817 114.521 95.1094 114.515 95.1367 114.519C95.164 114.522 95.1888 114.536 95.2062 114.558C96.4278 115.836 97.7193 117.047 99.0747 118.186C99.6211 120.321 100.301 122.421 101.11 124.474C101.119 124.484 101.126 124.497 101.13 124.51C101.134 124.523 101.135 124.537 101.133 124.551C101.131 124.565 101.126 124.578 101.119 124.59C101.111 124.601 101.101 124.611 101.09 124.619C99.3979 125.05 97.6142 124.978 95.9605 124.412C95.9605 124.412 97.5859 127.073 103.383 128.926C104.627 131.1 106.532 132.832 108.826 133.873C108.826 133.873 108.245 133.03 108.472 130.205C108.472 130.191 108.476 130.178 108.482 130.165C108.488 130.153 108.497 130.142 108.507 130.133C108.518 130.125 108.53 130.118 108.544 130.114C108.557 130.111 108.571 130.11 108.585 130.112C110.055 130.319 112.047 130.658 113.899 130.78C114.85 131.806 115.892 132.747 117.013 133.59C117.026 133.602 117.035 133.617 117.041 133.633C117.047 133.649 117.049 133.667 117.046 133.684C117.044 133.701 117.037 133.717 117.027 133.731C117.017 133.745 117.004 133.757 116.988 133.765C115.653 134.393 114.198 134.734 112.719 134.766C115.954 135.283 119.258 135.162 122.442 134.41C125.626 133.658 128.625 132.289 131.269 130.383C129.279 131.268 127.14 131.779 124.959 131.889C124.943 131.888 124.927 131.884 124.913 131.877C124.899 131.869 124.887 131.859 124.877 131.846C124.867 131.833 124.86 131.819 124.857 131.803C124.854 131.788 124.854 131.772 124.858 131.756C125.323 130.385 125.61 128.96 125.714 127.516C128.149 127.261 130.516 126.568 132.699 125.472C132.715 125.461 132.735 125.456 132.755 125.459C132.776 125.462 132.794 125.472 132.806 125.488C133.5 126.102 134.055 126.854 134.436 127.694C134.436 127.694 135.796 126.264 136.709 122.615C138.695 120.692 140.167 118.31 140.992 115.683C140.095 116.674 138.921 117.379 137.618 117.71L137.57 117.624ZM110.802 150.682C108.609 150.357 106.372 150.505 104.245 151.116C102.118 151.726 100.151 152.785 98.4789 154.22L99.1661 155.306C100.711 153.944 102.537 152.932 104.52 152.34C106.502 151.749 108.591 151.592 110.644 151.88C112.696 152.169 114.661 152.896 116.404 154.011C118.146 155.125 119.623 156.602 120.732 158.337L121.702 157.484C120.49 155.644 118.891 154.084 117.015 152.91C115.139 151.737 113.029 150.978 110.831 150.686L110.802 150.682ZM99.6487 149.738C99.3449 149.931 98.9769 150 98.6221 149.93C98.2202 149.873 98.0037 149.635 97.6713 149.084L95.7529 145.947L94.3717 146.742L96.4605 150.16C96.6383 150.486 96.8823 150.772 97.177 151.001C97.4718 151.229 97.8109 151.395 98.1731 151.488L98.428 151.524C99.1949 151.603 99.9649 151.416 100.607 150.996C101.249 150.577 101.724 149.949 101.951 149.221C102.039 148.863 102.051 148.49 101.985 148.126C101.919 147.763 101.776 147.417 101.567 147.11L99.4786 143.693L98.0974 144.487L100.016 147.624C100.156 147.794 100.257 147.992 100.31 148.205C100.363 148.418 100.367 148.639 100.323 148.854C100.275 149.027 100.193 149.188 100.08 149.329C99.9675 149.469 99.8273 149.586 99.668 149.671L99.6487 149.738ZM109.442 142.008L105.289 142.255C105.202 142.256 105.117 142.275 105.039 142.31C104.96 142.345 104.889 142.395 104.83 142.457C104.774 142.522 104.731 142.597 104.704 142.678C104.678 142.759 104.667 142.845 104.674 142.93L104.933 146.921C104.934 147.201 104.994 147.478 105.11 147.735C105.225 147.991 105.393 148.221 105.603 148.409C105.893 148.635 106.24 148.776 106.606 148.817C106.826 148.848 107.05 148.856 107.272 148.842L109.862 148.691L109.767 147.165L107.247 147.315C106.733 147.342 106.58 147.222 106.535 146.691L106.515 146.263L109.428 146.089L109.34 144.584L106.417 144.757L106.349 143.669L109.544 143.486L109.442 142.008ZM116.983 145.253L119.317 146.214L119.905 144.803L117.504 143.823C117.253 143.684 116.974 143.601 116.687 143.58C116.401 143.558 116.113 143.598 115.844 143.698C115.575 143.797 115.331 143.954 115.13 144.156C114.929 144.358 114.774 144.602 114.678 144.87L113.152 148.61C113.113 148.687 113.091 148.771 113.087 148.858C113.084 148.944 113.099 149.03 113.133 149.11C113.166 149.19 113.217 149.262 113.281 149.32C113.345 149.379 113.421 149.424 113.504 149.451L114.392 149.822L115.401 147.404L118.094 148.514L118.68 147.123L115.977 146.011L116.143 145.609C116.367 145.087 116.54 145.062 117.013 145.257L116.983 145.253ZM129.073 150.561L130.071 149.643C129.713 149.158 129.329 148.689 128.92 148.236C124.625 143.463 118.762 140.35 112.375 139.453C105.988 138.555 99.4941 139.931 94.0508 143.335C93.5454 143.66 93.0372 144.003 92.5557 144.371L93.2627 145.528C93.754 145.162 94.2636 144.809 94.7913 144.467C99.961 141.242 106.125 139.939 112.187 140.791C118.249 141.643 123.815 144.594 127.896 149.12C128.309 149.593 128.701 150.074 129.073 150.561ZM121.786 154.826L122.196 153.895L121.134 152.846L122.21 152.305L122.702 152.79L123.634 150.775L119.638 152.606L118.257 151.552L124.518 148.685C124.66 148.596 124.83 148.56 124.997 148.584C125.164 148.607 125.317 148.688 125.43 148.813L125.647 149.041C125.769 149.152 125.849 149.301 125.874 149.463C125.898 149.624 125.866 149.79 125.782 149.93L122.958 156.158L121.786 154.826ZM90.4171 181.78L86.1822 181.185L86.6346 177.966L89.154 178.32L90.0704 179.339L90.5324 176.052L89.3706 176.778L86.8513 176.424L87.2342 173.7L91.322 174.274L92.331 175.701L92.5849 172.899L83.8701 171.675L84.5377 172.757L83.3222 181.406L82.3821 182.262L91.4988 183.544L92.1739 180.376L90.4171 181.78ZM95.0223 160.606L96.9662 168.611L98.6425 168.847L102.495 161.567L102.036 168.315L100.851 169.137L105.429 169.781L104.683 168.687L105.253 159.938L106.085 159.066L102.291 158.533L98.7156 165.268L96.929 157.779L93.0863 157.239L93.7245 158.318L92.0567 166.913L90.9401 167.745L94.6946 168.272L93.8506 167.165L95.0223 160.606ZM79.4014 180.212L75.7253 179.695L76.8563 171.648L77.9728 170.816L73.4341 170.178L74.0919 171.26L72.8764 179.908L71.9461 180.766L71.9393 180.815L80.458 182.012L81.3384 178.734L79.4014 180.212ZM73.1409 165.223L77.4639 165.831L76.7964 164.748L78.0132 156.09L78.9533 155.233L74.6302 154.626L75.2684 155.704L74.816 158.923L70.9733 158.383L71.4257 155.164L72.3363 154.303L68.0133 153.696L68.6809 154.778L67.464 163.437L66.5239 164.293L70.847 164.901L70.2088 163.822L70.7348 160.08L74.5775 160.62L74.0515 164.362L73.1409 165.223ZM138.706 188.567L134.471 187.971L134.924 184.752L137.443 185.107L138.359 186.125L138.821 182.838L137.66 183.565L135.14 183.211L135.523 180.486L139.601 181.059L140.61 182.487L140.864 179.685L132.198 178.467L132.866 179.549L131.65 188.198L130.71 189.054L139.798 190.332L140.473 187.164L138.706 188.567ZM100.169 180.461L99.5517 176.034L97.4145 180.074L100.169 180.461ZM103.515 184.254L104.261 185.347L99.6632 184.701L100.682 183.855L100.425 182.129L96.6308 181.595L95.8195 183.172L96.5165 184.259L92.9188 183.753L93.8981 182.902L98.427 174.719L97.9358 173.661L101.573 174.173L103.515 184.254ZM61.7095 162.203C59.5039 161.893 58.4029 159.484 58.6714 157.574C59.0011 155.227 60.5104 153.877 62.3534 154.136C62.8237 154.196 63.284 154.317 63.7222 154.497L65.0941 156.756L65.4479 153.385C64.5941 152.958 63.6733 152.678 62.7252 152.557C58.8041 152.006 56.1676 154.335 55.7384 157.389C55.6128 158.149 55.6469 158.926 55.8387 159.673C56.0304 160.42 56.3757 161.12 56.8528 161.73C57.33 162.34 57.9288 162.846 58.6119 163.218C59.295 163.589 60.0477 163.817 60.8229 163.888C62.0724 164.047 63.3405 163.837 64.4667 163.282L64.8703 161.549C63.9035 162.082 62.7933 162.306 61.6913 162.19L61.7095 162.203ZM123.256 172.247L122.618 171.168L123.835 162.51L124.745 161.649L120.422 161.042L121.09 162.124L119.873 170.782L118.933 171.639L123.256 172.247ZM112.313 181.328L113.245 182.447L112.965 184.445C112.71 184.643 112.417 184.786 112.103 184.865C111.788 184.944 111.461 184.956 111.141 184.9C109.239 184.633 108.523 182.189 108.793 180.269C109.089 178.165 110.407 176.541 112.612 176.851C113.215 176.916 113.804 177.079 114.354 177.333L115.795 179.385L116.096 176.461C115.115 175.813 113.994 175.405 112.825 175.269C109.217 174.762 106.351 176.594 105.841 180.22C105.414 183.255 107.022 186.042 110.09 186.473C111.409 186.699 112.764 186.486 113.944 185.868L115.129 187.181L115.746 182.789L116.735 181.939L112.207 181.303L112.313 181.328ZM111.69 165.42C112.045 165.576 112.42 165.682 112.805 165.735C113.079 165.815 113.368 165.833 113.65 165.787C113.931 165.74 114.199 165.631 114.431 165.468C114.664 165.305 114.856 165.091 114.993 164.844C115.13 164.596 115.209 164.321 115.223 164.038C115.42 162.633 114.682 161.837 113.143 161.62L112.242 161.494L111.69 165.42ZM108.357 169.214L109.574 160.555L108.907 159.473L113.994 160.188C117.082 160.622 118.298 162.216 118.001 164.33C117.704 166.444 115.816 167.642 113.581 167.327C112.885 167.245 112.2 167.085 111.538 166.853L111.149 169.626L112.13 170.752L107.385 170.085L108.357 169.214ZM134.489 169.277C134.748 167.435 134.475 164.401 132.093 164.066C130.201 163.8 129.388 165.604 129.209 166.874C128.947 168.736 129.312 171.832 131.596 172.153C133.243 172.385 134.254 170.955 134.492 169.258L134.489 169.277ZM130.958 173.774C130.206 173.659 129.485 173.395 128.838 172.997C128.19 172.6 127.63 172.078 127.19 171.463C126.75 170.847 126.44 170.151 126.278 169.415C126.116 168.679 126.106 167.919 126.247 167.18C126.337 166.445 126.575 165.737 126.949 165.097C127.322 164.457 127.822 163.899 128.419 163.456C129.016 163.012 129.698 162.693 130.424 162.518C131.15 162.342 131.904 162.313 132.642 162.433C134.116 162.712 135.426 163.545 136.297 164.756C137.167 165.967 137.532 167.463 137.314 168.931C137.096 170.399 136.312 171.725 135.127 172.631C133.942 173.537 132.447 173.954 130.956 173.793L130.958 173.774ZM126.751 177.681L127.497 178.775L126.646 184.825C126.401 186.57 125.477 186.885 124.065 186.687C122.654 186.489 121.839 185.959 122.088 184.184L122.94 178.125L123.958 177.279L119.459 176.647L120.126 177.729L119.276 183.779C118.867 186.688 120.21 187.945 123.396 188.392C126.337 188.806 127.904 188.037 128.313 185.129L129.174 179.001L130.095 178.142L126.683 177.662L126.751 177.681ZM147.045 181.868C147.073 181.612 147.024 181.353 146.905 181.124C146.785 180.894 146.6 180.705 146.372 180.578C146.145 180.452 145.885 180.395 145.625 180.414C145.365 180.433 145.117 180.527 144.911 180.685C144.706 180.843 144.552 181.057 144.469 181.302C144.386 181.546 144.378 181.809 144.445 182.058C144.513 182.308 144.653 182.532 144.848 182.703C145.043 182.875 145.285 182.985 145.543 183.022C145.719 183.048 145.899 183.039 146.071 182.994C146.243 182.95 146.404 182.871 146.544 182.764C146.685 182.656 146.801 182.521 146.887 182.367C146.973 182.213 147.027 182.043 147.045 181.868ZM147.368 181.914C147.329 182.238 147.192 182.544 146.976 182.79C146.76 183.037 146.474 183.215 146.156 183.3C145.837 183.385 145.499 183.374 145.186 183.269C144.873 183.163 144.598 182.968 144.397 182.707C144.196 182.447 144.078 182.134 144.058 181.807C144.038 181.481 144.116 181.156 144.284 180.874C144.451 180.593 144.699 180.367 144.997 180.226C145.295 180.086 145.629 180.036 145.956 180.084C146.17 180.111 146.377 180.181 146.565 180.288C146.752 180.395 146.916 180.538 147.048 180.708C147.179 180.878 147.275 181.073 147.33 181.279C147.385 181.486 147.398 181.702 147.368 181.914ZM145.748 181.567C145.983 181.6 146.199 181.631 146.239 181.34C146.28 181.049 146.072 181.039 145.866 181.011L145.484 180.957L145.405 181.519L145.748 181.567ZM145.98 181.837L146.386 182.715L146.072 182.671L145.694 181.807L145.37 181.762L145.259 182.557L144.974 182.517L145.233 180.674L145.871 180.764C146.312 180.826 146.504 181.021 146.454 181.38C146.447 181.445 146.428 181.509 146.396 181.566C146.365 181.624 146.323 181.675 146.271 181.717C146.22 181.758 146.161 181.789 146.097 181.808C146.034 181.827 145.967 181.833 145.901 181.826L145.98 181.837ZM147.554 164.944L148.398 166.051L147.606 171.684L144.185 164.45L140.263 163.899L140.931 164.982L139.714 173.64L138.774 174.497L142.352 175L141.439 173.883L142.43 166.834L146.741 175.636L148.78 175.923L150.143 166.227L151.073 165.369L147.515 164.869L147.554 164.944ZM157.915 170.533C156.029 169.724 155.483 169.41 155.609 168.518C155.734 167.626 157.114 167.484 157.967 167.604C158.631 167.685 159.28 167.866 159.89 168.141L161.272 170.115L161.556 167.1C160.558 166.551 159.466 166.193 158.336 166.044C155.777 165.684 153.194 166.211 152.84 168.732C152.612 170.351 153.612 171.49 155.968 172.504C157.798 173.285 158.681 173.755 158.547 174.715C158.412 175.675 156.937 175.853 155.986 175.719C155.269 175.623 154.569 175.421 153.911 175.121L152.548 172.873L152.217 176.08C153.335 176.731 154.577 177.145 155.865 177.294C158.61 177.68 161.074 176.86 161.397 174.562C161.72 172.264 160.278 171.567 157.905 170.531L157.915 170.533ZM83.1585 162.37L85.9229 162.758L85.2427 158.352L83.1585 162.37ZM82.2578 166.574L78.6602 166.068L79.6493 165.218L84.1697 157.024L83.6785 155.967L87.3252 156.479L89.2465 166.636L89.9925 167.73L85.4048 167.085L86.4233 166.24L86.1577 164.502L82.364 163.968L81.5513 165.555L82.2483 166.642L82.2578 166.574Z" fill="#1F7211"/>
</g>
<defs>
<filter id="filter0_i_1006_5708" x="18.5516" y="5.55155" width="184.844" height="268.912" filterUnits="userSpaceOnUse" color-interpolation-filters="sRGB">
<feFlood flood-opacity="0" result="BackgroundImageFix"/>
<feBlend mode="normal" in="SourceGraphic" in2="BackgroundImageFix" result="shape"/>
<feColorMatrix in="SourceAlpha" type="matrix" values="0 0 0 0 0 0 0 0 0 0 0 0 0 0 0 0 0 0 127 0" result="hardAlpha"/>
<feOffset dy="-1"/>
<feGaussianBlur stdDeviation="0.5"/>
<feComposite in2="hardAlpha" operator="arithmetic" k2="-1" k3="1"/>
<feColorMatrix type="matrix" values="0 0 0 0 0.0901961 0 0 0 0 0.466667 0 0 0 0 0.0509804 0 0 0 0.2 0"/>
<feBlend mode="normal" in2="shape" result="effect1_innerShadow_1006_5708"/>
</filter>
<linearGradient id="paint0_linear_1006_5708" x1="217.779" y1="53.0552" x2="108.088" y2="139.805" gradientUnits="userSpaceOnUse">
<stop offset="0.322357" stop-color="#C4C4C4" stop-opacity="0"/>
<stop offset="1" stop-color="#C4C4C4"/>
</linearGradient>
</defs>
</svg>
