<svg width="186" height="269" viewBox="0 0 186 269" fill="none" xmlns="http://www.w3.org/2000/svg">
<g filter="url(#filter0_i_183_1914)">
<mask id="path-1-outside-1_183_1914" maskUnits="userSpaceOnUse" x="-1.22475" y="-1.41855" width="188.702" height="272.11" fill="black">
<rect fill="white" x="-1.22475" y="-1.41855" width="188.702" height="272.11"/>
<path fill-rule="evenodd" clip-rule="evenodd" d="M34.0182 12.7236C34.9405 6.16064 41.0085 1.58805 47.5715 2.51041L173.176 20.163C179.739 21.0853 184.311 27.1533 183.389 33.7163L168.759 137.815C164.877 137.269 161.288 139.974 160.742 143.856C160.197 147.738 162.901 151.327 166.783 151.873L152.153 255.973C151.231 262.535 145.163 267.108 138.6 266.186L12.9952 248.533C6.43231 247.611 1.85973 241.543 2.78209 234.98L17.4122 130.88C21.2944 131.426 24.8837 128.721 25.4293 124.839C25.9749 120.957 23.2702 117.368 19.3881 116.822L34.0182 12.7236Z"/>
</mask>
<path fill-rule="evenodd" clip-rule="evenodd" d="M34.0182 12.7236C34.9405 6.16064 41.0085 1.58805 47.5715 2.51041L173.176 20.163C179.739 21.0853 184.311 27.1533 183.389 33.7163L168.759 137.815C164.877 137.269 161.288 139.974 160.742 143.856C160.197 147.738 162.901 151.327 166.783 151.873L152.153 255.973C151.231 262.535 145.163 267.108 138.6 266.186L12.9952 248.533C6.43231 247.611 1.85973 241.543 2.78209 234.98L17.4122 130.88C21.2944 131.426 24.8837 128.721 25.4293 124.839C25.9749 120.957 23.2702 117.368 19.3881 116.822L34.0182 12.7236Z" fill="white"/>
<path d="M34.0182 12.7236L35.9988 13.0019L34.0182 12.7236ZM168.759 137.815L168.481 139.795L170.461 140.073L170.74 138.093L168.759 137.815ZM166.783 151.873L168.764 152.151L169.042 150.171L167.062 149.893L166.783 151.873ZM2.78214 234.98L4.76267 235.258L2.78214 234.98ZM17.4123 130.88L17.6906 128.9L15.7101 128.622L15.4317 130.602L17.4123 130.88ZM19.3881 116.822L17.4076 116.544L17.1293 118.524L19.1098 118.803L19.3881 116.822ZM47.8499 0.529882C40.1931 -0.546203 33.1138 4.78848 32.0377 12.4452L35.9988 13.0019C36.7674 7.53281 41.8241 3.72232 47.2932 4.49095L47.8499 0.529882ZM173.454 18.1824L47.8499 0.529882L47.2932 4.49095L172.898 22.1435L173.454 18.1824ZM185.37 33.9946C186.446 26.3379 181.111 19.2585 173.454 18.1824L172.898 22.1435C178.367 22.9121 182.177 27.9688 181.409 33.4379L185.37 33.9946ZM170.74 138.093L185.37 33.9946L181.409 33.4379L166.779 137.536L170.74 138.093ZM162.723 144.134C163.115 141.346 165.693 139.403 168.481 139.795L169.037 135.834C164.061 135.135 159.461 138.602 158.762 143.578L162.723 144.134ZM167.062 149.893C164.273 149.501 162.331 146.923 162.723 144.134L158.762 143.578C158.062 148.554 161.529 153.154 166.505 153.854L167.062 149.893ZM154.134 256.251L168.764 152.151L164.803 151.595L150.173 255.694L154.134 256.251ZM138.321 268.166C145.978 269.242 153.058 263.908 154.134 256.251L150.173 255.694C149.404 261.163 144.347 264.974 138.878 264.205L138.321 268.166ZM12.7169 250.514L138.321 268.166L138.878 264.205L13.2736 246.553L12.7169 250.514ZM0.801602 234.701C-0.274482 242.358 5.06019 249.438 12.7169 250.514L13.2736 246.553C7.80453 245.784 3.99404 240.727 4.76267 235.258L0.801602 234.701ZM15.4317 130.602L0.801602 234.701L4.76267 235.258L19.3928 131.159L15.4317 130.602ZM23.4489 124.561C23.057 127.349 20.4789 129.292 17.6906 128.9L17.1339 132.861C22.1099 133.56 26.7106 130.093 27.4099 125.118L23.4489 124.561ZM19.1098 118.803C21.8981 119.194 23.8407 121.773 23.4489 124.561L27.4099 125.118C28.1092 120.142 24.6424 115.541 19.6665 114.842L19.1098 118.803ZM32.0377 12.4452L17.4076 116.544L21.3687 117.1L35.9988 13.0019L32.0377 12.4452Z" fill="#1C6F10" mask="url(#path-1-outside-1_183_1914)"/>
<mask id="mask0_183_1914" style="mask-type:alpha" maskUnits="userSpaceOnUse" x="2" y="2" width="182" height="265">
<path fill-rule="evenodd" clip-rule="evenodd" d="M34.0182 12.7236C34.9405 6.16064 41.0085 1.58805 47.5714 2.51041L173.176 20.163C179.739 21.0853 184.311 27.1533 183.389 33.7163L168.759 137.815C164.877 137.27 161.287 139.975 160.742 143.857C160.196 147.739 162.901 151.328 166.783 151.874L152.153 255.973C151.231 262.535 145.163 267.108 138.6 266.186L12.9952 248.533C6.43229 247.611 1.85972 241.543 2.78207 234.98L17.4122 130.881C21.2942 131.427 24.8834 128.722 25.429 124.84C25.9746 120.958 23.2699 117.368 19.388 116.823L34.0182 12.7236Z" fill="white"/>
</mask>
<g mask="url(#mask0_183_1914)">
<g style="mix-blend-mode:multiply">
<rect x="35.9349" y="-0.916687" width="150.839" height="125.995" transform="rotate(8 35.9349 -0.916687)" fill="url(#paint0_linear_183_1914)" fill-opacity="0.3"/>
</g>
</g>
<rect x="46.2607" y="14.8705" width="125.995" height="223.596" rx="8" transform="rotate(8 46.2607 14.8705)" stroke="#1C6F10" stroke-linecap="round" stroke-dasharray="1 3"/>
<path d="M115.345 111.814C115.306 111.869 115.254 111.914 115.194 111.945C115.134 111.976 115.067 111.993 114.999 111.993C112.467 111.864 109.96 111.419 107.538 110.668C105.749 108.32 103.824 105.726 102.449 103.496C102.385 103.381 102.361 103.25 102.379 103.12C102.397 102.991 102.457 102.871 102.549 102.779C105.371 99.8431 107.886 97.5962 108.957 96.6591C111.329 96.4331 113.716 96.3819 116.096 96.5057C116.161 96.5144 116.223 96.5381 116.277 96.5749C116.331 96.6116 116.375 96.6605 116.407 96.7173C117.747 99.2388 118.883 101.862 119.803 104.561C118.374 107.188 116.725 109.813 115.36 111.846L115.345 111.814ZM111.675 116.727C110.423 118.302 109.075 119.8 107.636 121.211C106.176 122.793 104.555 124.222 102.798 125.475C102.642 125.586 102.45 125.637 102.259 125.617C100.143 125.439 98.0509 125.046 96.0158 124.443C94.3748 123.458 92.7866 122.39 91.2574 121.243C91.166 121.175 91.0961 121.083 91.056 120.978C91.0159 120.872 91.0073 120.757 91.0312 120.647C91.3982 118.89 92.3223 116.439 93.1984 113.833C94.7486 111.836 96.3887 109.555 98.057 107.714C98.1404 107.618 98.2527 107.553 98.3771 107.526C98.5015 107.498 98.6315 107.512 98.7479 107.564C102.595 109.212 105.945 110.553 107.317 111.032C108.595 112.991 110.066 114.821 111.708 116.494C111.744 116.527 111.765 116.572 111.768 116.621C111.77 116.669 111.754 116.716 111.721 116.753L111.675 116.727ZM86.9633 117.228C86.8572 117.279 86.738 117.298 86.621 117.281C86.504 117.265 86.3945 117.214 86.3065 117.136C84.5495 115.518 82.8991 113.79 81.3655 111.963C80.6111 109.978 80.0927 107.915 79.8207 105.813C79.8152 105.751 79.8238 105.688 79.8459 105.63C79.8679 105.571 79.9028 105.518 79.9481 105.475C81.7581 103.848 83.7514 102.433 85.889 101.258C87.9584 102.537 90.3744 103.697 92.4778 104.735C92.5832 104.785 92.6712 104.865 92.7302 104.965C92.7892 105.065 92.8166 105.18 92.8089 105.295C92.6809 108.102 92.7029 110.913 92.8747 113.718C91.0482 115.124 89.0627 116.315 86.9579 117.267L86.9633 117.228ZM79.4223 100.467C79.3905 98.8909 79.442 97.314 79.5764 95.7433C79.8263 93.8797 80.3078 92.0545 81.0099 90.309C81.114 90.043 81.2959 89.8139 81.5323 89.6508C83.0835 88.5574 84.7085 87.5701 86.396 86.6958C88.4083 86.0368 90.482 85.5764 92.5871 85.3215C92.7194 85.3027 92.8545 85.3286 92.9703 85.3952C93.0861 85.4617 93.176 85.5649 93.2253 85.6881C93.3511 86.0024 93.4782 86.307 93.625 86.6143C94.2976 88.01 95.0404 89.3717 95.8506 90.6941C94.8759 93.2233 94.1436 95.838 93.6633 98.5041C93.6411 98.6149 93.5875 98.7171 93.5087 98.7988C93.43 98.8805 93.3295 98.9384 93.2187 98.9657C89.5912 99.8104 86.8364 100.491 85.9081 100.766C83.8281 100.594 81.7393 100.558 79.6554 100.658C79.6036 100.66 79.5532 100.641 79.5151 100.606C79.477 100.571 79.4543 100.523 79.4518 100.472L79.4223 100.467ZM99.3172 85.0908C99.3755 85.0268 99.4462 84.9751 99.5252 84.9386C99.6041 84.9022 99.6897 84.8817 99.7768 84.8786C102.487 84.9088 105.193 85.1205 107.875 85.5124C109.937 87.3743 111.784 89.4578 113.38 91.724C113.422 91.8016 113.439 91.8905 113.426 91.9778C113.414 92.0651 113.374 92.1461 113.312 92.2088C111.928 93.7196 110.395 95.0906 108.738 96.302C105.697 96.5964 102.339 97.1626 99.6534 97.6355C99.5257 97.6596 99.3935 97.6415 99.2769 97.584C99.1604 97.5266 99.0661 97.4329 99.0083 97.3174C97.9396 95.165 96.9988 92.9529 96.1907 90.6925C96.8866 88.6641 97.9236 86.7675 99.2583 85.0825L99.3172 85.0908ZM119.682 111.465C119.667 111.469 119.651 111.47 119.636 111.467C119.621 111.464 119.607 111.457 119.594 111.448C119.582 111.438 119.572 111.426 119.565 111.412C119.559 111.399 119.555 111.383 119.556 111.368C119.818 108.438 119.934 105.617 119.94 104.58C120.244 102.224 120.298 99.8421 120.099 97.4735C120.1 97.4577 120.104 97.4422 120.111 97.4282C120.119 97.4141 120.129 97.4019 120.142 97.3923C120.155 97.3828 120.17 97.3762 120.185 97.373C120.201 97.3697 120.217 97.37 120.233 97.3737C121.379 97.6689 122.409 98.2997 123.188 99.1831C122.4 96.4944 120.983 94.0256 119.052 91.9775C118.461 89.933 117.474 88.021 116.144 86.3483C116.158 87.226 115.958 88.0933 115.559 88.8763C115.543 88.8985 115.52 88.9145 115.494 88.9215C115.467 88.9286 115.439 88.9264 115.414 88.9152C113.1 87.3775 110.575 86.1769 107.918 85.3504C106.188 84.2478 104.359 83.3057 102.455 82.536C102.445 82.53 102.437 82.5213 102.433 82.5109C102.428 82.5006 102.426 82.4891 102.427 82.4777C102.429 82.4664 102.434 82.4558 102.442 82.4472C102.449 82.4386 102.459 82.4324 102.47 82.4294C103.892 81.5307 105.491 80.94 107.162 80.696C103.927 80.0969 100.604 80.1616 97.399 80.8861C95.2499 80.3662 93.033 80.1814 90.8283 80.3384C91.2858 81.0647 91.7009 81.8162 92.0714 82.5894C92.0888 82.6345 92.0888 82.6843 92.0714 82.7293C92.054 82.7742 92.0205 82.8113 91.9771 82.8332C89.9619 83.8452 88.0732 85.0862 86.3492 86.5311C85.2031 86.5105 84.0568 86.5474 82.9149 86.6416C82.9041 86.6426 82.8932 86.6407 82.8834 86.6361C82.8737 86.6314 82.8653 86.6242 82.8594 86.6152C82.8534 86.6063 82.8501 86.5958 82.8497 86.5851C82.8493 86.5744 82.8519 86.5638 82.8571 86.5544C83.7094 85.079 84.7573 83.7233 85.9728 82.5233C80.6059 85.5761 76.5906 90.5053 74.7135 96.3451C75.6323 94.8711 76.7726 93.5445 78.0955 92.4108C78.1019 92.4035 78.1102 92.398 78.1194 92.3947C78.1286 92.3913 78.1385 92.3903 78.1482 92.3916C78.1579 92.393 78.1671 92.3967 78.175 92.4025C78.1829 92.4082 78.1893 92.4158 78.1935 92.4246C78.5262 93.5448 78.933 94.6423 79.4112 95.7101C78.0911 97.308 76.9896 99.0713 76.135 100.955C76.1225 100.982 76.1037 101.006 76.0803 101.025C76.0568 101.044 76.0292 101.057 75.9996 101.064C75.1176 101.177 74.2827 101.52 73.5806 102.059C73.7559 103.103 74.1308 104.106 74.6851 105.012C74.7337 105.095 74.7486 105.192 74.7266 105.285C74.2478 107.614 74.3164 110.022 74.9271 112.323C75.4638 110.9 76.2209 109.569 77.1711 108.377C77.1936 108.362 77.2213 108.355 77.2486 108.359C77.2759 108.363 77.3008 108.377 77.3181 108.398C78.5398 109.676 79.8312 110.888 81.1866 112.026C81.733 114.162 82.4127 116.261 83.2219 118.314C83.2311 118.325 83.2379 118.337 83.2419 118.35C83.2458 118.364 83.2469 118.378 83.2449 118.391C83.243 118.405 83.2381 118.418 83.2307 118.43C83.2232 118.442 83.2132 118.452 83.2015 118.459C81.5099 118.89 79.7261 118.818 78.0724 118.253C78.0724 118.253 79.6978 120.913 85.4952 122.766C86.7386 124.94 88.6435 126.672 90.9377 127.714C90.9377 127.714 90.3565 126.871 90.5836 124.045C90.5842 124.031 90.5876 124.018 90.5937 124.006C90.5999 123.993 90.6085 123.982 90.6192 123.974C90.6298 123.965 90.6422 123.958 90.6556 123.955C90.6689 123.951 90.6829 123.95 90.6967 123.952C92.1671 124.159 94.1587 124.498 96.0109 124.62C96.9621 125.647 98.0042 126.587 99.1247 127.43C99.1375 127.442 99.1472 127.457 99.153 127.473C99.1589 127.49 99.1607 127.507 99.1583 127.524C99.1559 127.541 99.1493 127.558 99.1392 127.572C99.1291 127.586 99.1157 127.597 99.1002 127.605C97.7653 128.233 96.3103 128.575 94.8308 128.607C98.0658 129.124 101.37 129.002 104.554 128.25C107.737 127.498 110.737 126.129 113.381 124.223C111.391 125.108 109.252 125.619 107.071 125.729C107.055 125.729 107.039 125.724 107.025 125.717C107.011 125.71 106.999 125.699 106.989 125.687C106.979 125.674 106.972 125.659 106.969 125.644C106.966 125.628 106.966 125.612 106.97 125.597C107.435 124.225 107.722 122.8 107.826 121.357C110.261 121.101 112.628 120.408 114.81 119.313C114.827 119.301 114.847 119.296 114.867 119.299C114.887 119.302 114.906 119.312 114.918 119.328C115.612 119.942 116.167 120.694 116.548 121.534C116.548 121.534 117.908 120.104 118.821 116.455C120.807 114.532 122.279 112.151 123.104 109.523C122.207 110.514 121.033 111.22 119.73 111.551L119.682 111.465ZM92.9139 144.523C90.7208 144.198 88.484 144.345 86.357 144.956C84.2299 145.567 82.2628 146.626 80.5908 148.061L81.278 149.146C82.8226 147.784 84.6494 146.772 86.6314 146.181C88.6135 145.589 90.7033 145.432 92.7555 145.72C94.8078 146.009 96.7733 146.736 98.5155 147.851C100.258 148.966 101.735 150.442 102.844 152.177L103.814 151.324C102.602 149.484 101.003 147.924 99.1268 146.751C97.2504 145.577 95.141 144.819 92.9433 144.527L92.9139 144.523ZM81.7606 143.578C81.4569 143.771 81.0888 143.84 80.734 143.77C80.3321 143.714 80.1156 143.475 79.7832 142.924L77.8648 139.788L76.4836 140.582L78.5724 144C78.7502 144.326 78.9942 144.612 79.2889 144.841C79.5837 145.07 79.9228 145.235 80.285 145.328L80.5399 145.364C81.3068 145.443 82.0768 145.257 82.719 144.837C83.3612 144.417 83.8359 143.79 84.0624 143.061C84.1509 142.703 84.1625 142.33 84.0965 141.967C84.0305 141.603 83.8884 141.257 83.6793 140.951L81.5905 137.533L80.2093 138.327L82.1276 141.464C82.2681 141.634 82.3686 141.832 82.4217 142.045C82.4749 142.258 82.4793 142.48 82.4346 142.694C82.387 142.867 82.3044 143.029 82.1919 143.169C82.0794 143.31 81.9392 143.426 81.7799 143.512L81.7606 143.578ZM91.5539 135.848L87.4006 136.095C87.3143 136.097 87.2293 136.115 87.1505 136.15C87.0718 136.185 87.001 136.235 86.9423 136.298C86.886 136.362 86.8432 136.437 86.8163 136.518C86.7895 136.599 86.7791 136.685 86.7859 136.77L87.0447 140.761C87.046 141.042 87.1063 141.319 87.2218 141.575C87.3372 141.831 87.5053 142.061 87.7152 142.25C88.0048 142.475 88.3519 142.616 88.7175 142.657C88.9383 142.688 89.1616 142.697 89.3839 142.682L91.9741 142.532L91.8787 141.006L89.3585 141.156C88.8449 141.182 88.6919 141.062 88.6465 140.532L88.6267 140.104L91.5401 139.93L91.4517 138.424L88.5285 138.597L88.4614 137.51L91.6561 137.326L91.5539 135.848ZM99.095 139.093L101.429 140.054L102.017 138.644L99.6158 137.664C99.3646 137.525 99.0859 137.441 98.7993 137.42C98.5126 137.398 98.2247 137.438 97.9558 137.538C97.6868 137.638 97.4432 137.794 97.2418 137.996C97.0404 138.199 96.8862 138.442 96.7897 138.71L95.2644 142.45C95.2248 142.527 95.2025 142.612 95.1991 142.698C95.1957 142.784 95.2112 142.87 95.2447 142.95C95.2781 143.03 95.3286 143.102 95.3927 143.161C95.4569 143.22 95.5331 143.264 95.6161 143.291L96.5035 143.663L97.5132 141.244L100.206 142.354L100.792 140.963L98.0888 139.852L98.2552 139.45C98.4786 138.927 98.652 138.902 99.1245 139.097L99.095 139.093ZM111.185 144.401L112.183 143.484C111.825 142.998 111.441 142.529 111.031 142.076C106.737 137.303 100.874 134.191 94.4871 133.293C88.1004 132.395 81.606 133.771 76.1627 137.175C75.6573 137.5 75.1491 137.844 74.6676 138.211L75.3746 139.368C75.8659 139.002 76.3755 138.649 76.9032 138.308C82.0729 135.082 88.2372 133.779 94.2991 134.631C100.361 135.483 105.927 138.434 110.008 142.96C110.421 143.434 110.813 143.914 111.185 144.401V144.401ZM103.897 148.667L104.308 147.736L103.246 146.687L104.322 146.146L104.813 146.63L105.746 144.616L101.75 146.447L100.369 145.392L106.63 142.525C106.772 142.436 106.942 142.401 107.109 142.424C107.276 142.447 107.429 142.529 107.542 142.653L107.759 142.882C107.881 142.992 107.961 143.141 107.986 143.303C108.01 143.465 107.978 143.63 107.894 143.771L105.07 149.998L103.897 148.667ZM72.529 175.62L68.2941 175.025L68.7465 171.806L71.2659 172.16L72.1823 173.179L72.6443 169.892L71.4825 170.619L68.9632 170.265L69.3461 167.54L73.4339 168.115L74.4429 169.542L74.6968 166.74L65.982 165.515L66.6496 166.598L65.4341 175.246L64.494 176.103L73.6107 177.384L74.2858 174.216L72.529 175.62ZM77.1342 154.447L79.0781 162.451L80.7544 162.687L84.6064 155.408L84.148 162.156L82.9628 162.978L87.5407 163.621L86.7947 162.528L87.3646 153.778L88.1969 152.907L84.4031 152.373L80.8275 159.108L79.0409 151.62L75.1982 151.08L75.8364 152.158L74.1686 160.753L73.052 161.585L76.8065 162.112L75.9625 161.005L77.1342 154.447ZM61.5133 174.052L57.8372 173.536L58.9682 165.488L60.0847 164.657L55.546 164.019L56.2038 165.1L54.9883 173.748L54.058 174.606L54.0512 174.655L62.5699 175.852L63.4503 172.575L61.5133 174.052ZM55.2528 159.064L59.5758 159.671L58.9083 158.589L60.1251 149.93L61.0652 149.074L56.7421 148.466L57.3803 149.545L56.9279 152.763L53.0852 152.223L53.5376 149.004L54.4482 148.144L50.1252 147.536L50.7928 148.619L49.5759 157.277L48.6358 158.134L52.9589 158.741L52.3207 157.663L52.8467 153.92L56.6894 154.46L56.1634 158.203L55.2528 159.064ZM120.818 182.407L116.583 181.812L117.035 178.593L119.555 178.947L120.471 179.965L120.933 176.679L119.772 177.405L117.252 177.051L117.635 174.327L121.713 174.9L122.722 176.327L122.976 173.525L114.31 172.307L114.978 173.39L113.762 182.038L112.822 182.895L121.909 184.172L122.585 181.004L120.818 182.407ZM82.281 174.302L81.6636 169.874L79.5264 173.914L82.281 174.302ZM85.6266 178.094L86.3727 179.187L81.7751 178.541L82.7936 177.696L82.5365 175.969L78.7428 175.436L77.9314 177.012L78.6284 178.099L75.0307 177.593L76.01 176.742L80.5389 168.559L80.0477 167.502L83.6846 168.013L85.6266 178.094ZM43.8214 156.043C41.6158 155.733 40.5148 153.324 40.7833 151.414C41.113 149.068 42.6223 147.718 44.4653 147.977C44.9356 148.036 45.3959 148.157 45.8341 148.337L47.206 150.596L47.5598 147.225C46.706 146.798 45.7852 146.518 44.8371 146.397C40.916 145.846 38.2795 148.175 37.8503 151.229C37.7247 151.989 37.7588 152.767 37.9506 153.513C38.1424 154.26 38.4876 154.961 38.9647 155.571C39.4419 156.18 40.0407 156.687 40.7238 157.058C41.4069 157.429 42.1596 157.657 42.9348 157.728C44.1843 157.888 45.4524 157.677 46.5786 157.123L46.9822 155.39C46.0154 155.922 44.9052 156.146 43.8032 156.031L43.8214 156.043ZM105.368 166.087L104.73 165.009L105.946 156.35L106.857 155.49L102.534 154.882L103.202 155.964L101.985 164.623L101.045 165.479L105.368 166.087ZM94.4249 175.168L95.3572 176.288L95.0764 178.285C94.8224 178.484 94.5287 178.627 94.2145 178.705C93.9003 178.784 93.5727 178.796 93.2531 178.741C91.3513 178.473 90.6352 176.029 90.905 174.11C91.2007 172.006 92.5185 170.382 94.7242 170.692C95.3272 170.757 95.9156 170.919 96.4658 171.174L97.9068 173.225L98.2078 170.301C97.2273 169.654 96.1061 169.245 94.9365 169.11C91.329 168.603 88.4625 170.434 87.9529 174.061C87.5264 177.095 89.134 179.882 92.2023 180.313C93.5205 180.54 94.876 180.327 96.0561 179.708L97.241 181.021L97.8583 176.629L98.8474 175.78L94.3185 175.143L94.4249 175.168ZM93.8016 159.261C94.1569 159.416 94.5323 159.522 94.9169 159.576C95.1911 159.656 95.48 159.673 95.7617 159.627C96.0434 159.581 96.3106 159.472 96.5433 159.308C96.776 159.145 96.9681 158.932 97.1051 158.684C97.2422 158.436 97.3206 158.161 97.3346 157.879C97.5322 156.473 96.7943 155.677 95.2553 155.461L94.3534 155.334L93.8016 159.261ZM90.4694 163.054L91.6862 154.396L91.0187 153.313L96.1064 154.028C99.1943 154.462 100.41 156.057 100.113 158.17C99.8156 160.284 97.9278 161.482 95.6928 161.168C94.9965 161.085 94.3114 160.926 93.6503 160.693L93.2605 163.466L94.2418 164.592L89.4972 163.926L90.4694 163.054ZM116.601 163.118C116.86 161.275 116.587 158.241 114.205 157.906C112.313 157.64 111.5 159.444 111.321 160.714C111.059 162.576 111.424 165.673 113.708 165.994C115.355 166.225 116.366 164.795 116.604 163.098L116.601 163.118ZM113.07 167.614C112.318 167.499 111.597 167.235 110.949 166.838C110.302 166.441 109.742 165.919 109.302 165.303C108.862 164.688 108.552 163.991 108.39 163.255C108.228 162.519 108.218 161.759 108.359 161.02C108.449 160.286 108.687 159.577 109.06 158.938C109.434 158.298 109.934 157.739 110.531 157.296C111.128 156.853 111.81 156.534 112.536 156.358C113.262 156.182 114.016 156.153 114.754 156.273C116.228 156.553 117.538 157.385 118.408 158.596C119.279 159.807 119.644 161.303 119.426 162.771C119.208 164.239 118.424 165.565 117.239 166.471C116.054 167.378 114.559 167.794 113.068 167.634L113.07 167.614ZM108.863 171.522L109.609 172.615L108.758 178.665C108.513 180.411 107.589 180.726 106.177 180.527C104.766 180.329 103.95 179.799 104.2 178.025L105.052 171.965L106.07 171.119L101.571 170.487L102.238 171.57L101.388 177.62C100.979 180.528 102.322 181.785 105.508 182.233C108.449 182.646 110.016 181.878 110.425 178.969L111.286 172.841L112.207 171.982L108.795 171.502L108.863 171.522ZM129.157 175.709C129.185 175.452 129.136 175.193 129.016 174.964C128.897 174.735 128.712 174.545 128.484 174.419C128.256 174.292 127.996 174.235 127.737 174.254C127.477 174.273 127.229 174.367 127.023 174.525C126.818 174.683 126.664 174.898 126.581 175.142C126.498 175.386 126.49 175.649 126.557 175.899C126.625 176.148 126.765 176.372 126.96 176.543C127.155 176.715 127.397 176.826 127.655 176.862C127.831 176.888 128.011 176.879 128.183 176.835C128.355 176.79 128.516 176.712 128.656 176.604C128.797 176.496 128.913 176.361 128.999 176.207C129.085 176.053 129.139 175.884 129.157 175.709ZM129.48 175.754C129.441 176.079 129.304 176.384 129.088 176.631C128.872 176.878 128.586 177.055 128.267 177.14C127.949 177.225 127.611 177.215 127.298 177.109C126.985 177.003 126.71 176.808 126.509 176.548C126.308 176.287 126.19 175.974 126.17 175.648C126.15 175.321 126.228 174.996 126.396 174.715C126.563 174.433 126.811 174.208 127.109 174.067C127.407 173.926 127.741 173.876 128.068 173.924C128.282 173.952 128.489 174.021 128.677 174.128C128.864 174.235 129.028 174.378 129.16 174.548C129.291 174.719 129.387 174.913 129.442 175.12C129.497 175.327 129.51 175.542 129.48 175.754V175.754ZM127.859 175.408C128.095 175.441 128.31 175.471 128.351 175.18C128.392 174.889 128.184 174.88 127.978 174.851L127.595 174.797L127.516 175.359L127.859 175.408ZM128.091 175.678L128.498 176.555L128.184 176.511L127.806 175.647L127.482 175.602L127.371 176.397L127.086 176.357L127.345 174.515L127.982 174.604C128.424 174.666 128.616 174.861 128.566 175.22C128.559 175.285 128.54 175.349 128.508 175.407C128.477 175.464 128.435 175.516 128.383 175.557C128.332 175.598 128.273 175.629 128.209 175.648C128.146 175.667 128.079 175.673 128.013 175.667L128.091 175.678ZM129.666 158.784L130.51 159.891L129.718 165.525L126.297 158.291L122.375 157.74L123.043 158.822L121.826 167.48L120.886 168.337L124.464 168.84L123.551 167.723L124.542 160.674L128.853 169.477L130.892 169.763L132.255 160.067L133.185 159.209L129.626 158.709L129.666 158.784ZM140.027 164.373C138.141 163.564 137.595 163.25 137.721 162.358C137.846 161.466 139.226 161.324 140.078 161.444C140.743 161.525 141.392 161.707 142.002 161.981L143.384 163.955L143.668 160.94C142.67 160.391 141.578 160.033 140.448 159.884C137.889 159.525 135.306 160.051 134.952 162.572C134.724 164.191 135.724 165.33 138.08 166.344C139.91 167.125 140.793 167.595 140.658 168.555C140.524 169.515 139.049 169.693 138.098 169.56C137.381 169.463 136.681 169.261 136.023 168.962L134.659 166.713L134.329 169.92C135.447 170.571 136.689 170.985 137.977 171.135C140.722 171.52 143.186 170.7 143.509 168.402C143.832 166.104 142.39 165.407 140.017 164.372L140.027 164.373ZM65.2704 156.21L68.0348 156.599L67.3546 152.192L65.2704 156.21ZM64.3697 160.414L60.7721 159.908L61.7612 159.059L66.2816 150.865L65.7904 149.807L69.4371 150.319L71.3584 160.477L72.1045 161.57L67.5167 160.926L68.5352 160.08L68.2696 158.342L64.4759 157.809L63.6632 159.395L64.3602 160.482L64.3697 160.414Z" fill="#1F7211"/>
</g>
<defs>
<filter id="filter0_i_183_1914" x="0.663574" y="-0.608093" width="184.844" height="268.912" filterUnits="userSpaceOnUse" color-interpolation-filters="sRGB">
<feFlood flood-opacity="0" result="BackgroundImageFix"/>
<feBlend mode="normal" in="SourceGraphic" in2="BackgroundImageFix" result="shape"/>
<feColorMatrix in="SourceAlpha" type="matrix" values="0 0 0 0 0 0 0 0 0 0 0 0 0 0 0 0 0 0 127 0" result="hardAlpha"/>
<feOffset dy="-1"/>
<feGaussianBlur stdDeviation="0.5"/>
<feComposite in2="hardAlpha" operator="arithmetic" k2="-1" k3="1"/>
<feColorMatrix type="matrix" values="0 0 0 0 0.0901961 0 0 0 0 0.466667 0 0 0 0 0.0509804 0 0 0 0.2 0"/>
<feBlend mode="normal" in2="shape" result="effect1_innerShadow_183_1914"/>
</filter>
<linearGradient id="paint0_linear_183_1914" x1="204.949" y1="23.612" x2="108.399" y2="124.783" gradientUnits="userSpaceOnUse">
<stop offset="0.322357" stop-color="#C4C4C4" stop-opacity="0"/>
<stop offset="1" stop-color="#C4C4C4"/>
</linearGradient>
</defs>
</svg>
