<svg width="32" height="32" viewBox="0 0 32 32" fill="none" xmlns="http://www.w3.org/2000/svg">
<path d="M13 16H26.9999" stroke="white" stroke-width="2" stroke-linecap="round" stroke-linejoin="round"/>
<path d="M13 8H26.9999" stroke="white" stroke-width="2" stroke-linecap="round" stroke-linejoin="round"/>
<path d="M12.9999 24H26.9999" stroke="white" stroke-width="2" stroke-linecap="round" stroke-linejoin="round"/>
<path d="M5 7.5L7 6.5V13.4993" stroke="white" stroke-width="2" stroke-linecap="round" stroke-linejoin="round"/>
<path d="M5.13752 19.0689C5.23255 18.8441 5.37354 18.6416 5.55146 18.4745C5.72937 18.3074 5.94027 18.1793 6.1706 18.0986C6.40094 18.0178 6.64562 17.9861 6.88893 18.0055C7.13224 18.025 7.3688 18.095 7.58342 18.2113C7.79804 18.3276 7.98596 18.4874 8.13513 18.6806C8.28429 18.8738 8.3914 19.0961 8.44957 19.3331C8.50775 19.5702 8.51569 19.8168 8.47291 20.0571C8.43012 20.2974 8.33754 20.5261 8.20113 20.7285L5 25.0001H8.5" stroke="white" stroke-width="2" stroke-linecap="round" stroke-linejoin="round"/>
</svg>
