<svg width="30" height="23" viewBox="0 0 30 23" fill="none" xmlns="http://www.w3.org/2000/svg">
<path fill-rule="evenodd" clip-rule="evenodd" d="M17 8.50005C17 7.94777 17.4477 7.50005 18 7.50005H22C22.5523 7.50005 23 7.94777 23 8.50005C23 9.05234 22.5523 9.50005 22 9.50005H18C17.4477 9.50005 17 9.05234 17 8.50005Z" fill="white"/>
<path fill-rule="evenodd" clip-rule="evenodd" d="M6.99999 8.50005C6.99999 7.94777 7.44771 7.50005 7.99999 7.50005H12C12.5523 7.50005 13 7.94777 13 8.50005C13 9.05234 12.5523 9.50005 12 9.50005H7.99999C7.44771 9.50005 6.99999 9.05234 6.99999 8.50005Z" fill="white"/>
<path fill-rule="evenodd" clip-rule="evenodd" d="M9.99999 5.50005C10.5523 5.50005 11 5.94777 11 6.50005V10.5001C11 11.0523 10.5523 11.5001 9.99999 11.5001C9.44771 11.5001 8.99999 11.0523 8.99999 10.5001V6.50005C8.99999 5.94777 9.44771 5.50005 9.99999 5.50005Z" fill="white"/>
<path fill-rule="evenodd" clip-rule="evenodd" d="M20.5023 0.967529C22.4914 0.967529 24.3991 1.75771 25.8056 3.16423C27.2121 4.57075 28.0023 6.47841 28.0023 8.46753C28.0023 10.4567 27.2121 12.3643 25.8056 13.7708C24.3996 15.1768 22.4928 15.967 20.5045 15.9675H20.5023L12.8253 15.9983L7.73461 21.6258C7.71815 21.6449 7.70084 21.6636 7.68269 21.6817C7.00592 22.3584 6.13107 22.8016 5.1852 22.9472C4.23932 23.0927 3.27169 22.9329 2.42282 22.491C1.57395 22.0491 0.888065 21.3481 0.464769 20.4898C0.0414731 19.6315 -0.0971869 18.6606 0.0689284 17.7181L0.0721317 17.7008L2.10877 7.22634C2.11019 7.21664 2.11176 7.20694 2.11347 7.19723C2.42014 5.46083 3.32863 3.88795 4.67949 2.75468C6.02995 1.62173 7.73624 1.00054 9.49898 1.00005L9.50047 1.00005L20.4993 0.967534L20.5023 1.96753V0.967529ZM20.5037 2.96753L20.5023 2.96753L9.50351 3.00005L9.50062 3.00005C8.20744 3.00015 6.95562 3.45576 5.96491 4.2869C4.98514 5.10886 4.32266 6.24615 4.09061 7.50291C4.08798 7.52271 4.08475 7.54248 4.08092 7.5622L2.03718 18.0732C1.94706 18.5943 2.0245 19.1307 2.25849 19.6052C2.49366 20.082 2.87473 20.4715 3.34634 20.717C3.81796 20.9625 4.35556 21.0513 4.88106 20.9704C5.39737 20.891 5.87558 20.6519 6.24876 20.287L11.6383 14.3292C11.827 14.1207 12.0947 14.0012 12.3759 14.0001L20.4983 13.9675L20.5023 13.9675C21.961 13.9675 23.3599 13.3881 24.3914 12.3566C25.4228 11.3252 26.0023 9.92622 26.0023 8.46753C26.0023 7.00884 25.4228 5.60989 24.3914 4.57844C23.3603 3.54733 21.9619 2.96791 20.5037 2.96753Z" fill="white"/>
<path fill-rule="evenodd" clip-rule="evenodd" d="M26.7134 6.35706C27.2556 6.25205 27.7803 6.60646 27.8853 7.14867L29.9292 17.7016L29.9322 17.7181C30.0983 18.6606 29.9597 19.6315 29.5364 20.4898C29.1131 21.3481 28.4272 22.0491 27.5783 22.491C26.7295 22.9329 25.7618 23.0927 24.8159 22.9472C23.8701 22.8016 22.9952 22.3584 22.3185 21.6817C22.2998 21.6631 22.282 21.6438 22.2651 21.6241L16.882 15.6484C16.5124 15.238 16.5453 14.6057 16.9557 14.2361C17.366 13.8664 17.9983 13.8994 18.368 14.3098L23.7529 20.2876C24.126 20.6521 24.604 20.891 25.1201 20.9704C25.6456 21.0513 26.1832 20.9625 26.6548 20.717C27.1264 20.4715 27.5075 20.082 27.7427 19.6052C27.9767 19.1306 28.0541 18.5941 27.9639 18.0729L25.9218 7.52896C25.8168 6.98675 26.1712 6.46207 26.7134 6.35706Z" fill="white"/>
</svg>
