<svg width="70" height="50" viewBox="0 0 70 50" fill="none" xmlns="http://www.w3.org/2000/svg">
<g clip-path="url(#clip0_801_4982)">
<path d="M1.37229 20.2221C1.37229 20.2221 17.1049 20.8678 35.0032 20.8678C52.9016 20.8678 68.6342 20.2221 68.6342 20.2221L69.935 23.7797C69.0358 24.97 68.5497 26.4176 68.5497 27.9055C68.5497 29.3933 69.0358 30.841 69.935 32.0312L68.6342 35.5953C68.6342 35.5953 52.9016 34.9496 35.0032 34.9496C17.1049 34.9496 1.37229 35.5953 1.37229 35.5953L0.0715332 32.0312C0.970747 30.841 1.45684 29.3933 1.45684 27.9055C1.45684 26.4176 0.970747 24.97 0.0715332 23.7797L1.37229 20.2221Z" fill="#002F6E"/>
<path d="M15.336 18.9308L15.2709 18.75C15.2306 18.5846 15.1296 18.44 14.9877 18.3445C14.8458 18.249 14.6732 18.2094 14.5035 18.2335C10.3877 18.5311 6.28955 19.0332 2.22438 19.7379C2.16585 19.7379 2.0878 19.7766 2.0813 19.8218C4.22754 19.8928 9.1444 20.0155 15.7717 20.1124L15.336 18.9308Z" fill="#002F6E"/>
<path d="M54.6967 18.9308L54.7617 18.75C54.8021 18.5846 54.903 18.44 55.0449 18.3445C55.1868 18.249 55.3595 18.2094 55.5292 18.2335C59.6449 18.5311 63.7431 19.0332 67.8083 19.7379C67.8668 19.7379 67.9449 19.7766 67.9514 19.8218C65.8051 19.8928 60.8883 20.0155 54.2935 20.1124L54.6967 18.9308Z" fill="#002F6E"/>
<path d="M15.336 36.8802L15.2709 37.0674C15.2293 37.2321 15.128 37.3758 14.9865 37.4711C14.8449 37.5663 14.673 37.6065 14.5035 37.584C10.3877 37.2864 6.28955 36.7843 2.22438 36.0796C2.16585 36.0796 2.0878 36.0408 2.0813 35.9956C4.22754 35.9246 9.1444 35.8019 15.7717 35.7051L15.336 36.8802Z" fill="#002F6E"/>
<path d="M54.6967 36.8802L54.7617 37.0674C54.8034 37.2321 54.9046 37.3758 55.0462 37.4711C55.1877 37.5663 55.3597 37.6065 55.5292 37.584C59.6449 37.2864 63.7431 36.7843 67.8083 36.0796C67.8668 36.0796 67.9449 36.0408 67.9514 35.9956C65.8051 35.9246 60.8883 35.8019 54.2935 35.7051L54.6967 36.8802Z" fill="#002F6E"/>
<path d="M1.02771 27.9378C1.03266 29.3174 0.688247 30.6762 0.026123 31.8892L0.0911646 32.0636C0.990379 30.8733 1.47647 29.4256 1.47647 27.9378C1.47647 26.45 0.990379 25.0023 0.0911646 23.812L0.026123 23.9863C0.687464 25.1997 1.03183 26.5582 1.02771 27.9378Z" fill="#BFBDBC"/>
<path d="M69.0049 27.9378C69 29.3174 69.3444 30.6762 70.0065 31.8892L69.9415 32.0636C69.0422 30.8733 68.5562 29.4256 68.5562 27.9378C68.5562 26.45 69.0422 25.0023 69.9415 23.812L70.0065 23.9863C69.3452 25.1997 69.0008 26.5582 69.0049 27.9378Z" fill="#BFBDBC"/>
<path d="M35.0033 20.2544C50.892 20.2544 64.0296 19.9509 67.9578 19.8218C67.9578 19.7766 67.8668 19.7508 67.8083 19.7379C63.7428 19.0397 59.6446 18.544 55.5291 18.2528C55.3594 18.2288 55.1868 18.2684 55.0449 18.3639C54.903 18.4594 54.802 18.6039 54.7617 18.7694L54.5081 19.4602H54.2219L54.5016 18.3497C54.5396 18.1511 54.652 17.9741 54.816 17.8544C54.9801 17.7346 55.1838 17.6809 55.3861 17.704C59.6478 17.9831 63.8853 18.5527 68.0684 19.4086C68.3351 19.4731 68.4131 19.6345 68.5627 20.0542L68.6342 20.2544C68.6342 20.2544 52.9016 20.9 35.0033 20.9C17.1049 20.9 1.37231 20.2544 1.37231 20.2544L1.44387 20.0542C1.59345 19.6539 1.67149 19.4925 1.94465 19.4086C6.12551 18.5522 10.3608 17.9827 14.6205 17.704C14.8236 17.6807 15.028 17.7342 15.1932 17.8539C15.3583 17.9735 15.472 18.1505 15.5115 18.3497L15.7847 19.4602H15.4985L15.2448 18.7694C15.2045 18.6039 15.1036 18.4594 14.9617 18.3639C14.8198 18.2684 14.6471 18.2288 14.4774 18.2528C10.3616 18.5504 6.26345 19.0525 2.19829 19.7572C2.13975 19.7572 2.06171 19.796 2.0552 19.8412C5.95746 19.9703 19.1146 20.2738 35.0033 20.2738" fill="#BFBDBC"/>
<path d="M35.0033 35.563C50.892 35.563 64.0296 35.8665 67.9578 35.9956C67.9578 36.0408 67.8668 36.0667 67.8083 36.0796C63.7431 36.7843 59.6449 37.2864 55.5291 37.584C55.3599 37.6051 55.1886 37.5643 55.0474 37.4693C54.9061 37.3742 54.8046 37.2314 54.7617 37.0674L54.5081 36.3766H54.2219L54.5016 37.4807C54.5396 37.6793 54.652 37.8562 54.816 37.976C54.9801 38.0957 55.1838 38.1494 55.3861 38.1263C59.6475 37.844 63.8847 37.2745 68.0684 36.4218C68.3351 36.3572 68.4131 36.1958 68.5627 35.7761L68.6342 35.576C68.6342 35.576 52.9016 34.9303 35.0033 34.9303C17.1049 34.9303 1.37231 35.576 1.37231 35.576L1.44387 35.7761C1.59345 36.1764 1.67149 36.3378 1.94465 36.4218C6.12605 37.275 10.3611 37.8445 14.6205 38.1263C14.8233 38.1481 15.027 38.094 15.1918 37.9746C15.3566 37.8552 15.4706 37.6791 15.5115 37.4807L15.7847 36.3766H15.4985L15.2448 37.0674C15.2019 37.2314 15.1004 37.3742 14.9592 37.4693C14.8179 37.5643 14.6467 37.6051 14.4774 37.584C10.3616 37.2864 6.26345 36.7843 2.19829 36.0796C2.13975 36.0796 2.06171 36.0408 2.0552 35.9956C5.95746 35.8665 19.1146 35.563 35.0033 35.563Z" fill="#BFBDBC"/>
<path d="M64.3481 21.8815C64.0662 21.8815 63.7905 21.9646 63.5562 22.1202C63.3218 22.2759 63.1392 22.4971 63.0316 22.7559C62.924 23.0146 62.8962 23.2992 62.9517 23.5737C63.0072 23.8482 63.1435 24.1001 63.3433 24.2976C63.5432 24.4951 63.7976 24.6293 64.0743 24.6831C64.351 24.7369 64.6376 24.708 64.8977 24.6C65.1579 24.492 65.3799 24.3097 65.5356 24.0763C65.6913 23.843 65.7737 23.5689 65.7725 23.289C65.7733 23.1034 65.737 22.9194 65.6657 22.7479C65.5943 22.5763 65.4893 22.4205 65.3568 22.2895C65.2243 22.1586 65.0669 22.055 64.8937 21.985C64.7206 21.9149 64.5351 21.8798 64.3481 21.8815ZM64.3481 24.4189C64.1228 24.4202 63.9021 24.355 63.7141 24.2316C63.526 24.1083 63.3791 23.9323 63.292 23.7259C63.2048 23.5196 63.1814 23.2922 63.2246 23.0726C63.2677 22.853 63.3756 22.651 63.5345 22.4924C63.6934 22.3337 63.8962 22.2254 64.1172 22.1813C64.3381 22.1372 64.5673 22.1592 64.7757 22.2445C64.984 22.3298 65.1622 22.4747 65.2875 22.6606C65.4129 22.8466 65.4798 23.0653 65.4798 23.289C65.4798 23.5876 65.3608 23.874 65.1487 24.0857C64.9367 24.2974 64.6489 24.4172 64.3481 24.4189Z" fill="white"/>
<path d="M64.7645 23.289C64.8365 23.2537 64.8965 23.1981 64.9369 23.1292C64.9774 23.0604 64.9966 22.9812 64.9921 22.9016C64.9905 22.8428 64.9769 22.7849 64.9523 22.7314C64.9277 22.6779 64.8925 22.6298 64.8489 22.5901C64.8052 22.5503 64.7539 22.5197 64.6981 22.5C64.6422 22.4803 64.583 22.472 64.5238 22.4754H63.7954V23.9992H64.1141V23.4181H64.2442C64.4198 23.4181 64.5238 23.4633 64.5694 23.6247C64.6048 23.7563 64.6482 23.8857 64.6994 24.0121H65.0831C65.014 23.8965 64.9656 23.7697 64.9401 23.6376C64.9346 23.5693 64.913 23.5032 64.8768 23.4449C64.8406 23.3865 64.791 23.3375 64.732 23.3019L64.7645 23.289ZM64.3937 23.1146H64.1141V22.7724H64.3612C64.4718 22.7724 64.5954 22.8176 64.5954 22.9403C64.5955 22.9658 64.5902 22.991 64.5799 23.0143C64.5696 23.0376 64.5544 23.0585 64.5353 23.0755C64.5163 23.0926 64.4938 23.1055 64.4694 23.1133C64.445 23.1212 64.4192 23.1238 64.3937 23.1211" fill="white"/>
<path d="M20.3308 30.2557C19.9285 30.6801 19.435 31.009 18.887 31.2177C18.4057 31.3727 17.0204 31.4889 16.6106 30.3526C16.5196 30.1072 16.6106 30.0297 16.8188 29.9652C17.1505 29.8683 18.0155 29.6165 18.9195 29.2808C19.5399 29.0526 20.1403 28.774 20.7145 28.4479C20.8938 28.3451 21.0251 28.1763 21.0798 27.9781C21.1346 27.7799 21.1085 27.5682 21.0072 27.389C20.7095 26.5968 20.1359 25.9366 19.3903 25.5279C18.6446 25.1193 17.7762 24.9893 16.9423 25.1614C16.0979 25.331 15.3392 25.7872 14.7968 26.4518C14.2544 27.1163 13.9621 27.9477 13.9701 28.803C13.9211 29.7017 14.1998 30.5879 14.7552 31.2993C15.3106 32.0108 16.1055 32.4998 16.9944 32.6769C17.7789 32.8415 18.5949 32.7724 19.34 32.4784C20.0851 32.1843 20.7262 31.6784 21.1828 31.024C21.495 30.5398 20.617 29.9587 20.3308 30.2622V30.2557ZM16.4285 28.5382C16.2594 28.0734 16.3895 26.6529 17.183 26.3817C17.9764 26.1106 18.5228 26.5238 18.7699 27.3567C18.8162 27.4783 18.8371 27.6079 18.8315 27.7377C18.8259 27.8675 18.7939 27.9949 18.7374 28.1121C18.5562 28.2857 18.3317 28.4083 18.087 28.4672L17.4366 28.6738C16.8318 28.8805 16.5391 28.9256 16.396 28.5382" fill="white"/>
<path d="M40.5901 30.2557C40.1884 30.6778 39.6975 31.0064 39.1527 31.2177C38.665 31.3727 37.2797 31.4889 36.8699 30.3526C36.7854 30.1072 36.8699 30.0297 37.078 29.9652C37.4162 29.8683 38.2748 29.6165 39.1853 29.2808C39.8043 29.0544 40.4027 28.7757 40.9738 28.4479C41.1531 28.3451 41.2843 28.1763 41.3391 27.9781C41.3939 27.7799 41.3678 27.5682 41.2665 27.389C40.9688 26.5968 40.3952 25.9366 39.6495 25.5279C38.9039 25.1193 38.0355 24.9893 37.2016 25.1614C36.3571 25.331 35.5985 25.7872 35.0561 26.4518C34.5137 27.1163 34.2214 27.9477 34.2294 28.803C34.1804 29.7017 34.4591 30.5879 35.0145 31.2993C35.5699 32.0108 36.3648 32.4998 37.2537 32.6769C38.0382 32.8415 38.8542 32.7724 39.5993 32.4784C40.3444 32.1843 40.9855 31.6784 41.4421 31.024C41.7543 30.5398 40.8762 29.9587 40.5901 30.2622V30.2557ZM36.6878 28.5382C36.576 28.0701 36.6101 27.5793 36.7854 27.1307C36.8321 26.9663 36.9145 26.814 37.0268 26.6846C37.1392 26.5552 37.2788 26.4518 37.4358 26.3817C37.5869 26.3128 37.7523 26.2804 37.9185 26.2872C38.0846 26.2939 38.2468 26.3396 38.3918 26.4205C38.7247 26.635 38.9585 26.9716 39.0422 27.3567C39.0884 27.4783 39.1094 27.6079 39.1038 27.7377C39.0982 27.8675 39.0662 27.9949 39.0097 28.1121C38.8309 28.2889 38.6054 28.412 38.3593 28.4672L37.7414 28.6803C37.1236 28.8675 36.8374 28.9256 36.6943 28.5382" fill="white"/>
<path d="M56.0364 30.2557C55.6347 30.6778 55.1438 31.0064 54.599 31.2177C54.1113 31.3727 52.7259 31.4889 52.3162 30.3526C52.2317 30.1072 52.3162 30.0297 52.5243 29.9652C52.8625 29.8683 53.721 29.6165 54.6316 29.2808C55.2506 29.0544 55.849 28.7757 56.4201 28.4479C56.5994 28.3451 56.7306 28.1763 56.7854 27.9781C56.8402 27.7799 56.8141 27.5682 56.7128 27.389C56.4151 26.5968 55.8415 25.9366 55.0958 25.5279C54.3502 25.1193 53.4818 24.9893 52.6479 25.1614C51.8034 25.331 51.0448 25.7872 50.5024 26.4518C49.96 27.1163 49.6677 27.9477 49.6757 28.803C49.6267 29.7017 49.9054 30.5879 50.4608 31.2993C51.0161 32.0108 51.8111 32.4998 52.6999 32.6769C53.4845 32.8415 54.3005 32.7724 55.0456 32.4784C55.7907 32.1843 56.4318 31.6784 56.8884 31.024C57.2006 30.5398 56.3225 29.9587 56.0364 30.2622V30.2557ZM52.1341 28.5382C52.0259 28.0698 52.0599 27.58 52.2317 27.1307C52.2783 26.9663 52.3608 26.814 52.4731 26.6846C52.5855 26.5552 52.7251 26.4518 52.8821 26.3817C53.0332 26.3128 53.1986 26.2804 53.3648 26.2872C53.5309 26.2939 53.6931 26.3396 53.8381 26.4205C54.1709 26.635 54.4048 26.9716 54.4885 27.3567C54.5347 27.4783 54.5557 27.6079 54.5501 27.7377C54.5445 27.8675 54.5125 27.9949 54.456 28.1121C54.2772 28.2889 54.0517 28.412 53.8056 28.4672L53.1877 28.6803C52.5699 28.8675 52.2837 28.9256 52.1406 28.5382" fill="white"/>
<path d="M10.4712 30.6689C10.487 30.8057 10.4658 30.9442 10.4098 31.0702C10.3538 31.1961 10.265 31.305 10.1525 31.3856L9.65819 31.6051C9.61959 31.6229 9.5879 31.6527 9.56794 31.69C9.54798 31.7273 9.54085 31.77 9.54763 31.8117C9.54495 31.8353 9.54495 31.8591 9.54763 31.8827L9.60616 32.438C9.60616 32.5865 9.73625 32.6123 9.93786 32.6123H13.5084C13.71 32.6123 13.8141 32.6123 13.8401 32.438L13.8987 31.8827C13.9013 31.8591 13.9013 31.8353 13.8987 31.8117C13.9054 31.77 13.8983 31.7273 13.8783 31.69C13.8584 31.6527 13.8267 31.6229 13.7881 31.6051L13.2938 31.3856C13.1813 31.305 13.0925 31.1961 13.0365 31.0702C12.9805 30.9442 12.9593 30.8057 12.9751 30.6689V24.5222C12.9593 24.3854 12.9805 24.2469 13.0365 24.1209C13.0925 23.995 13.1813 23.8861 13.2938 23.8055L13.7881 23.586C13.8262 23.5694 13.8576 23.5408 13.8776 23.5046C13.8976 23.4684 13.905 23.4266 13.8987 23.3858C13.9016 23.3601 13.9016 23.3341 13.8987 23.3084L13.8401 22.8951C13.8401 22.7402 13.71 22.7144 13.5084 22.7144H10.133C9.93135 22.7144 9.83379 22.7144 9.80127 22.8951L9.74925 23.3084C9.74629 23.3341 9.74629 23.3601 9.74925 23.3858C9.74925 23.4827 9.74924 23.5473 9.8598 23.586L10.2631 23.8055C10.4907 23.9347 10.5037 24.2317 10.5037 24.5222V26.2397C10.5037 26.2962 10.4811 26.3504 10.4408 26.3903C10.4006 26.4303 10.346 26.4527 10.2891 26.4527H8.33792C8.281 26.4527 8.22642 26.4303 8.18617 26.3903C8.14592 26.3504 8.12331 26.2962 8.12331 26.2397V24.5222C8.12331 24.2317 8.12331 23.9347 8.37045 23.8055L8.76717 23.586C8.80646 23.5705 8.83937 23.5423 8.8606 23.506C8.88183 23.4697 8.89014 23.4274 8.88424 23.3858C8.88424 23.3858 8.88424 23.3406 8.88424 23.3084L8.82571 22.8951C8.82571 22.7402 8.69564 22.7144 8.49403 22.7144H5.06004C4.85842 22.7144 4.75436 22.7144 4.72834 22.8951L4.66981 23.3084C4.66686 23.3341 4.66686 23.3601 4.66981 23.3858C4.6639 23.4274 4.67222 23.4697 4.69345 23.506C4.71468 23.5423 4.74759 23.5705 4.78687 23.586L5.27466 23.8055C5.38832 23.8853 5.47842 23.9939 5.5356 24.1199C5.59278 24.2459 5.61496 24.3848 5.59984 24.5222V30.6689C5.61496 30.8063 5.59278 30.9452 5.5356 31.0712C5.47842 31.1972 5.38832 31.3058 5.27466 31.3856L4.78687 31.6051C4.74635 31.6208 4.71254 31.65 4.69121 31.6877C4.66987 31.7253 4.66232 31.7692 4.66981 31.8117C4.66713 31.8353 4.66713 31.8591 4.66981 31.8827L4.72834 32.438C4.72834 32.5865 4.85842 32.6123 5.06004 32.6123H8.63711C8.83873 32.6123 8.94279 32.6123 8.9623 32.438L9.02083 31.8827C9.02285 31.8591 9.02285 31.8354 9.02083 31.8117C9.02832 31.7692 9.02075 31.7253 8.99941 31.6877C8.97808 31.65 8.94428 31.6208 8.90375 31.6051L8.40948 31.3856C8.297 31.305 8.20818 31.1961 8.15217 31.0702C8.09615 30.9442 8.07496 30.8057 8.09078 30.6689V28.1702C8.09078 28.1137 8.11341 28.0595 8.15366 28.0195C8.19391 27.9796 8.24849 27.9571 8.30541 27.9571H10.2565C10.3135 27.9571 10.368 27.9796 10.4083 28.0195C10.4485 28.0595 10.4712 28.1137 10.4712 28.1702V30.6689Z" fill="white"/>
<path d="M24.5582 23.7539C24.5686 24.0112 24.5012 24.2658 24.3647 24.4848C24.2283 24.7039 24.029 24.8774 23.7924 24.9831C23.5558 25.0888 23.2928 25.1219 23.0371 25.078C22.7815 25.0342 22.5449 24.9154 22.3577 24.7371C22.1705 24.5587 22.0414 24.3289 21.9868 24.0771C21.9323 23.8253 21.9548 23.563 22.0516 23.324C22.1483 23.0851 22.3148 22.8803 22.5297 22.736C22.7446 22.5916 22.998 22.5144 23.2575 22.5142C23.5936 22.514 23.9168 22.6429 24.1593 22.874C24.4018 23.1051 24.5448 23.4204 24.5582 23.7539Z" fill="white"/>
<path d="M21.8396 32.6123C21.6445 32.6123 21.547 32.6123 21.5209 32.4444L21.4624 31.8892V31.8117C21.458 31.7727 21.4656 31.7334 21.4841 31.6988C21.5027 31.6642 21.5314 31.636 21.5665 31.618L21.9502 31.4049C22.0588 31.3287 22.145 31.2251 22.1999 31.1048C22.2548 30.9845 22.2763 30.8519 22.2624 30.7205V27.2081C22.2624 26.9176 22.2103 26.5625 21.9502 26.414L21.7031 26.2719C21.612 26.2332 21.5925 26.1686 21.5925 26.0718C21.5896 26.0482 21.5896 26.0243 21.5925 26.0007L21.651 25.5811C21.651 25.4326 21.7811 25.4067 21.9827 25.4067H24.4411C24.4981 25.4067 24.5526 25.4292 24.5929 25.4691C24.6331 25.5091 24.6557 25.5633 24.6557 25.6198V30.7205C24.6417 30.8512 24.6626 30.9832 24.7163 31.1034C24.7699 31.2235 24.8545 31.3275 24.9614 31.4049L25.3517 31.618C25.3867 31.636 25.4154 31.6642 25.434 31.6988C25.4526 31.7334 25.4601 31.7727 25.4557 31.8117C25.4586 31.8353 25.4586 31.8591 25.4557 31.8827L25.4037 32.438C25.4037 32.58 25.2801 32.6059 25.085 32.6059L21.8396 32.6123Z" fill="white"/>
<path d="M29.1628 25.7877L29.5465 25.6004C30.2166 25.2222 30.9985 25.0875 31.7578 25.2195C32.4082 25.4326 33.0195 25.9233 33.0195 27.2081V31.0821C33.0195 31.25 33.0195 31.3145 33.1041 31.3597C33.1886 31.4049 33.3902 31.2435 33.5593 31.1596C33.7284 31.0757 33.8325 31.1596 33.9431 31.2887C34.0055 31.3412 34.0498 31.4118 34.0697 31.4905C34.0895 31.5693 34.0839 31.6523 34.0536 31.7278C33.8926 32.0298 33.6477 32.2798 33.348 32.448C33.0484 32.6162 32.7064 32.6956 32.3627 32.6769C32.1569 32.6938 31.9498 32.6683 31.7543 32.6022C31.5589 32.536 31.3792 32.4306 31.2266 32.2925C31.0741 32.1543 30.9518 31.9865 30.8675 31.7993C30.7832 31.6122 30.7387 31.4098 30.7367 31.2048V27.4664C30.751 27.3667 30.7417 27.2651 30.7094 27.1696C30.6771 27.0741 30.6228 26.9875 30.5507 26.9166C30.4787 26.8457 30.3909 26.7925 30.2945 26.7613C30.198 26.7301 30.0956 26.7217 29.9953 26.7368C29.501 26.7949 29.1498 27.2017 29.1498 27.9248V30.7205C29.1344 30.8513 29.1547 30.9838 29.2084 31.1042C29.2622 31.2246 29.3475 31.3284 29.4555 31.4049L29.8392 31.618C29.8742 31.636 29.903 31.6642 29.9215 31.6988C29.9401 31.7334 29.9477 31.7728 29.9432 31.8117V31.8827L29.8847 32.438C29.8847 32.5865 29.7612 32.6059 29.566 32.6059H26.3922C26.2036 32.6059 26.0995 32.6059 26.0735 32.438L26.0215 31.8827C26.0186 31.8591 26.0186 31.8353 26.0215 31.8117C26.0176 31.772 26.0261 31.7322 26.0459 31.6975C26.0657 31.6628 26.0958 31.6351 26.1321 31.618L26.5158 31.4049C26.6227 31.3275 26.7073 31.2235 26.7609 31.1034C26.8146 30.9832 26.8355 30.8512 26.8215 30.7205V27.2146C26.8215 26.9176 26.7694 26.5689 26.5093 26.414L26.2686 26.2719C26.2293 26.2564 26.1964 26.2283 26.1752 26.192C26.154 26.1557 26.1457 26.1133 26.1516 26.0718C26.1486 26.0482 26.1486 26.0243 26.1516 26.0008L26.2101 25.5811C26.2101 25.4326 26.3402 25.4067 26.5418 25.4067H28.8181C28.8845 25.4052 28.9496 25.4251 29.0036 25.4635C29.0576 25.502 29.0975 25.5568 29.1173 25.6198L29.1628 25.7877Z" fill="white"/>
<path d="M60.3743 25.7877L60.758 25.6004C61.428 25.2217 62.21 25.087 62.9693 25.2195C63.6197 25.4326 64.231 25.9233 64.231 27.2081V31.0821C64.231 31.25 64.231 31.3145 64.3156 31.3597C64.4001 31.4049 64.6018 31.2435 64.7709 31.1596C64.94 31.0757 65.044 31.1596 65.1481 31.2887C65.2133 31.3391 65.2602 31.4093 65.2813 31.4886C65.3025 31.5679 65.2968 31.652 65.2651 31.7278C65.1041 32.0298 64.8592 32.2798 64.5595 32.448C64.2599 32.6162 63.9179 32.6956 63.5742 32.6769C63.3684 32.6938 63.1613 32.6683 62.9658 32.6022C62.7704 32.536 62.5907 32.4306 62.4382 32.2925C62.2856 32.1543 62.1633 31.9865 62.079 31.7993C61.9947 31.6122 61.9502 31.4098 61.9482 31.2048V27.4664C61.9628 27.3661 61.9534 27.2638 61.9208 27.1677C61.8881 27.0717 61.8332 26.9846 61.7603 26.9136C61.6875 26.8425 61.5989 26.7895 61.5016 26.7588C61.4043 26.7281 61.3011 26.7206 61.2003 26.7368C60.7125 26.7949 60.3613 27.2017 60.3613 27.9248V30.7205C60.3473 30.8519 60.3689 30.9845 60.4238 31.1048C60.4786 31.2251 60.5648 31.3287 60.6735 31.4049L61.0572 31.618C61.0922 31.636 61.121 31.6642 61.1395 31.6988C61.1581 31.7334 61.1657 31.7728 61.1613 31.8117V31.8827L61.1027 32.438C61.1027 32.5865 60.9792 32.6059 60.7841 32.6059H57.6102C57.4151 32.6059 57.3176 32.6059 57.2915 32.438L57.2395 31.8827C57.2366 31.8591 57.2366 31.8353 57.2395 31.8117C57.2351 31.7728 57.2427 31.7334 57.2612 31.6988C57.2798 31.6642 57.3085 31.636 57.3436 31.618L57.7273 31.4049C57.8359 31.3287 57.9221 31.2251 57.977 31.1048C58.0319 30.9845 58.0534 30.8519 58.0395 30.7205V27.2146C58.0395 26.9176 57.9874 26.5689 57.7273 26.414L57.4801 26.2719C57.4421 26.2553 57.4106 26.2267 57.3906 26.1905C57.3706 26.1543 57.3632 26.1126 57.3696 26.0718C57.3667 26.0482 57.3667 26.0243 57.3696 26.0008L57.4281 25.5811C57.4281 25.4326 57.5582 25.4067 57.7598 25.4067H60.0296C60.0969 25.4048 60.163 25.4245 60.2181 25.4629C60.2732 25.5013 60.3143 25.5563 60.3353 25.6198L60.3743 25.7877Z" fill="white"/>
<path d="M48.7912 30.8239C48.9291 31.071 49.1342 31.2746 49.3831 31.4114L49.7668 31.6245C49.8019 31.6426 49.8306 31.6707 49.8491 31.7053C49.8677 31.7399 49.8753 31.7793 49.8709 31.8182V31.8892L49.8058 32.4574C49.8058 32.6059 49.6823 32.6253 49.4872 32.6253H47.536C47.2108 32.6253 47.1848 32.5349 47.0352 32.2637L45.4158 29.3389L44.8109 29.9135V30.74C44.8039 30.8746 44.8326 31.0087 44.8942 31.1289C44.9559 31.249 45.0483 31.3509 45.1621 31.4244L45.5459 31.6374C45.5809 31.6555 45.6096 31.6836 45.6282 31.7182C45.6468 31.7528 45.6543 31.7922 45.6499 31.8311V31.9021L45.5914 32.4574C45.5914 32.6059 45.4678 32.6253 45.2727 32.6253H42.0728C41.8842 32.6253 41.7802 32.6253 41.7542 32.4574L41.7021 31.9021C41.6992 31.8786 41.6992 31.8547 41.7021 31.8311C41.6983 31.7915 41.7068 31.7516 41.7266 31.7169C41.7464 31.6823 41.7764 31.6545 41.8127 31.6374L42.1964 31.4244C42.3034 31.3469 42.3879 31.2429 42.4416 31.1228C42.4952 31.0027 42.5161 30.8706 42.5021 30.74V24.4577C42.5161 24.327 42.4952 24.195 42.4416 24.0748C42.3879 23.9547 42.3034 23.8507 42.1964 23.7733L41.8127 23.5602C41.7764 23.5431 41.7464 23.5154 41.7266 23.4807C41.7068 23.446 41.6983 23.4062 41.7021 23.3665C41.6992 23.3429 41.6992 23.3191 41.7021 23.2955L41.7542 22.9016C41.7542 22.7531 41.8842 22.7273 42.0728 22.7273H44.3947C44.504 22.729 44.6082 22.7733 44.6848 22.8506C44.7615 22.9279 44.8044 23.032 44.8044 23.1405V27.912L45.8385 26.9887C45.9816 26.8595 46.2223 26.6529 46.3198 26.5561C46.4174 26.4592 46.4304 26.3236 46.3198 26.272L45.9556 26.1106C45.9198 26.0953 45.8901 26.0685 45.8713 26.0346C45.8524 26.0007 45.8455 25.9616 45.8516 25.9233C45.8487 25.9019 45.8487 25.8802 45.8516 25.8588L45.9036 25.3551C45.9036 25.2196 46.0206 25.2002 46.2027 25.2002H48.9799C49.162 25.2002 49.2595 25.2002 49.2855 25.3551L49.3376 25.8652C49.3376 25.8652 49.3376 25.9104 49.3376 25.9298C49.3376 25.9491 49.214 26.0912 49.1294 26.1299C48.9994 26.1705 48.8732 26.2224 48.7522 26.2849C48.5341 26.4228 48.3295 26.5806 48.1409 26.7562L47.0742 27.7764L48.7912 30.8239Z" fill="white"/>
<path d="M46.3589 16.742V16.6968H46.0402C46.0324 16.7583 46.0384 16.8208 46.0578 16.8798C46.0772 16.9387 46.1095 16.9927 46.1524 17.0378C46.1953 17.0828 46.2477 17.1179 46.3059 17.1405C46.3641 17.163 46.4266 17.1725 46.489 17.1682C46.5562 17.1741 46.624 17.1653 46.6875 17.1424C46.7509 17.1195 46.8086 17.0831 46.8563 17.0357C46.9041 16.9883 46.9408 16.9311 46.9638 16.868C46.9869 16.805 46.9957 16.7378 46.9898 16.671C47.0012 16.5845 46.9814 16.4967 46.9337 16.4234C46.8861 16.3501 46.8137 16.296 46.7296 16.2707C46.802 16.2338 46.861 16.1754 46.8983 16.1036C46.9356 16.0319 46.9494 15.9503 46.9377 15.8704C46.9435 15.8124 46.9365 15.7539 46.9172 15.6988C46.8979 15.6438 46.8667 15.5937 46.8258 15.5519C46.785 15.51 46.7354 15.4776 46.6806 15.4568C46.6258 15.436 46.567 15.4273 46.5085 15.4313C46.1963 15.4313 46.0987 15.6573 46.1118 15.9285H46.4044C46.4044 15.851 46.4044 15.7542 46.515 15.7542C46.6255 15.7542 46.632 15.851 46.632 15.922C46.632 16.1093 46.554 16.148 46.3719 16.148V16.4386C46.567 16.4386 46.6255 16.4837 46.6255 16.6774C46.6255 16.7743 46.6256 16.9163 46.4825 16.9163C46.4648 16.9164 46.4474 16.9128 46.4311 16.9059C46.4149 16.899 46.4003 16.889 46.3881 16.8763C46.376 16.8636 46.3665 16.8486 46.3604 16.8322C46.3542 16.8157 46.3515 16.7982 46.3524 16.7808" fill="white"/>
<path d="M45.819 15.4507H44.902V15.7412H45.3573L44.824 17.1423H45.1752L45.819 15.4507Z" fill="white"/>
<path d="M44.1932 16.2319C44.2649 16.2055 44.326 16.1564 44.3671 16.0923C44.4082 16.0282 44.427 15.9526 44.4208 15.8768C44.4208 15.7655 44.3763 15.6588 44.297 15.5801C44.2177 15.5014 44.1102 15.4572 43.9981 15.4572C43.886 15.4572 43.7784 15.5014 43.6991 15.5801C43.6199 15.6588 43.5753 15.7655 43.5753 15.8768C43.5702 15.9524 43.5895 16.0276 43.6304 16.0915C43.6714 16.1554 43.7318 16.2046 43.8029 16.2319C43.7098 16.2612 43.6298 16.3216 43.5765 16.4028C43.5231 16.484 43.4997 16.5811 43.5103 16.6775C43.5103 16.8059 43.5617 16.9291 43.6532 17.0199C43.7446 17.1107 43.8687 17.1617 43.9981 17.1617C44.1274 17.1617 44.2515 17.1107 44.343 17.0199C44.4345 16.9291 44.4859 16.8059 44.4859 16.6775C44.4977 16.5809 44.4748 16.4832 44.4213 16.4017C44.3678 16.3202 44.287 16.2601 44.1932 16.2319ZM43.9916 15.6896C44.0826 15.6896 44.0956 15.8058 44.0956 15.8639C44.0956 15.922 44.0956 16.0576 43.9916 16.0576C43.8875 16.0576 43.9005 15.9285 43.9005 15.8639C43.9005 15.7994 43.9005 15.6896 43.9916 15.6896ZM43.9916 16.8776C43.8745 16.8776 43.8485 16.7227 43.8485 16.6387C43.8485 16.5548 43.8485 16.3934 43.9851 16.3934C44.1216 16.3934 44.1346 16.5548 44.1346 16.6387C44.1346 16.7227 44.1021 16.8776 43.9916 16.8776Z" fill="white"/>
<path d="M43.042 15.4507H42.5542V15.7412H42.7168V17.1423H43.042V15.4507Z" fill="white"/>
<path d="M23.999 15.4507H23.2576V17.1423H24.0055V16.8259H23.6283V16.445H23.9535V16.1286H23.6283V15.7606H23.999V15.4507Z" fill="white"/>
<path d="M27.2964 16.742C27.2395 16.742 27.1849 16.7644 27.1446 16.8044C27.1044 16.8444 27.0818 16.8986 27.0818 16.9551C27.0818 17.0116 27.1044 17.0658 27.1446 17.1057C27.1849 17.1457 27.2395 17.1681 27.2964 17.1681C27.3533 17.1681 27.4079 17.1457 27.4482 17.1057C27.4884 17.0658 27.511 17.0116 27.511 16.9551C27.511 16.8986 27.4884 16.8444 27.4482 16.8044C27.4079 16.7644 27.3533 16.742 27.2964 16.742Z" fill="white"/>
<path d="M26.828 15.4507H25.8784V15.7606H26.1646V17.1423H26.5353V15.7606H26.828V15.4507Z" fill="white"/>
<path d="M25.3647 15.8316V15.5088C25.2626 15.4546 25.1487 15.4258 25.033 15.4248C24.9675 15.4229 24.9024 15.4345 24.8418 15.4591C24.7812 15.4837 24.7265 15.5205 24.6812 15.5674C24.6358 15.6142 24.6009 15.67 24.5786 15.7311C24.5563 15.7921 24.5471 15.8572 24.5517 15.922C24.5534 16.0285 24.5862 16.1322 24.6463 16.2205C24.7064 16.3088 24.791 16.3778 24.8899 16.4192C24.9939 16.4902 25.111 16.5418 25.111 16.671C25.1103 16.6973 25.1041 16.7233 25.0926 16.7471C25.0811 16.7709 25.0647 16.792 25.0445 16.8091C25.0242 16.8262 25.0005 16.8388 24.975 16.8461C24.9495 16.8535 24.9227 16.8554 24.8964 16.8517C24.7959 16.8513 24.6981 16.8197 24.6167 16.7614V17.0842C24.7139 17.1389 24.8237 17.1678 24.9354 17.1681C25.0072 17.1739 25.0794 17.1642 25.1471 17.1397C25.2147 17.1152 25.2763 17.0765 25.3275 17.0262C25.3788 16.976 25.4185 16.9153 25.444 16.8485C25.4695 16.7816 25.4801 16.71 25.4752 16.6387C25.4752 16.1803 24.9094 16.1673 24.9094 15.8897C24.9092 15.8659 24.9141 15.8424 24.9238 15.8207C24.9335 15.7989 24.9478 15.7795 24.9656 15.7636C24.9834 15.7477 25.0045 15.7358 25.0273 15.7286C25.0501 15.7214 25.0742 15.7191 25.098 15.7218C25.1966 15.7283 25.2904 15.7669 25.3647 15.8316Z" fill="white"/>
<path d="M32.2782 6.52116C30.6003 6.52116 27.589 6.63738 26.2427 6.68258C25.82 6.68258 25.5924 6.68258 25.5924 6.68258C25.5233 6.68665 25.4566 6.70919 25.3993 6.74784C25.3421 6.78649 25.2964 6.83979 25.2672 6.9021C25.2465 6.94818 25.2291 6.99564 25.2152 7.04415C25.2152 7.04415 25.2152 7.11517 25.1696 7.19265C25.1566 7.25993 25.1618 7.32945 25.1846 7.3941C25.2075 7.45875 25.2472 7.51623 25.2997 7.56068L25.833 7.98682C26.8931 8.80681 29.2735 10.6405 30.6198 11.6348C30.119 13.2167 29.28 16.0899 28.9093 17.3812C28.7922 17.7815 28.7272 18.0268 28.7272 18.0268C28.7092 18.0933 28.7099 18.1635 28.7294 18.2295C28.749 18.2956 28.7864 18.355 28.8378 18.4013C28.8768 18.4362 28.9181 18.4686 28.9613 18.4982L29.0914 18.5886C29.1509 18.622 29.2181 18.6395 29.2865 18.6395C29.3549 18.6395 29.4221 18.622 29.4816 18.5886C29.4816 18.5886 29.6962 18.453 30.0474 18.2141C31.1661 17.4651 33.6635 15.7864 35.0228 14.8244C36.3886 15.7864 38.8796 17.4651 39.9982 18.2141C40.3494 18.453 40.5705 18.5886 40.5705 18.5886C40.6301 18.622 40.6973 18.6395 40.7657 18.6395C40.834 18.6395 40.9012 18.622 40.9608 18.5886L41.0908 18.4982C41.1341 18.4686 41.1754 18.4362 41.2144 18.4013C41.2635 18.3535 41.2994 18.2939 41.3188 18.2284C41.3381 18.1628 41.3403 18.0934 41.325 18.0268C41.325 18.0268 41.2599 17.7815 41.1429 17.3812C40.7722 16.0899 39.9332 13.2167 39.4324 11.6348C40.7722 10.6469 43.1525 8.80681 44.2192 7.98682L44.746 7.56068C44.7991 7.51653 44.8397 7.45931 44.8637 7.39474C44.8876 7.33017 44.8941 7.26049 44.8825 7.19265C44.8825 7.11517 44.837 7.04415 44.837 7.04415C44.823 6.99564 44.8057 6.94818 44.785 6.9021C44.7552 6.84021 44.7094 6.78728 44.6523 6.74871C44.5951 6.71014 44.5287 6.68732 44.4598 6.68258C44.4598 6.68258 44.2061 6.68258 43.8094 6.68258C42.4566 6.63738 39.4454 6.54053 37.7739 6.52116C37.2406 4.95221 36.2195 2.13712 35.7578 0.878083C35.6147 0.477773 35.5171 0.232422 35.5171 0.232422C35.4923 0.167898 35.45 0.111442 35.395 0.0692824C35.3399 0.0271224 35.2741 0.000903179 35.2049 -0.00646973H34.8472C34.7792 0.00202273 34.7148 0.0287489 34.661 0.070839C34.6071 0.112929 34.5658 0.168789 34.5416 0.232422C34.5416 0.232422 34.444 0.46486 34.3009 0.878083C33.8391 2.13712 32.8181 4.95221 32.2847 6.52116" fill="white"/>
<path d="M31.4197 11.4023L29.267 17.9623H29.2995H29.332L34.9513 13.9075L40.577 17.9623H40.6095H40.6421L38.4893 11.4023L44.1151 7.3476C44.1151 7.3476 44.1151 7.3476 44.1151 7.31531V7.27658V7.23784H37.2146L35.0683 0.677917H34.9838L32.8376 7.23784H25.833V7.27658V7.31531C25.833 7.31531 25.833 7.31531 25.833 7.3476L31.4197 11.4023Z" fill="#E30613"/>
<path d="M32.8961 38.9915C32.2202 38.4281 31.3658 38.1193 30.4832 38.1193C29.6007 38.1193 28.7463 38.4281 28.0703 38.9915C27.7235 39.3079 27.4516 39.6967 27.2739 40.1298C27.0962 40.5629 27.0173 41.0297 27.0427 41.4966V43.8598V46.2229C27.0234 46.6849 27.1059 47.1456 27.2845 47.5728C27.4631 47.9999 27.7335 48.3831 28.0768 48.6957C28.755 49.2544 29.6085 49.5601 30.4897 49.5601C31.371 49.5601 32.2245 49.2544 32.9026 48.6957C33.2396 48.3793 33.5045 47.9948 33.6795 47.5683C33.8545 47.1418 33.9356 46.6831 33.9172 46.2229V43.8598V41.4966C33.9356 41.0364 33.8545 40.5777 33.6795 40.1512C33.5045 39.7247 33.2396 39.3402 32.9026 39.0237L32.8961 38.9915ZM31.836 43.8598V46.1906C31.8582 46.5949 31.7285 46.9929 31.4718 47.3076C31.3446 47.4364 31.1929 47.5388 31.0253 47.6087C30.8578 47.6785 30.6779 47.7145 30.4962 47.7145C30.3145 47.7145 30.1347 47.6785 29.9672 47.6087C29.7996 47.5388 29.6478 47.4364 29.5207 47.3076C29.2564 46.999 29.1213 46.6015 29.1435 46.197V41.4966C29.1213 41.0922 29.2564 40.6947 29.5207 40.3861C29.6483 40.258 29.8002 40.1564 29.9677 40.087C30.1351 40.0176 30.3148 39.9819 30.4962 39.9819C30.6777 39.9819 30.8574 40.0176 31.0248 40.087C31.1923 40.1564 31.3442 40.258 31.4718 40.3861C31.7283 40.7033 31.858 41.1033 31.836 41.5095V43.8598Z" fill="white"/>
<path d="M41.9167 38.9915C41.2408 38.4281 40.3864 38.1193 39.5038 38.1193C38.6213 38.1193 37.7669 38.4281 37.091 38.9915C36.7473 39.3038 36.4766 39.687 36.298 40.1142C36.1194 40.5414 36.037 41.0022 36.0568 41.4643V43.8275V46.1906C36.0375 46.6527 36.12 47.1134 36.2986 47.5405C36.4772 47.9676 36.7477 48.3509 37.091 48.6635C37.7691 49.2221 38.6226 49.5279 39.5038 49.5279C40.3851 49.5279 41.2386 49.2221 41.9167 48.6635C42.2537 48.347 42.5186 47.9626 42.6936 47.536C42.8686 47.1095 42.9497 46.6508 42.9313 46.1906V43.8275V41.4966C42.9497 41.0364 42.8686 40.5777 42.6936 40.1512C42.5186 39.7247 42.2537 39.3402 41.9167 39.0237V38.9915ZM40.8501 43.8598V46.1906C40.8731 46.596 40.7406 46.9951 40.4794 47.3076C40.3527 47.4372 40.2011 47.5403 40.0335 47.6107C39.8659 47.6811 39.6858 47.7173 39.5038 47.7173C39.3219 47.7173 39.1418 47.6811 38.9742 47.6107C38.8066 47.5403 38.655 47.4372 38.5283 47.3076C38.264 46.999 38.1289 46.6015 38.151 46.197V41.4966C38.1289 41.0922 38.264 40.6947 38.5283 40.3861C38.6517 40.2482 38.8044 40.139 38.9753 40.0665C39.1462 39.9939 39.3311 39.9598 39.5168 39.9664C39.6996 39.9587 39.8818 39.9912 40.0504 40.0615C40.2191 40.1318 40.37 40.2383 40.4924 40.3732C40.7535 40.6883 40.8858 41.0893 40.8631 41.4966L40.8501 43.8598Z" fill="white"/>
<path d="M32.0897 41.2513C32.1145 40.7992 31.9578 40.3557 31.6539 40.0181C31.3379 39.723 30.9204 39.5587 30.4865 39.5587C30.0526 39.5587 29.6351 39.723 29.3191 40.0181C29.1663 40.1817 29.048 40.3739 28.971 40.5834C28.8939 40.7929 28.8597 41.0156 28.8703 41.2384H28.9158C28.919 40.85 29.0727 40.4777 29.3451 40.1989C29.4954 40.0518 29.6746 39.9369 29.8715 39.8614C30.0684 39.7859 30.2788 39.7513 30.4897 39.7598C30.6993 39.7498 30.9086 39.7831 31.1046 39.8575C31.3005 39.932 31.4787 40.046 31.6279 40.1924C31.8944 40.4771 32.0451 40.8498 32.0506 41.2384L32.0897 41.2513Z" fill="#BFBDBC"/>
<path d="M30.4896 37.8745C29.8891 37.8533 29.2916 37.9685 28.7427 38.2113C28.1938 38.4541 27.708 38.8181 27.3223 39.2756C26.9208 39.8206 26.6941 40.4731 26.6719 41.148C26.6699 41.163 26.6699 41.1782 26.6719 41.1932H26.6394V41.1351C26.6505 40.3776 26.8932 39.6413 27.3353 39.0238C27.7387 38.5859 28.2295 38.2362 28.7765 37.997C29.3235 37.7577 29.9147 37.6342 30.5124 37.6342C31.1101 37.6342 31.7013 37.7577 32.2483 37.997C32.7953 38.2362 33.2861 38.5859 33.6895 39.0238C34.1365 39.6392 34.3818 40.3764 34.3919 41.1351V41.1932H34.3529V41.148C34.3307 40.4731 34.104 39.8206 33.7025 39.2756C33.3168 38.8181 32.831 38.4541 32.2821 38.2113C31.7332 37.9685 31.1357 37.8533 30.5352 37.8745" fill="#BFBDBC"/>
<path d="M32.0896 46.3972C32.103 46.6212 32.0713 46.8456 31.9965 47.0573C31.9217 47.269 31.8052 47.4638 31.6538 47.6304C31.5023 47.7823 31.3205 47.901 31.12 47.9788C30.9195 48.0567 30.7047 48.092 30.4897 48.0824C30.2732 48.0904 30.0574 48.0538 29.856 47.9749C29.6545 47.896 29.4716 47.7765 29.319 47.624C29.1664 47.459 29.0482 47.2656 28.9712 47.0551C28.8941 46.8446 28.8598 46.621 28.8702 46.3972H28.9158C28.9402 46.6977 29.0492 46.9852 29.2304 47.2271C29.4116 47.469 29.6576 47.6554 29.9404 47.7652C30.2231 47.8749 30.5313 47.9035 30.8297 47.8477C31.1281 47.7919 31.4046 47.654 31.6278 47.4496C31.8953 47.163 32.046 46.7879 32.0506 46.3972H32.0896Z" fill="#BFBDBC"/>
<path d="M30.4896 49.774C29.8898 49.7946 29.2931 49.6797 28.7445 49.4381C28.1959 49.1966 27.7096 48.8346 27.3223 48.3794C26.9219 47.8338 26.6953 47.1816 26.6719 46.507C26.6703 46.492 26.6703 46.4768 26.6719 46.4618H26.6394V46.5264C26.6514 47.2817 26.8941 48.0157 27.3353 48.6312C27.7387 49.0691 28.2295 49.4188 28.7765 49.658C29.3235 49.8973 29.9147 50.0208 30.5124 50.0208C31.1101 50.0208 31.7013 49.8973 32.2483 49.658C32.7953 49.4188 33.2861 49.0691 33.6895 48.6312C34.1353 48.0176 34.3804 47.2828 34.3919 46.5264V46.4618H34.3529V46.507C34.3295 47.1816 34.1029 47.8338 33.7025 48.3794C33.3152 48.8346 32.8289 49.1966 32.2803 49.4381C31.7317 49.6797 31.135 49.7946 30.5352 49.774" fill="#BFBDBC"/>
<path d="M41.1038 41.2513C41.1286 40.7991 40.972 40.3557 40.6681 40.0181C40.5159 39.8672 40.3339 39.7491 40.1335 39.6713C39.9332 39.5936 39.7188 39.5577 39.5039 39.5661C39.2867 39.5564 39.0699 39.5929 38.868 39.6731C38.6661 39.7533 38.4838 39.8753 38.3332 40.031C38.1805 40.1946 38.0622 40.3868 37.9851 40.5963C37.9081 40.8058 37.8738 41.0285 37.8845 41.2513H37.9235C37.925 41.0498 37.9675 40.8507 38.0487 40.666C38.1298 40.4814 38.2477 40.3149 38.3954 40.1767C38.5431 40.0385 38.7175 39.9315 38.908 39.8621C39.0985 39.7926 39.3012 39.7622 39.5039 39.7727C39.7125 39.762 39.9211 39.795 40.1161 39.8695C40.311 39.944 40.488 40.0584 40.6355 40.2053C40.9066 40.4876 41.06 40.8613 41.0648 41.2513H41.1038Z" fill="#BFBDBC"/>
<path d="M39.5038 37.8745C38.9032 37.8528 38.3056 37.9678 37.7566 38.2106C37.2076 38.4535 36.7219 38.8177 36.3365 39.2756C35.935 39.8206 35.7083 40.4731 35.6861 41.148C35.684 41.163 35.684 41.1782 35.6861 41.1932H35.6536V41.1351C35.6647 40.3776 35.9074 39.6413 36.3495 39.0238C36.7529 38.5859 37.2437 38.2362 37.7907 37.997C38.3377 37.7577 38.9288 37.6342 39.5266 37.6342C40.1243 37.6342 40.7155 37.7577 41.2624 37.997C41.8094 38.2362 42.3002 38.5859 42.7036 39.0238C43.1507 39.6392 43.3959 40.3764 43.4061 41.1351V41.1932H43.367V41.148C43.3417 40.4737 43.1153 39.822 42.7167 39.2756C42.3309 38.8181 41.8451 38.4541 41.2962 38.2113C40.7474 37.9685 40.1499 37.8533 39.5493 37.8745" fill="#BFBDBC"/>
<path d="M41.1037 46.3972C41.1171 46.6212 41.0855 46.8456 41.0107 47.0573C40.9359 47.269 40.8194 47.4638 40.668 47.6304C40.3505 47.9227 39.9335 48.085 39.5006 48.085C39.0676 48.085 38.6506 47.9227 38.3331 47.6304C38.1805 47.4654 38.0623 47.2721 37.9853 47.0616C37.9083 46.851 37.874 46.6274 37.8844 46.4037H37.9234C37.9322 46.7922 38.0877 47.1632 38.3591 47.4432C38.6718 47.7218 39.0772 47.8759 39.4973 47.8759C39.9175 47.8759 40.3228 47.7218 40.6355 47.4432C40.9075 47.1589 41.0609 46.7828 41.0647 46.3907L41.1037 46.3972Z" fill="#BFBDBC"/>
<path d="M39.5038 49.774C38.9039 49.7955 38.3069 49.6811 37.7581 49.4395C37.2093 49.1978 36.7231 48.8353 36.3365 48.3794C35.936 47.8338 35.7095 47.1816 35.6861 46.507C35.6844 46.492 35.6844 46.4768 35.6861 46.4618H35.6536V46.5264C35.6656 47.2817 35.9082 48.0157 36.3495 48.6312C36.7529 49.0691 37.2437 49.4188 37.7907 49.658C38.3377 49.8973 38.9288 50.0208 39.5266 50.0208C40.1243 50.0208 40.7155 49.8973 41.2624 49.658C41.8094 49.4188 42.3002 49.0691 42.7036 48.6312C43.1494 48.0176 43.3946 47.2828 43.4061 46.5264V46.4618C43.3932 46.4592 43.3799 46.4592 43.367 46.4618V46.507C43.3405 47.1811 43.1143 47.8324 42.7167 48.3794C42.3294 48.8346 41.8431 49.1966 41.2945 49.4381C40.7458 49.6797 40.1491 49.7946 39.5493 49.774" fill="#BFBDBC"/>
<path d="M35.2894 49.8192H34.6846C34.5656 49.8192 34.4514 49.7723 34.3673 49.6887C34.2831 49.6052 34.2358 49.4919 34.2358 49.3737V48.7733C34.2358 48.6551 34.2831 48.5418 34.3673 48.4582C34.4514 48.3747 34.5656 48.3278 34.6846 48.3278H35.2894C35.4085 48.3278 35.5226 48.3747 35.6068 48.4582C35.6909 48.5418 35.7382 48.6551 35.7382 48.7733V49.3737C35.7382 49.4919 35.6909 49.6052 35.6068 49.6887C35.5226 49.7723 35.4085 49.8192 35.2894 49.8192Z" fill="white"/>
<path d="M18.1455 42.8074V43.0656L25.3387 43.5821V42.2844L18.1455 42.8074Z" fill="#BFBDBC"/>
<path d="M51.8286 42.8074V43.0656L44.6289 43.5821V42.2844L51.8286 42.8074Z" fill="#BFBDBC"/>
</g>
<defs>
<clipPath id="clip0_801_4982">
<rect width="70" height="50" fill="white"/>
</clipPath>
</defs>
</svg>
